M48
; DRILL file {KiCad 7.0.2-0} date 2023 September 22, Friday 13:18:51
; FORMAT={-:-/ absolute / metric / decimal}
; #@! TF.CreationDate,2023-09-22T13:18:51+12:00
; #@! TF.GenerationSoftware,Kicad,Pcbnew,7.0.2-0
; #@! TF.FileFunction,Plated,1,2,PTH
FMAT,2
METRIC
; #@! TA.AperFunction,Plated,PTH,ViaDrill
T1C0.400
; #@! TA.AperFunction,Plated,PTH,ViaDrill
T2C0.800
; #@! TA.AperFunction,Plated,PTH,ComponentDrill
T3C1.000
%
G90
G05
T1
X2.224Y9.556
X10.287Y19.843
X10.846Y16.688
X16.256Y9.652
X24.651Y20.193
X24.879Y16.878
T2
X13.716Y29.21
X13.716Y27.686
X13.716Y26.162
X13.716Y24.638
X13.716Y23.114
X13.716Y21.59
X13.716Y20.066
X13.716Y18.542
X13.716Y17.018
X13.716Y15.494
X13.716Y13.97
X13.716Y12.446
X13.716Y10.922
X13.716Y9.398
X13.716Y7.874
X13.716Y6.096
X13.716Y4.318
X13.716Y2.54
X13.716Y1.016
T3
X3.62Y19.843
X5.651Y12.636
X5.651Y7.136
X6.16Y19.843
X8.191Y12.636
X8.191Y7.136
X8.7Y19.843
X18.034Y20.193
X20.066Y12.446
X20.066Y6.946
X20.574Y20.193
X22.606Y12.446
X22.606Y6.946
X23.114Y20.193
T0
M30
