%TF.GenerationSoftware,KiCad,Pcbnew,7.0.2-0*%
%TF.CreationDate,2023-09-22T13:18:49+12:00*%
%TF.ProjectId,TCRT5000 seperated,54435254-3530-4303-9020-736570657261,rev?*%
%TF.SameCoordinates,PX66b4f80PY68290a0*%
%TF.FileFunction,Copper,L1,Top*%
%TF.FilePolarity,Positive*%
%FSLAX46Y46*%
G04 Gerber Fmt 4.6, Leading zero omitted, Abs format (unit mm)*
G04 Created by KiCad (PCBNEW 7.0.2-0) date 2023-09-22 13:18:49*
%MOMM*%
%LPD*%
G01*
G04 APERTURE LIST*
G04 Aperture macros list*
%AMRoundRect*
0 Rectangle with rounded corners*
0 $1 Rounding radius*
0 $2 $3 $4 $5 $6 $7 $8 $9 X,Y pos of 4 corners*
0 Add a 4 corners polygon primitive as box body*
4,1,4,$2,$3,$4,$5,$6,$7,$8,$9,$2,$3,0*
0 Add four circle primitives for the rounded corners*
1,1,$1+$1,$2,$3*
1,1,$1+$1,$4,$5*
1,1,$1+$1,$6,$7*
1,1,$1+$1,$8,$9*
0 Add four rect primitives between the rounded corners*
20,1,$1+$1,$2,$3,$4,$5,0*
20,1,$1+$1,$4,$5,$6,$7,0*
20,1,$1+$1,$6,$7,$8,$9,0*
20,1,$1+$1,$8,$9,$2,$3,0*%
G04 Aperture macros list end*
%TA.AperFunction,SMDPad,CuDef*%
%ADD10RoundRect,0.250000X-0.325000X-0.650000X0.325000X-0.650000X0.325000X0.650000X-0.325000X0.650000X0*%
%TD*%
%TA.AperFunction,SMDPad,CuDef*%
%ADD11RoundRect,0.250000X-0.450000X0.262500X-0.450000X-0.262500X0.450000X-0.262500X0.450000X0.262500X0*%
%TD*%
%TA.AperFunction,ComponentPad*%
%ADD12R,1.700000X1.700000*%
%TD*%
%TA.AperFunction,ComponentPad*%
%ADD13O,1.700000X1.700000*%
%TD*%
%TA.AperFunction,SMDPad,CuDef*%
%ADD14RoundRect,0.250000X0.262500X0.450000X-0.262500X0.450000X-0.262500X-0.450000X0.262500X-0.450000X0*%
%TD*%
%TA.AperFunction,ComponentPad*%
%ADD15C,1.500000*%
%TD*%
%TA.AperFunction,SMDPad,CuDef*%
%ADD16RoundRect,0.250000X0.450000X-0.262500X0.450000X0.262500X-0.450000X0.262500X-0.450000X-0.262500X0*%
%TD*%
%TA.AperFunction,ViaPad*%
%ADD17C,0.800000*%
%TD*%
%TA.AperFunction,Conductor*%
%ADD18C,0.300000*%
%TD*%
%TA.AperFunction,Conductor*%
%ADD19C,0.250000*%
%TD*%
%TA.AperFunction,Conductor*%
%ADD20C,1.000000*%
%TD*%
G04 APERTURE END LIST*
D10*
%TO.P,C1,1*%
%TO.N,Sensor 01*%
X6604000Y16687800D03*
%TO.P,C1,2*%
%TO.N,GND*%
X9554000Y16687800D03*
%TD*%
D11*
%TO.P,R2,1*%
%TO.N,Sensor 01*%
X2223500Y12985300D03*
%TO.P,R2,2*%
%TO.N,GND*%
X2223500Y11160300D03*
%TD*%
%TO.P,R5,1*%
%TO.N,Sensor 02*%
X16256000Y13081000D03*
%TO.P,R5,2*%
%TO.N,GND*%
X16256000Y11256000D03*
%TD*%
D12*
%TO.P,J1,1,Pin_1*%
%TO.N,+3.3V*%
X3620500Y19843300D03*
D13*
%TO.P,J1,2,Pin_2*%
%TO.N,Sensor 01R*%
X6160500Y19843300D03*
%TO.P,J1,3,Pin_3*%
%TO.N,GND*%
X8700500Y19843300D03*
%TD*%
D10*
%TO.P,C2,1*%
%TO.N,Sensor 02*%
X20701000Y16891000D03*
%TO.P,C2,2*%
%TO.N,GND*%
X23651000Y16891000D03*
%TD*%
D12*
%TO.P,J2,1,Pin_1*%
%TO.N,+3.3V*%
X18034000Y20193000D03*
D13*
%TO.P,J2,2,Pin_2*%
%TO.N,Sensor 02R*%
X20574000Y20193000D03*
%TO.P,J2,3,Pin_3*%
%TO.N,GND*%
X23114000Y20193000D03*
%TD*%
D14*
%TO.P,R3,1*%
%TO.N,Sensor 01*%
X4415800Y16586200D03*
%TO.P,R3,2*%
%TO.N,Sensor 01R*%
X2590800Y16586200D03*
%TD*%
D15*
%TO.P,U2,A*%
%TO.N,+3.3V*%
X22606000Y6946000D03*
%TO.P,U2,CATH*%
%TO.N,Net-(R4-Pad1)*%
X20066000Y6946000D03*
%TO.P,U2,COLL*%
%TO.N,+3.3V*%
X22606000Y12446000D03*
%TO.P,U2,E*%
%TO.N,Sensor 02*%
X20066000Y12446000D03*
%TD*%
D16*
%TO.P,R4,1*%
%TO.N,Net-(R4-Pad1)*%
X16256000Y6176000D03*
%TO.P,R4,2*%
%TO.N,GND*%
X16256000Y8001000D03*
%TD*%
D14*
%TO.P,R6,1*%
%TO.N,Sensor 02*%
X18589000Y16891000D03*
%TO.P,R6,2*%
%TO.N,Sensor 02R*%
X16764000Y16891000D03*
%TD*%
D16*
%TO.P,R1,1*%
%TO.N,Net-(R1-Pad1)*%
X2223500Y6080300D03*
%TO.P,R1,2*%
%TO.N,GND*%
X2223500Y7905300D03*
%TD*%
D15*
%TO.P,U1,A*%
%TO.N,+3.3V*%
X8191500Y7136500D03*
%TO.P,U1,CATH*%
%TO.N,Net-(R1-Pad1)*%
X5651500Y7136500D03*
%TO.P,U1,COLL*%
%TO.N,+3.3V*%
X8191500Y12636500D03*
%TO.P,U1,E*%
%TO.N,Sensor 01*%
X5651500Y12636500D03*
%TD*%
D17*
%TO.N,*%
X13716000Y1016000D03*
X13716000Y10922000D03*
X13716000Y15494000D03*
X13716000Y9398000D03*
X13716000Y23114000D03*
X13716000Y21590000D03*
X13716000Y24638000D03*
X13716000Y6096000D03*
X13716000Y4318000D03*
X13716000Y17018000D03*
X13716000Y27686000D03*
X13716000Y20066000D03*
X13716000Y26162000D03*
X13716000Y13970000D03*
X13716000Y29210000D03*
X13716000Y18542000D03*
X13716000Y2540000D03*
X13716000Y12446000D03*
X13716000Y7874000D03*
%TO.N,GND*%
X10845800Y16687800D03*
X24650700Y20193000D03*
X2223500Y9556300D03*
X24879300Y16878300D03*
X16256000Y9652000D03*
X10287000Y19843300D03*
%TD*%
D18*
%TO.N,Sensor 01*%
X6604000Y16027400D02*
X7416800Y15214600D01*
X5651500Y15350500D02*
X5651500Y12636500D01*
X7416800Y14401800D02*
X5651500Y12636500D01*
X2223500Y12985300D02*
X2572300Y12636500D01*
X2572300Y12636500D02*
X5651500Y12636500D01*
X6604000Y16687800D02*
X6604000Y16027400D01*
X7416800Y15214600D02*
X7416800Y14401800D01*
X4415800Y16586200D02*
X5651500Y15350500D01*
%TO.N,GND*%
X2223500Y7905300D02*
X2223500Y9556300D01*
X8700500Y19843300D02*
X10287000Y19843300D01*
X16256000Y8001000D02*
X16256000Y9652000D01*
D19*
X24866600Y16891000D02*
X23651000Y16891000D01*
D18*
X2223500Y11160300D02*
X2223500Y9556300D01*
D19*
X24650700Y20193000D02*
X23114000Y20193000D01*
D18*
X9554000Y16687800D02*
X10845800Y16687800D01*
X16256000Y11256000D02*
X16256000Y9652000D01*
D19*
X24879300Y16878300D02*
X24866600Y16891000D01*
D20*
%TO.N,+3.3V*%
X3620500Y21832300D02*
X3860800Y22072600D01*
X11945800Y12649200D02*
X11945800Y9830140D01*
X3860800Y22072600D02*
X11074400Y22072600D01*
X11074400Y22072600D02*
X11945800Y21201200D01*
X18034000Y20193000D02*
X19584000Y21743000D01*
X25996900Y12611100D02*
X25996900Y9276240D01*
X11933100Y12636500D02*
X11945800Y12649200D01*
X11945800Y21201200D02*
X11945800Y16232165D01*
X11938000Y16224365D02*
X11938000Y12657000D01*
X24656335Y21743000D02*
X25996900Y20402435D01*
X11945800Y16232165D02*
X11938000Y16224365D01*
X25996900Y9276240D02*
X23666660Y6946000D01*
X11938000Y12657000D02*
X11945800Y12649200D01*
X25831800Y12446000D02*
X25996900Y12611100D01*
X23666660Y6946000D02*
X22606000Y6946000D01*
X8191500Y12636500D02*
X11933100Y12636500D01*
X11945800Y9830140D02*
X9252160Y7136500D01*
X3620500Y19843300D02*
X3620500Y21832300D01*
X9252160Y7136500D02*
X8191500Y7136500D01*
X25996900Y20402435D02*
X25996900Y12611100D01*
X19584000Y21743000D02*
X24656335Y21743000D01*
X22606000Y12446000D02*
X25831800Y12446000D01*
D18*
%TO.N,Sensor 01R*%
X2590800Y16586200D02*
X5847900Y19843300D01*
X5847900Y19843300D02*
X6160500Y19843300D01*
%TO.N,Net-(R1-Pad1)*%
X4595300Y6080300D02*
X5651500Y7136500D01*
X2223500Y6080300D02*
X4595300Y6080300D01*
%TO.N,Sensor 02*%
X18589000Y16891000D02*
X20066000Y15414000D01*
X16891000Y12446000D02*
X20066000Y12446000D01*
X16256000Y13081000D02*
X16891000Y12446000D01*
X20701000Y16891000D02*
X21506000Y16086000D01*
X21506000Y16086000D02*
X21506000Y13886000D01*
X20066000Y15414000D02*
X20066000Y12446000D01*
X21506000Y13886000D02*
X20066000Y12446000D01*
%TO.N,Sensor 02R*%
X20320000Y20193000D02*
X20574000Y20193000D01*
D19*
X20352000Y20193000D02*
X20574000Y20193000D01*
D18*
X17018000Y16891000D02*
X20320000Y20193000D01*
D19*
X16764000Y16891000D02*
X17050000Y16891000D01*
D18*
X16764000Y16891000D02*
X17018000Y16891000D01*
%TO.N,Net-(R4-Pad1)*%
X16256000Y6176000D02*
X19296000Y6176000D01*
X19296000Y6176000D02*
X20066000Y6946000D01*
%TD*%
M02*
