%TF.GenerationSoftware,KiCad,Pcbnew,7.0.2-0*%
%TF.CreationDate,2023-09-22T13:16:16+12:00*%
%TF.ProjectId,SensorBoard,53656e73-6f72-4426-9f61-72642e6b6963,rev?*%
%TF.SameCoordinates,PX60e4b00PY48ab840*%
%TF.FileFunction,Soldermask,Bot*%
%TF.FilePolarity,Negative*%
%FSLAX46Y46*%
G04 Gerber Fmt 4.6, Leading zero omitted, Abs format (unit mm)*
G04 Created by KiCad (PCBNEW 7.0.2-0) date 2023-09-22 13:16:16*
%MOMM*%
%LPD*%
G01*
G04 APERTURE LIST*
%ADD10C,1.000000*%
%ADD11C,2.500000*%
%ADD12C,1.704000*%
%ADD13C,2.200000*%
%ADD14R,1.500000X1.050000*%
%ADD15O,1.500000X1.050000*%
%ADD16R,1.700000X1.700000*%
%ADD17O,1.700000X1.700000*%
G04 APERTURE END LIST*
D10*
%TO.C,U1*%
X87720000Y12060000D03*
D11*
X92070000Y7410000D03*
X88270000Y7410000D03*
D12*
X91440000Y4660000D03*
X88900000Y4660000D03*
X91440000Y10160000D03*
X88900000Y10160000D03*
%TD*%
D13*
%TO.C,H1*%
X54864000Y29718000D03*
%TD*%
D10*
%TO.C,U5*%
X6440000Y12060000D03*
D11*
X10790000Y7410000D03*
X6990000Y7410000D03*
D12*
X10160000Y4660000D03*
X7620000Y4660000D03*
X10160000Y10160000D03*
X7620000Y10160000D03*
%TD*%
D10*
%TO.C,U4*%
X26760000Y12060000D03*
D11*
X31110000Y7410000D03*
X27310000Y7410000D03*
D12*
X30480000Y4660000D03*
X27940000Y4660000D03*
X30480000Y10160000D03*
X27940000Y10160000D03*
%TD*%
D10*
%TO.C,U2*%
X67400000Y12060000D03*
D11*
X71750000Y7410000D03*
X67950000Y7410000D03*
D12*
X71120000Y4660000D03*
X68580000Y4660000D03*
X71120000Y10160000D03*
X68580000Y10160000D03*
%TD*%
D10*
%TO.C,U3*%
X47080000Y12060000D03*
D11*
X51430000Y7410000D03*
X47630000Y7410000D03*
D12*
X50800000Y4660000D03*
X48260000Y4660000D03*
X50800000Y10160000D03*
X48260000Y10160000D03*
%TD*%
D14*
%TO.C,U6*%
X45868000Y31242000D03*
D15*
X45868000Y29972000D03*
X45868000Y28702000D03*
%TD*%
D16*
%TO.C,J1*%
X45720000Y25400000D03*
D17*
X45720000Y22860000D03*
X48260000Y25400000D03*
X48260000Y22860000D03*
X50800000Y25400000D03*
X50800000Y22860000D03*
X53340000Y25400000D03*
X53340000Y22860000D03*
%TD*%
M02*
