%TF.GenerationSoftware,KiCad,Pcbnew,7.0.2-0*%
%TF.CreationDate,2023-09-22T13:16:16+12:00*%
%TF.ProjectId,SensorBoard,53656e73-6f72-4426-9f61-72642e6b6963,rev?*%
%TF.SameCoordinates,PX60e4b00PY48ab840*%
%TF.FileFunction,Legend,Top*%
%TF.FilePolarity,Positive*%
%FSLAX46Y46*%
G04 Gerber Fmt 4.6, Leading zero omitted, Abs format (unit mm)*
G04 Created by KiCad (PCBNEW 7.0.2-0) date 2023-09-22 13:16:16*
%MOMM*%
%LPD*%
G01*
G04 APERTURE LIST*
%ADD10C,0.150000*%
%ADD11C,0.120000*%
%ADD12C,0.127000*%
G04 APERTURE END LIST*
D10*
X92201904Y1836762D02*
X92106666Y1884381D01*
X92106666Y1884381D02*
X91963809Y1884381D01*
X91963809Y1884381D02*
X91820952Y1836762D01*
X91820952Y1836762D02*
X91725714Y1741524D01*
X91725714Y1741524D02*
X91678095Y1646286D01*
X91678095Y1646286D02*
X91630476Y1455810D01*
X91630476Y1455810D02*
X91630476Y1312953D01*
X91630476Y1312953D02*
X91678095Y1122477D01*
X91678095Y1122477D02*
X91725714Y1027239D01*
X91725714Y1027239D02*
X91820952Y932000D01*
X91820952Y932000D02*
X91963809Y884381D01*
X91963809Y884381D02*
X92059047Y884381D01*
X92059047Y884381D02*
X92201904Y932000D01*
X92201904Y932000D02*
X92249523Y979620D01*
X92249523Y979620D02*
X92249523Y1312953D01*
X92249523Y1312953D02*
X92059047Y1312953D01*
X92678095Y884381D02*
X92678095Y1551048D01*
X92678095Y1360572D02*
X92725714Y1455810D01*
X92725714Y1455810D02*
X92773333Y1503429D01*
X92773333Y1503429D02*
X92868571Y1551048D01*
X92868571Y1551048D02*
X92963809Y1551048D01*
X93440000Y884381D02*
X93344762Y932000D01*
X93344762Y932000D02*
X93297143Y979620D01*
X93297143Y979620D02*
X93249524Y1074858D01*
X93249524Y1074858D02*
X93249524Y1360572D01*
X93249524Y1360572D02*
X93297143Y1455810D01*
X93297143Y1455810D02*
X93344762Y1503429D01*
X93344762Y1503429D02*
X93440000Y1551048D01*
X93440000Y1551048D02*
X93582857Y1551048D01*
X93582857Y1551048D02*
X93678095Y1503429D01*
X93678095Y1503429D02*
X93725714Y1455810D01*
X93725714Y1455810D02*
X93773333Y1360572D01*
X93773333Y1360572D02*
X93773333Y1074858D01*
X93773333Y1074858D02*
X93725714Y979620D01*
X93725714Y979620D02*
X93678095Y932000D01*
X93678095Y932000D02*
X93582857Y884381D01*
X93582857Y884381D02*
X93440000Y884381D01*
X94630476Y1551048D02*
X94630476Y884381D01*
X94201905Y1551048D02*
X94201905Y1027239D01*
X94201905Y1027239D02*
X94249524Y932000D01*
X94249524Y932000D02*
X94344762Y884381D01*
X94344762Y884381D02*
X94487619Y884381D01*
X94487619Y884381D02*
X94582857Y932000D01*
X94582857Y932000D02*
X94630476Y979620D01*
X95106667Y1551048D02*
X95106667Y551048D01*
X95106667Y1503429D02*
X95201905Y1551048D01*
X95201905Y1551048D02*
X95392381Y1551048D01*
X95392381Y1551048D02*
X95487619Y1503429D01*
X95487619Y1503429D02*
X95535238Y1455810D01*
X95535238Y1455810D02*
X95582857Y1360572D01*
X95582857Y1360572D02*
X95582857Y1074858D01*
X95582857Y1074858D02*
X95535238Y979620D01*
X95535238Y979620D02*
X95487619Y932000D01*
X95487619Y932000D02*
X95392381Y884381D01*
X95392381Y884381D02*
X95201905Y884381D01*
X95201905Y884381D02*
X95106667Y932000D01*
X97297143Y884381D02*
X96725715Y884381D01*
X97011429Y884381D02*
X97011429Y1884381D01*
X97011429Y1884381D02*
X96916191Y1741524D01*
X96916191Y1741524D02*
X96820953Y1646286D01*
X96820953Y1646286D02*
X96725715Y1598667D01*
X97678096Y1789143D02*
X97725715Y1836762D01*
X97725715Y1836762D02*
X97820953Y1884381D01*
X97820953Y1884381D02*
X98059048Y1884381D01*
X98059048Y1884381D02*
X98154286Y1836762D01*
X98154286Y1836762D02*
X98201905Y1789143D01*
X98201905Y1789143D02*
X98249524Y1693905D01*
X98249524Y1693905D02*
X98249524Y1598667D01*
X98249524Y1598667D02*
X98201905Y1455810D01*
X98201905Y1455810D02*
X97630477Y884381D01*
X97630477Y884381D02*
X98249524Y884381D01*
X49022000Y34036000D02*
X49022000Y32004000D01*
%TO.C,C7*%
X19235380Y9231334D02*
X19283000Y9183715D01*
X19283000Y9183715D02*
X19330619Y9040858D01*
X19330619Y9040858D02*
X19330619Y8945620D01*
X19330619Y8945620D02*
X19283000Y8802763D01*
X19283000Y8802763D02*
X19187761Y8707525D01*
X19187761Y8707525D02*
X19092523Y8659906D01*
X19092523Y8659906D02*
X18902047Y8612287D01*
X18902047Y8612287D02*
X18759190Y8612287D01*
X18759190Y8612287D02*
X18568714Y8659906D01*
X18568714Y8659906D02*
X18473476Y8707525D01*
X18473476Y8707525D02*
X18378238Y8802763D01*
X18378238Y8802763D02*
X18330619Y8945620D01*
X18330619Y8945620D02*
X18330619Y9040858D01*
X18330619Y9040858D02*
X18378238Y9183715D01*
X18378238Y9183715D02*
X18425857Y9231334D01*
X18330619Y9564668D02*
X18330619Y10231334D01*
X18330619Y10231334D02*
X19330619Y9802763D01*
%TO.C,R13*%
X77335142Y11729381D02*
X77001809Y12205572D01*
X76763714Y11729381D02*
X76763714Y12729381D01*
X76763714Y12729381D02*
X77144666Y12729381D01*
X77144666Y12729381D02*
X77239904Y12681762D01*
X77239904Y12681762D02*
X77287523Y12634143D01*
X77287523Y12634143D02*
X77335142Y12538905D01*
X77335142Y12538905D02*
X77335142Y12396048D01*
X77335142Y12396048D02*
X77287523Y12300810D01*
X77287523Y12300810D02*
X77239904Y12253191D01*
X77239904Y12253191D02*
X77144666Y12205572D01*
X77144666Y12205572D02*
X76763714Y12205572D01*
X78287523Y11729381D02*
X77716095Y11729381D01*
X78001809Y11729381D02*
X78001809Y12729381D01*
X78001809Y12729381D02*
X77906571Y12586524D01*
X77906571Y12586524D02*
X77811333Y12491286D01*
X77811333Y12491286D02*
X77716095Y12443667D01*
X78620857Y12729381D02*
X79239904Y12729381D01*
X79239904Y12729381D02*
X78906571Y12348429D01*
X78906571Y12348429D02*
X79049428Y12348429D01*
X79049428Y12348429D02*
X79144666Y12300810D01*
X79144666Y12300810D02*
X79192285Y12253191D01*
X79192285Y12253191D02*
X79239904Y12157953D01*
X79239904Y12157953D02*
X79239904Y11919858D01*
X79239904Y11919858D02*
X79192285Y11824620D01*
X79192285Y11824620D02*
X79144666Y11777000D01*
X79144666Y11777000D02*
X79049428Y11729381D01*
X79049428Y11729381D02*
X78763714Y11729381D01*
X78763714Y11729381D02*
X78668476Y11777000D01*
X78668476Y11777000D02*
X78620857Y11824620D01*
%TO.C,R7*%
X23196619Y5317834D02*
X22720428Y4984501D01*
X23196619Y4746406D02*
X22196619Y4746406D01*
X22196619Y4746406D02*
X22196619Y5127358D01*
X22196619Y5127358D02*
X22244238Y5222596D01*
X22244238Y5222596D02*
X22291857Y5270215D01*
X22291857Y5270215D02*
X22387095Y5317834D01*
X22387095Y5317834D02*
X22529952Y5317834D01*
X22529952Y5317834D02*
X22625190Y5270215D01*
X22625190Y5270215D02*
X22672809Y5222596D01*
X22672809Y5222596D02*
X22720428Y5127358D01*
X22720428Y5127358D02*
X22720428Y4746406D01*
X22196619Y5651168D02*
X22196619Y6317834D01*
X22196619Y6317834D02*
X23196619Y5889263D01*
%TO.C,R14*%
X59301142Y11347381D02*
X58967809Y11823572D01*
X58729714Y11347381D02*
X58729714Y12347381D01*
X58729714Y12347381D02*
X59110666Y12347381D01*
X59110666Y12347381D02*
X59205904Y12299762D01*
X59205904Y12299762D02*
X59253523Y12252143D01*
X59253523Y12252143D02*
X59301142Y12156905D01*
X59301142Y12156905D02*
X59301142Y12014048D01*
X59301142Y12014048D02*
X59253523Y11918810D01*
X59253523Y11918810D02*
X59205904Y11871191D01*
X59205904Y11871191D02*
X59110666Y11823572D01*
X59110666Y11823572D02*
X58729714Y11823572D01*
X60253523Y11347381D02*
X59682095Y11347381D01*
X59967809Y11347381D02*
X59967809Y12347381D01*
X59967809Y12347381D02*
X59872571Y12204524D01*
X59872571Y12204524D02*
X59777333Y12109286D01*
X59777333Y12109286D02*
X59682095Y12061667D01*
X61110666Y12014048D02*
X61110666Y11347381D01*
X60872571Y12395000D02*
X60634476Y11680715D01*
X60634476Y11680715D02*
X61253523Y11680715D01*
%TO.C,R8*%
X23068619Y9080834D02*
X22592428Y8747501D01*
X23068619Y8509406D02*
X22068619Y8509406D01*
X22068619Y8509406D02*
X22068619Y8890358D01*
X22068619Y8890358D02*
X22116238Y8985596D01*
X22116238Y8985596D02*
X22163857Y9033215D01*
X22163857Y9033215D02*
X22259095Y9080834D01*
X22259095Y9080834D02*
X22401952Y9080834D01*
X22401952Y9080834D02*
X22497190Y9033215D01*
X22497190Y9033215D02*
X22544809Y8985596D01*
X22544809Y8985596D02*
X22592428Y8890358D01*
X22592428Y8890358D02*
X22592428Y8509406D01*
X22497190Y9652263D02*
X22449571Y9557025D01*
X22449571Y9557025D02*
X22401952Y9509406D01*
X22401952Y9509406D02*
X22306714Y9461787D01*
X22306714Y9461787D02*
X22259095Y9461787D01*
X22259095Y9461787D02*
X22163857Y9509406D01*
X22163857Y9509406D02*
X22116238Y9557025D01*
X22116238Y9557025D02*
X22068619Y9652263D01*
X22068619Y9652263D02*
X22068619Y9842739D01*
X22068619Y9842739D02*
X22116238Y9937977D01*
X22116238Y9937977D02*
X22163857Y9985596D01*
X22163857Y9985596D02*
X22259095Y10033215D01*
X22259095Y10033215D02*
X22306714Y10033215D01*
X22306714Y10033215D02*
X22401952Y9985596D01*
X22401952Y9985596D02*
X22449571Y9937977D01*
X22449571Y9937977D02*
X22497190Y9842739D01*
X22497190Y9842739D02*
X22497190Y9652263D01*
X22497190Y9652263D02*
X22544809Y9557025D01*
X22544809Y9557025D02*
X22592428Y9509406D01*
X22592428Y9509406D02*
X22687666Y9461787D01*
X22687666Y9461787D02*
X22878142Y9461787D01*
X22878142Y9461787D02*
X22973380Y9509406D01*
X22973380Y9509406D02*
X23021000Y9557025D01*
X23021000Y9557025D02*
X23068619Y9652263D01*
X23068619Y9652263D02*
X23068619Y9842739D01*
X23068619Y9842739D02*
X23021000Y9937977D01*
X23021000Y9937977D02*
X22973380Y9985596D01*
X22973380Y9985596D02*
X22878142Y10033215D01*
X22878142Y10033215D02*
X22687666Y10033215D01*
X22687666Y10033215D02*
X22592428Y9985596D01*
X22592428Y9985596D02*
X22544809Y9937977D01*
X22544809Y9937977D02*
X22497190Y9842739D01*
%TO.C,U1*%
X93948402Y11172952D02*
X94761266Y11172952D01*
X94761266Y11172952D02*
X94856897Y11220768D01*
X94856897Y11220768D02*
X94904713Y11268583D01*
X94904713Y11268583D02*
X94952528Y11364214D01*
X94952528Y11364214D02*
X94952528Y11555476D01*
X94952528Y11555476D02*
X94904713Y11651107D01*
X94904713Y11651107D02*
X94856897Y11698923D01*
X94856897Y11698923D02*
X94761266Y11746738D01*
X94761266Y11746738D02*
X93948402Y11746738D01*
X94952528Y12750865D02*
X94952528Y12177079D01*
X94952528Y12463972D02*
X93948402Y12463972D01*
X93948402Y12463972D02*
X94091849Y12368341D01*
X94091849Y12368341D02*
X94187480Y12272710D01*
X94187480Y12272710D02*
X94235295Y12177079D01*
%TO.C,R3*%
X63708619Y5317834D02*
X63232428Y4984501D01*
X63708619Y4746406D02*
X62708619Y4746406D01*
X62708619Y4746406D02*
X62708619Y5127358D01*
X62708619Y5127358D02*
X62756238Y5222596D01*
X62756238Y5222596D02*
X62803857Y5270215D01*
X62803857Y5270215D02*
X62899095Y5317834D01*
X62899095Y5317834D02*
X63041952Y5317834D01*
X63041952Y5317834D02*
X63137190Y5270215D01*
X63137190Y5270215D02*
X63184809Y5222596D01*
X63184809Y5222596D02*
X63232428Y5127358D01*
X63232428Y5127358D02*
X63232428Y4746406D01*
X62708619Y5651168D02*
X62708619Y6270215D01*
X62708619Y6270215D02*
X63089571Y5936882D01*
X63089571Y5936882D02*
X63089571Y6079739D01*
X63089571Y6079739D02*
X63137190Y6174977D01*
X63137190Y6174977D02*
X63184809Y6222596D01*
X63184809Y6222596D02*
X63280047Y6270215D01*
X63280047Y6270215D02*
X63518142Y6270215D01*
X63518142Y6270215D02*
X63613380Y6222596D01*
X63613380Y6222596D02*
X63661000Y6174977D01*
X63661000Y6174977D02*
X63708619Y6079739D01*
X63708619Y6079739D02*
X63708619Y5794025D01*
X63708619Y5794025D02*
X63661000Y5698787D01*
X63661000Y5698787D02*
X63613380Y5651168D01*
%TO.C,R5*%
X43363219Y5317834D02*
X42887028Y4984501D01*
X43363219Y4746406D02*
X42363219Y4746406D01*
X42363219Y4746406D02*
X42363219Y5127358D01*
X42363219Y5127358D02*
X42410838Y5222596D01*
X42410838Y5222596D02*
X42458457Y5270215D01*
X42458457Y5270215D02*
X42553695Y5317834D01*
X42553695Y5317834D02*
X42696552Y5317834D01*
X42696552Y5317834D02*
X42791790Y5270215D01*
X42791790Y5270215D02*
X42839409Y5222596D01*
X42839409Y5222596D02*
X42887028Y5127358D01*
X42887028Y5127358D02*
X42887028Y4746406D01*
X42363219Y6222596D02*
X42363219Y5746406D01*
X42363219Y5746406D02*
X42839409Y5698787D01*
X42839409Y5698787D02*
X42791790Y5746406D01*
X42791790Y5746406D02*
X42744171Y5841644D01*
X42744171Y5841644D02*
X42744171Y6079739D01*
X42744171Y6079739D02*
X42791790Y6174977D01*
X42791790Y6174977D02*
X42839409Y6222596D01*
X42839409Y6222596D02*
X42934647Y6270215D01*
X42934647Y6270215D02*
X43172742Y6270215D01*
X43172742Y6270215D02*
X43267980Y6222596D01*
X43267980Y6222596D02*
X43315600Y6174977D01*
X43315600Y6174977D02*
X43363219Y6079739D01*
X43363219Y6079739D02*
X43363219Y5841644D01*
X43363219Y5841644D02*
X43315600Y5746406D01*
X43315600Y5746406D02*
X43267980Y5698787D01*
%TO.C,R12*%
X49903142Y33065381D02*
X49569809Y33541572D01*
X49331714Y33065381D02*
X49331714Y34065381D01*
X49331714Y34065381D02*
X49712666Y34065381D01*
X49712666Y34065381D02*
X49807904Y34017762D01*
X49807904Y34017762D02*
X49855523Y33970143D01*
X49855523Y33970143D02*
X49903142Y33874905D01*
X49903142Y33874905D02*
X49903142Y33732048D01*
X49903142Y33732048D02*
X49855523Y33636810D01*
X49855523Y33636810D02*
X49807904Y33589191D01*
X49807904Y33589191D02*
X49712666Y33541572D01*
X49712666Y33541572D02*
X49331714Y33541572D01*
X50855523Y33065381D02*
X50284095Y33065381D01*
X50569809Y33065381D02*
X50569809Y34065381D01*
X50569809Y34065381D02*
X50474571Y33922524D01*
X50474571Y33922524D02*
X50379333Y33827286D01*
X50379333Y33827286D02*
X50284095Y33779667D01*
X51236476Y33970143D02*
X51284095Y34017762D01*
X51284095Y34017762D02*
X51379333Y34065381D01*
X51379333Y34065381D02*
X51617428Y34065381D01*
X51617428Y34065381D02*
X51712666Y34017762D01*
X51712666Y34017762D02*
X51760285Y33970143D01*
X51760285Y33970143D02*
X51807904Y33874905D01*
X51807904Y33874905D02*
X51807904Y33779667D01*
X51807904Y33779667D02*
X51760285Y33636810D01*
X51760285Y33636810D02*
X51188857Y33065381D01*
X51188857Y33065381D02*
X51807904Y33065381D01*
%TO.C,R17*%
X18915142Y11729381D02*
X18581809Y12205572D01*
X18343714Y11729381D02*
X18343714Y12729381D01*
X18343714Y12729381D02*
X18724666Y12729381D01*
X18724666Y12729381D02*
X18819904Y12681762D01*
X18819904Y12681762D02*
X18867523Y12634143D01*
X18867523Y12634143D02*
X18915142Y12538905D01*
X18915142Y12538905D02*
X18915142Y12396048D01*
X18915142Y12396048D02*
X18867523Y12300810D01*
X18867523Y12300810D02*
X18819904Y12253191D01*
X18819904Y12253191D02*
X18724666Y12205572D01*
X18724666Y12205572D02*
X18343714Y12205572D01*
X19867523Y11729381D02*
X19296095Y11729381D01*
X19581809Y11729381D02*
X19581809Y12729381D01*
X19581809Y12729381D02*
X19486571Y12586524D01*
X19486571Y12586524D02*
X19391333Y12491286D01*
X19391333Y12491286D02*
X19296095Y12443667D01*
X20200857Y12729381D02*
X20867523Y12729381D01*
X20867523Y12729381D02*
X20438952Y11729381D01*
%TO.C,R2*%
X84028619Y8977334D02*
X83552428Y8644001D01*
X84028619Y8405906D02*
X83028619Y8405906D01*
X83028619Y8405906D02*
X83028619Y8786858D01*
X83028619Y8786858D02*
X83076238Y8882096D01*
X83076238Y8882096D02*
X83123857Y8929715D01*
X83123857Y8929715D02*
X83219095Y8977334D01*
X83219095Y8977334D02*
X83361952Y8977334D01*
X83361952Y8977334D02*
X83457190Y8929715D01*
X83457190Y8929715D02*
X83504809Y8882096D01*
X83504809Y8882096D02*
X83552428Y8786858D01*
X83552428Y8786858D02*
X83552428Y8405906D01*
X83123857Y9358287D02*
X83076238Y9405906D01*
X83076238Y9405906D02*
X83028619Y9501144D01*
X83028619Y9501144D02*
X83028619Y9739239D01*
X83028619Y9739239D02*
X83076238Y9834477D01*
X83076238Y9834477D02*
X83123857Y9882096D01*
X83123857Y9882096D02*
X83219095Y9929715D01*
X83219095Y9929715D02*
X83314333Y9929715D01*
X83314333Y9929715D02*
X83457190Y9882096D01*
X83457190Y9882096D02*
X84028619Y9310668D01*
X84028619Y9310668D02*
X84028619Y9929715D01*
%TO.C,C5*%
X39483380Y6945334D02*
X39531000Y6897715D01*
X39531000Y6897715D02*
X39578619Y6754858D01*
X39578619Y6754858D02*
X39578619Y6659620D01*
X39578619Y6659620D02*
X39531000Y6516763D01*
X39531000Y6516763D02*
X39435761Y6421525D01*
X39435761Y6421525D02*
X39340523Y6373906D01*
X39340523Y6373906D02*
X39150047Y6326287D01*
X39150047Y6326287D02*
X39007190Y6326287D01*
X39007190Y6326287D02*
X38816714Y6373906D01*
X38816714Y6373906D02*
X38721476Y6421525D01*
X38721476Y6421525D02*
X38626238Y6516763D01*
X38626238Y6516763D02*
X38578619Y6659620D01*
X38578619Y6659620D02*
X38578619Y6754858D01*
X38578619Y6754858D02*
X38626238Y6897715D01*
X38626238Y6897715D02*
X38673857Y6945334D01*
X38578619Y7850096D02*
X38578619Y7373906D01*
X38578619Y7373906D02*
X39054809Y7326287D01*
X39054809Y7326287D02*
X39007190Y7373906D01*
X39007190Y7373906D02*
X38959571Y7469144D01*
X38959571Y7469144D02*
X38959571Y7707239D01*
X38959571Y7707239D02*
X39007190Y7802477D01*
X39007190Y7802477D02*
X39054809Y7850096D01*
X39054809Y7850096D02*
X39150047Y7897715D01*
X39150047Y7897715D02*
X39388142Y7897715D01*
X39388142Y7897715D02*
X39483380Y7850096D01*
X39483380Y7850096D02*
X39531000Y7802477D01*
X39531000Y7802477D02*
X39578619Y7707239D01*
X39578619Y7707239D02*
X39578619Y7469144D01*
X39578619Y7469144D02*
X39531000Y7373906D01*
X39531000Y7373906D02*
X39483380Y7326287D01*
%TO.C,U5*%
X12668402Y11172952D02*
X13481266Y11172952D01*
X13481266Y11172952D02*
X13576897Y11220768D01*
X13576897Y11220768D02*
X13624713Y11268583D01*
X13624713Y11268583D02*
X13672528Y11364214D01*
X13672528Y11364214D02*
X13672528Y11555476D01*
X13672528Y11555476D02*
X13624713Y11651107D01*
X13624713Y11651107D02*
X13576897Y11698923D01*
X13576897Y11698923D02*
X13481266Y11746738D01*
X13481266Y11746738D02*
X12668402Y11746738D01*
X12668402Y12703049D02*
X12668402Y12224894D01*
X12668402Y12224894D02*
X13146557Y12177079D01*
X13146557Y12177079D02*
X13098742Y12224894D01*
X13098742Y12224894D02*
X13050926Y12320525D01*
X13050926Y12320525D02*
X13050926Y12559603D01*
X13050926Y12559603D02*
X13098742Y12655234D01*
X13098742Y12655234D02*
X13146557Y12703049D01*
X13146557Y12703049D02*
X13242188Y12750865D01*
X13242188Y12750865D02*
X13481266Y12750865D01*
X13481266Y12750865D02*
X13576897Y12703049D01*
X13576897Y12703049D02*
X13624713Y12655234D01*
X13624713Y12655234D02*
X13672528Y12559603D01*
X13672528Y12559603D02*
X13672528Y12320525D01*
X13672528Y12320525D02*
X13624713Y12224894D01*
X13624713Y12224894D02*
X13576897Y12177079D01*
%TO.C,C6*%
X37777380Y7961334D02*
X37825000Y7913715D01*
X37825000Y7913715D02*
X37872619Y7770858D01*
X37872619Y7770858D02*
X37872619Y7675620D01*
X37872619Y7675620D02*
X37825000Y7532763D01*
X37825000Y7532763D02*
X37729761Y7437525D01*
X37729761Y7437525D02*
X37634523Y7389906D01*
X37634523Y7389906D02*
X37444047Y7342287D01*
X37444047Y7342287D02*
X37301190Y7342287D01*
X37301190Y7342287D02*
X37110714Y7389906D01*
X37110714Y7389906D02*
X37015476Y7437525D01*
X37015476Y7437525D02*
X36920238Y7532763D01*
X36920238Y7532763D02*
X36872619Y7675620D01*
X36872619Y7675620D02*
X36872619Y7770858D01*
X36872619Y7770858D02*
X36920238Y7913715D01*
X36920238Y7913715D02*
X36967857Y7961334D01*
X36872619Y8818477D02*
X36872619Y8628001D01*
X36872619Y8628001D02*
X36920238Y8532763D01*
X36920238Y8532763D02*
X36967857Y8485144D01*
X36967857Y8485144D02*
X37110714Y8389906D01*
X37110714Y8389906D02*
X37301190Y8342287D01*
X37301190Y8342287D02*
X37682142Y8342287D01*
X37682142Y8342287D02*
X37777380Y8389906D01*
X37777380Y8389906D02*
X37825000Y8437525D01*
X37825000Y8437525D02*
X37872619Y8532763D01*
X37872619Y8532763D02*
X37872619Y8723239D01*
X37872619Y8723239D02*
X37825000Y8818477D01*
X37825000Y8818477D02*
X37777380Y8866096D01*
X37777380Y8866096D02*
X37682142Y8913715D01*
X37682142Y8913715D02*
X37444047Y8913715D01*
X37444047Y8913715D02*
X37348809Y8866096D01*
X37348809Y8866096D02*
X37301190Y8818477D01*
X37301190Y8818477D02*
X37253571Y8723239D01*
X37253571Y8723239D02*
X37253571Y8532763D01*
X37253571Y8532763D02*
X37301190Y8437525D01*
X37301190Y8437525D02*
X37348809Y8389906D01*
X37348809Y8389906D02*
X37444047Y8342287D01*
%TO.C,R1*%
X84156619Y5317834D02*
X83680428Y4984501D01*
X84156619Y4746406D02*
X83156619Y4746406D01*
X83156619Y4746406D02*
X83156619Y5127358D01*
X83156619Y5127358D02*
X83204238Y5222596D01*
X83204238Y5222596D02*
X83251857Y5270215D01*
X83251857Y5270215D02*
X83347095Y5317834D01*
X83347095Y5317834D02*
X83489952Y5317834D01*
X83489952Y5317834D02*
X83585190Y5270215D01*
X83585190Y5270215D02*
X83632809Y5222596D01*
X83632809Y5222596D02*
X83680428Y5127358D01*
X83680428Y5127358D02*
X83680428Y4746406D01*
X84156619Y6270215D02*
X84156619Y5698787D01*
X84156619Y5984501D02*
X83156619Y5984501D01*
X83156619Y5984501D02*
X83299476Y5889263D01*
X83299476Y5889263D02*
X83394714Y5794025D01*
X83394714Y5794025D02*
X83442333Y5698787D01*
%TO.C,U4*%
X32988402Y9902952D02*
X33801266Y9902952D01*
X33801266Y9902952D02*
X33896897Y9950768D01*
X33896897Y9950768D02*
X33944713Y9998583D01*
X33944713Y9998583D02*
X33992528Y10094214D01*
X33992528Y10094214D02*
X33992528Y10285476D01*
X33992528Y10285476D02*
X33944713Y10381107D01*
X33944713Y10381107D02*
X33896897Y10428923D01*
X33896897Y10428923D02*
X33801266Y10476738D01*
X33801266Y10476738D02*
X32988402Y10476738D01*
X33323111Y11385234D02*
X33992528Y11385234D01*
X32940587Y11146156D02*
X33657819Y10907079D01*
X33657819Y10907079D02*
X33657819Y11528680D01*
%TO.C,U2*%
X73628402Y11172952D02*
X74441266Y11172952D01*
X74441266Y11172952D02*
X74536897Y11220768D01*
X74536897Y11220768D02*
X74584713Y11268583D01*
X74584713Y11268583D02*
X74632528Y11364214D01*
X74632528Y11364214D02*
X74632528Y11555476D01*
X74632528Y11555476D02*
X74584713Y11651107D01*
X74584713Y11651107D02*
X74536897Y11698923D01*
X74536897Y11698923D02*
X74441266Y11746738D01*
X74441266Y11746738D02*
X73628402Y11746738D01*
X73724033Y12177079D02*
X73676218Y12224894D01*
X73676218Y12224894D02*
X73628402Y12320525D01*
X73628402Y12320525D02*
X73628402Y12559603D01*
X73628402Y12559603D02*
X73676218Y12655234D01*
X73676218Y12655234D02*
X73724033Y12703049D01*
X73724033Y12703049D02*
X73819664Y12750865D01*
X73819664Y12750865D02*
X73915295Y12750865D01*
X73915295Y12750865D02*
X74058742Y12703049D01*
X74058742Y12703049D02*
X74632528Y12129263D01*
X74632528Y12129263D02*
X74632528Y12750865D01*
%TO.C,R16*%
X33901142Y13253381D02*
X33567809Y13729572D01*
X33329714Y13253381D02*
X33329714Y14253381D01*
X33329714Y14253381D02*
X33710666Y14253381D01*
X33710666Y14253381D02*
X33805904Y14205762D01*
X33805904Y14205762D02*
X33853523Y14158143D01*
X33853523Y14158143D02*
X33901142Y14062905D01*
X33901142Y14062905D02*
X33901142Y13920048D01*
X33901142Y13920048D02*
X33853523Y13824810D01*
X33853523Y13824810D02*
X33805904Y13777191D01*
X33805904Y13777191D02*
X33710666Y13729572D01*
X33710666Y13729572D02*
X33329714Y13729572D01*
X34853523Y13253381D02*
X34282095Y13253381D01*
X34567809Y13253381D02*
X34567809Y14253381D01*
X34567809Y14253381D02*
X34472571Y14110524D01*
X34472571Y14110524D02*
X34377333Y14015286D01*
X34377333Y14015286D02*
X34282095Y13967667D01*
X35710666Y14253381D02*
X35520190Y14253381D01*
X35520190Y14253381D02*
X35424952Y14205762D01*
X35424952Y14205762D02*
X35377333Y14158143D01*
X35377333Y14158143D02*
X35282095Y14015286D01*
X35282095Y14015286D02*
X35234476Y13824810D01*
X35234476Y13824810D02*
X35234476Y13443858D01*
X35234476Y13443858D02*
X35282095Y13348620D01*
X35282095Y13348620D02*
X35329714Y13301000D01*
X35329714Y13301000D02*
X35424952Y13253381D01*
X35424952Y13253381D02*
X35615428Y13253381D01*
X35615428Y13253381D02*
X35710666Y13301000D01*
X35710666Y13301000D02*
X35758285Y13348620D01*
X35758285Y13348620D02*
X35805904Y13443858D01*
X35805904Y13443858D02*
X35805904Y13681953D01*
X35805904Y13681953D02*
X35758285Y13777191D01*
X35758285Y13777191D02*
X35710666Y13824810D01*
X35710666Y13824810D02*
X35615428Y13872429D01*
X35615428Y13872429D02*
X35424952Y13872429D01*
X35424952Y13872429D02*
X35329714Y13824810D01*
X35329714Y13824810D02*
X35282095Y13777191D01*
X35282095Y13777191D02*
X35234476Y13681953D01*
%TO.C,C4*%
X61399380Y6437334D02*
X61447000Y6389715D01*
X61447000Y6389715D02*
X61494619Y6246858D01*
X61494619Y6246858D02*
X61494619Y6151620D01*
X61494619Y6151620D02*
X61447000Y6008763D01*
X61447000Y6008763D02*
X61351761Y5913525D01*
X61351761Y5913525D02*
X61256523Y5865906D01*
X61256523Y5865906D02*
X61066047Y5818287D01*
X61066047Y5818287D02*
X60923190Y5818287D01*
X60923190Y5818287D02*
X60732714Y5865906D01*
X60732714Y5865906D02*
X60637476Y5913525D01*
X60637476Y5913525D02*
X60542238Y6008763D01*
X60542238Y6008763D02*
X60494619Y6151620D01*
X60494619Y6151620D02*
X60494619Y6246858D01*
X60494619Y6246858D02*
X60542238Y6389715D01*
X60542238Y6389715D02*
X60589857Y6437334D01*
X60827952Y7294477D02*
X61494619Y7294477D01*
X60447000Y7056382D02*
X61161285Y6818287D01*
X61161285Y6818287D02*
X61161285Y7437334D01*
%TO.C,R11*%
X49903142Y31795381D02*
X49569809Y32271572D01*
X49331714Y31795381D02*
X49331714Y32795381D01*
X49331714Y32795381D02*
X49712666Y32795381D01*
X49712666Y32795381D02*
X49807904Y32747762D01*
X49807904Y32747762D02*
X49855523Y32700143D01*
X49855523Y32700143D02*
X49903142Y32604905D01*
X49903142Y32604905D02*
X49903142Y32462048D01*
X49903142Y32462048D02*
X49855523Y32366810D01*
X49855523Y32366810D02*
X49807904Y32319191D01*
X49807904Y32319191D02*
X49712666Y32271572D01*
X49712666Y32271572D02*
X49331714Y32271572D01*
X50855523Y31795381D02*
X50284095Y31795381D01*
X50569809Y31795381D02*
X50569809Y32795381D01*
X50569809Y32795381D02*
X50474571Y32652524D01*
X50474571Y32652524D02*
X50379333Y32557286D01*
X50379333Y32557286D02*
X50284095Y32509667D01*
X51807904Y31795381D02*
X51236476Y31795381D01*
X51522190Y31795381D02*
X51522190Y32795381D01*
X51522190Y32795381D02*
X51426952Y32652524D01*
X51426952Y32652524D02*
X51331714Y32557286D01*
X51331714Y32557286D02*
X51236476Y32509667D01*
%TO.C,R15*%
X51008619Y14343143D02*
X50532428Y14009810D01*
X51008619Y13771715D02*
X50008619Y13771715D01*
X50008619Y13771715D02*
X50008619Y14152667D01*
X50008619Y14152667D02*
X50056238Y14247905D01*
X50056238Y14247905D02*
X50103857Y14295524D01*
X50103857Y14295524D02*
X50199095Y14343143D01*
X50199095Y14343143D02*
X50341952Y14343143D01*
X50341952Y14343143D02*
X50437190Y14295524D01*
X50437190Y14295524D02*
X50484809Y14247905D01*
X50484809Y14247905D02*
X50532428Y14152667D01*
X50532428Y14152667D02*
X50532428Y13771715D01*
X51008619Y15295524D02*
X51008619Y14724096D01*
X51008619Y15009810D02*
X50008619Y15009810D01*
X50008619Y15009810D02*
X50151476Y14914572D01*
X50151476Y14914572D02*
X50246714Y14819334D01*
X50246714Y14819334D02*
X50294333Y14724096D01*
X50008619Y16200286D02*
X50008619Y15724096D01*
X50008619Y15724096D02*
X50484809Y15676477D01*
X50484809Y15676477D02*
X50437190Y15724096D01*
X50437190Y15724096D02*
X50389571Y15819334D01*
X50389571Y15819334D02*
X50389571Y16057429D01*
X50389571Y16057429D02*
X50437190Y16152667D01*
X50437190Y16152667D02*
X50484809Y16200286D01*
X50484809Y16200286D02*
X50580047Y16247905D01*
X50580047Y16247905D02*
X50818142Y16247905D01*
X50818142Y16247905D02*
X50913380Y16200286D01*
X50913380Y16200286D02*
X50961000Y16152667D01*
X50961000Y16152667D02*
X51008619Y16057429D01*
X51008619Y16057429D02*
X51008619Y15819334D01*
X51008619Y15819334D02*
X50961000Y15724096D01*
X50961000Y15724096D02*
X50913380Y15676477D01*
%TO.C,C3*%
X82989380Y10755334D02*
X83037000Y10707715D01*
X83037000Y10707715D02*
X83084619Y10564858D01*
X83084619Y10564858D02*
X83084619Y10469620D01*
X83084619Y10469620D02*
X83037000Y10326763D01*
X83037000Y10326763D02*
X82941761Y10231525D01*
X82941761Y10231525D02*
X82846523Y10183906D01*
X82846523Y10183906D02*
X82656047Y10136287D01*
X82656047Y10136287D02*
X82513190Y10136287D01*
X82513190Y10136287D02*
X82322714Y10183906D01*
X82322714Y10183906D02*
X82227476Y10231525D01*
X82227476Y10231525D02*
X82132238Y10326763D01*
X82132238Y10326763D02*
X82084619Y10469620D01*
X82084619Y10469620D02*
X82084619Y10564858D01*
X82084619Y10564858D02*
X82132238Y10707715D01*
X82132238Y10707715D02*
X82179857Y10755334D01*
X82084619Y11088668D02*
X82084619Y11707715D01*
X82084619Y11707715D02*
X82465571Y11374382D01*
X82465571Y11374382D02*
X82465571Y11517239D01*
X82465571Y11517239D02*
X82513190Y11612477D01*
X82513190Y11612477D02*
X82560809Y11660096D01*
X82560809Y11660096D02*
X82656047Y11707715D01*
X82656047Y11707715D02*
X82894142Y11707715D01*
X82894142Y11707715D02*
X82989380Y11660096D01*
X82989380Y11660096D02*
X83037000Y11612477D01*
X83037000Y11612477D02*
X83084619Y11517239D01*
X83084619Y11517239D02*
X83084619Y11231525D01*
X83084619Y11231525D02*
X83037000Y11136287D01*
X83037000Y11136287D02*
X82989380Y11088668D01*
%TO.C,R9*%
X2876619Y5421334D02*
X2400428Y5088001D01*
X2876619Y4849906D02*
X1876619Y4849906D01*
X1876619Y4849906D02*
X1876619Y5230858D01*
X1876619Y5230858D02*
X1924238Y5326096D01*
X1924238Y5326096D02*
X1971857Y5373715D01*
X1971857Y5373715D02*
X2067095Y5421334D01*
X2067095Y5421334D02*
X2209952Y5421334D01*
X2209952Y5421334D02*
X2305190Y5373715D01*
X2305190Y5373715D02*
X2352809Y5326096D01*
X2352809Y5326096D02*
X2400428Y5230858D01*
X2400428Y5230858D02*
X2400428Y4849906D01*
X2876619Y5897525D02*
X2876619Y6088001D01*
X2876619Y6088001D02*
X2829000Y6183239D01*
X2829000Y6183239D02*
X2781380Y6230858D01*
X2781380Y6230858D02*
X2638523Y6326096D01*
X2638523Y6326096D02*
X2448047Y6373715D01*
X2448047Y6373715D02*
X2067095Y6373715D01*
X2067095Y6373715D02*
X1971857Y6326096D01*
X1971857Y6326096D02*
X1924238Y6278477D01*
X1924238Y6278477D02*
X1876619Y6183239D01*
X1876619Y6183239D02*
X1876619Y5992763D01*
X1876619Y5992763D02*
X1924238Y5897525D01*
X1924238Y5897525D02*
X1971857Y5849906D01*
X1971857Y5849906D02*
X2067095Y5802287D01*
X2067095Y5802287D02*
X2305190Y5802287D01*
X2305190Y5802287D02*
X2400428Y5849906D01*
X2400428Y5849906D02*
X2448047Y5897525D01*
X2448047Y5897525D02*
X2495666Y5992763D01*
X2495666Y5992763D02*
X2495666Y6183239D01*
X2495666Y6183239D02*
X2448047Y6278477D01*
X2448047Y6278477D02*
X2400428Y6326096D01*
X2400428Y6326096D02*
X2305190Y6373715D01*
%TO.C,C1*%
X43293380Y24979334D02*
X43341000Y24931715D01*
X43341000Y24931715D02*
X43388619Y24788858D01*
X43388619Y24788858D02*
X43388619Y24693620D01*
X43388619Y24693620D02*
X43341000Y24550763D01*
X43341000Y24550763D02*
X43245761Y24455525D01*
X43245761Y24455525D02*
X43150523Y24407906D01*
X43150523Y24407906D02*
X42960047Y24360287D01*
X42960047Y24360287D02*
X42817190Y24360287D01*
X42817190Y24360287D02*
X42626714Y24407906D01*
X42626714Y24407906D02*
X42531476Y24455525D01*
X42531476Y24455525D02*
X42436238Y24550763D01*
X42436238Y24550763D02*
X42388619Y24693620D01*
X42388619Y24693620D02*
X42388619Y24788858D01*
X42388619Y24788858D02*
X42436238Y24931715D01*
X42436238Y24931715D02*
X42483857Y24979334D01*
X43388619Y25931715D02*
X43388619Y25360287D01*
X43388619Y25646001D02*
X42388619Y25646001D01*
X42388619Y25646001D02*
X42531476Y25550763D01*
X42531476Y25550763D02*
X42626714Y25455525D01*
X42626714Y25455525D02*
X42674333Y25360287D01*
%TO.C,U3*%
X53308402Y11172952D02*
X54121266Y11172952D01*
X54121266Y11172952D02*
X54216897Y11220768D01*
X54216897Y11220768D02*
X54264713Y11268583D01*
X54264713Y11268583D02*
X54312528Y11364214D01*
X54312528Y11364214D02*
X54312528Y11555476D01*
X54312528Y11555476D02*
X54264713Y11651107D01*
X54264713Y11651107D02*
X54216897Y11698923D01*
X54216897Y11698923D02*
X54121266Y11746738D01*
X54121266Y11746738D02*
X53308402Y11746738D01*
X53308402Y12129263D02*
X53308402Y12750865D01*
X53308402Y12750865D02*
X53690926Y12416156D01*
X53690926Y12416156D02*
X53690926Y12559603D01*
X53690926Y12559603D02*
X53738742Y12655234D01*
X53738742Y12655234D02*
X53786557Y12703049D01*
X53786557Y12703049D02*
X53882188Y12750865D01*
X53882188Y12750865D02*
X54121266Y12750865D01*
X54121266Y12750865D02*
X54216897Y12703049D01*
X54216897Y12703049D02*
X54264713Y12655234D01*
X54264713Y12655234D02*
X54312528Y12559603D01*
X54312528Y12559603D02*
X54312528Y12272710D01*
X54312528Y12272710D02*
X54264713Y12177079D01*
X54264713Y12177079D02*
X54216897Y12129263D01*
%TO.C,C2*%
X42759333Y33160620D02*
X42711714Y33113000D01*
X42711714Y33113000D02*
X42568857Y33065381D01*
X42568857Y33065381D02*
X42473619Y33065381D01*
X42473619Y33065381D02*
X42330762Y33113000D01*
X42330762Y33113000D02*
X42235524Y33208239D01*
X42235524Y33208239D02*
X42187905Y33303477D01*
X42187905Y33303477D02*
X42140286Y33493953D01*
X42140286Y33493953D02*
X42140286Y33636810D01*
X42140286Y33636810D02*
X42187905Y33827286D01*
X42187905Y33827286D02*
X42235524Y33922524D01*
X42235524Y33922524D02*
X42330762Y34017762D01*
X42330762Y34017762D02*
X42473619Y34065381D01*
X42473619Y34065381D02*
X42568857Y34065381D01*
X42568857Y34065381D02*
X42711714Y34017762D01*
X42711714Y34017762D02*
X42759333Y33970143D01*
X43140286Y33970143D02*
X43187905Y34017762D01*
X43187905Y34017762D02*
X43283143Y34065381D01*
X43283143Y34065381D02*
X43521238Y34065381D01*
X43521238Y34065381D02*
X43616476Y34017762D01*
X43616476Y34017762D02*
X43664095Y33970143D01*
X43664095Y33970143D02*
X43711714Y33874905D01*
X43711714Y33874905D02*
X43711714Y33779667D01*
X43711714Y33779667D02*
X43664095Y33636810D01*
X43664095Y33636810D02*
X43092667Y33065381D01*
X43092667Y33065381D02*
X43711714Y33065381D01*
%TO.C,R4*%
X63708619Y9080834D02*
X63232428Y8747501D01*
X63708619Y8509406D02*
X62708619Y8509406D01*
X62708619Y8509406D02*
X62708619Y8890358D01*
X62708619Y8890358D02*
X62756238Y8985596D01*
X62756238Y8985596D02*
X62803857Y9033215D01*
X62803857Y9033215D02*
X62899095Y9080834D01*
X62899095Y9080834D02*
X63041952Y9080834D01*
X63041952Y9080834D02*
X63137190Y9033215D01*
X63137190Y9033215D02*
X63184809Y8985596D01*
X63184809Y8985596D02*
X63232428Y8890358D01*
X63232428Y8890358D02*
X63232428Y8509406D01*
X63041952Y9937977D02*
X63708619Y9937977D01*
X62661000Y9699882D02*
X63375285Y9461787D01*
X63375285Y9461787D02*
X63375285Y10080834D01*
%TO.C,R6*%
X43388619Y9231334D02*
X42912428Y8898001D01*
X43388619Y8659906D02*
X42388619Y8659906D01*
X42388619Y8659906D02*
X42388619Y9040858D01*
X42388619Y9040858D02*
X42436238Y9136096D01*
X42436238Y9136096D02*
X42483857Y9183715D01*
X42483857Y9183715D02*
X42579095Y9231334D01*
X42579095Y9231334D02*
X42721952Y9231334D01*
X42721952Y9231334D02*
X42817190Y9183715D01*
X42817190Y9183715D02*
X42864809Y9136096D01*
X42864809Y9136096D02*
X42912428Y9040858D01*
X42912428Y9040858D02*
X42912428Y8659906D01*
X42388619Y10088477D02*
X42388619Y9898001D01*
X42388619Y9898001D02*
X42436238Y9802763D01*
X42436238Y9802763D02*
X42483857Y9755144D01*
X42483857Y9755144D02*
X42626714Y9659906D01*
X42626714Y9659906D02*
X42817190Y9612287D01*
X42817190Y9612287D02*
X43198142Y9612287D01*
X43198142Y9612287D02*
X43293380Y9659906D01*
X43293380Y9659906D02*
X43341000Y9707525D01*
X43341000Y9707525D02*
X43388619Y9802763D01*
X43388619Y9802763D02*
X43388619Y9993239D01*
X43388619Y9993239D02*
X43341000Y10088477D01*
X43341000Y10088477D02*
X43293380Y10136096D01*
X43293380Y10136096D02*
X43198142Y10183715D01*
X43198142Y10183715D02*
X42960047Y10183715D01*
X42960047Y10183715D02*
X42864809Y10136096D01*
X42864809Y10136096D02*
X42817190Y10088477D01*
X42817190Y10088477D02*
X42769571Y9993239D01*
X42769571Y9993239D02*
X42769571Y9802763D01*
X42769571Y9802763D02*
X42817190Y9707525D01*
X42817190Y9707525D02*
X42864809Y9659906D01*
X42864809Y9659906D02*
X42960047Y9612287D01*
%TO.C,R10*%
X2748619Y9009143D02*
X2272428Y8675810D01*
X2748619Y8437715D02*
X1748619Y8437715D01*
X1748619Y8437715D02*
X1748619Y8818667D01*
X1748619Y8818667D02*
X1796238Y8913905D01*
X1796238Y8913905D02*
X1843857Y8961524D01*
X1843857Y8961524D02*
X1939095Y9009143D01*
X1939095Y9009143D02*
X2081952Y9009143D01*
X2081952Y9009143D02*
X2177190Y8961524D01*
X2177190Y8961524D02*
X2224809Y8913905D01*
X2224809Y8913905D02*
X2272428Y8818667D01*
X2272428Y8818667D02*
X2272428Y8437715D01*
X2748619Y9961524D02*
X2748619Y9390096D01*
X2748619Y9675810D02*
X1748619Y9675810D01*
X1748619Y9675810D02*
X1891476Y9580572D01*
X1891476Y9580572D02*
X1986714Y9485334D01*
X1986714Y9485334D02*
X2034333Y9390096D01*
X1748619Y10580572D02*
X1748619Y10675810D01*
X1748619Y10675810D02*
X1796238Y10771048D01*
X1796238Y10771048D02*
X1843857Y10818667D01*
X1843857Y10818667D02*
X1939095Y10866286D01*
X1939095Y10866286D02*
X2129571Y10913905D01*
X2129571Y10913905D02*
X2367666Y10913905D01*
X2367666Y10913905D02*
X2558142Y10866286D01*
X2558142Y10866286D02*
X2653380Y10818667D01*
X2653380Y10818667D02*
X2701000Y10771048D01*
X2701000Y10771048D02*
X2748619Y10675810D01*
X2748619Y10675810D02*
X2748619Y10580572D01*
X2748619Y10580572D02*
X2701000Y10485334D01*
X2701000Y10485334D02*
X2653380Y10437715D01*
X2653380Y10437715D02*
X2558142Y10390096D01*
X2558142Y10390096D02*
X2367666Y10342477D01*
X2367666Y10342477D02*
X2129571Y10342477D01*
X2129571Y10342477D02*
X1939095Y10390096D01*
X1939095Y10390096D02*
X1843857Y10437715D01*
X1843857Y10437715D02*
X1796238Y10485334D01*
X1796238Y10485334D02*
X1748619Y10580572D01*
D11*
%TO.C,C7*%
X17928000Y11174252D02*
X17928000Y9751748D01*
X16108000Y11174252D02*
X16108000Y9751748D01*
%TO.C,R13*%
X79528936Y14705000D02*
X79983064Y14705000D01*
X79528936Y13235000D02*
X79983064Y13235000D01*
%TO.C,R7*%
X23649000Y5257436D02*
X23649000Y5711564D01*
X25119000Y5257436D02*
X25119000Y5711564D01*
%TO.C,R14*%
X59716936Y10895000D02*
X60171064Y10895000D01*
X59716936Y9425000D02*
X60171064Y9425000D01*
%TO.C,R8*%
X25119000Y9474564D02*
X25119000Y9020436D01*
X23649000Y9474564D02*
X23649000Y9020436D01*
D12*
%TO.C,U1*%
X93120000Y12560000D02*
X93120000Y8580000D01*
X88370000Y12560000D02*
X93120000Y12560000D01*
X87220000Y11410000D02*
X87220000Y8580000D01*
X87220000Y6240000D02*
X87220000Y3810000D01*
X93120000Y3810000D02*
X93120000Y6240000D01*
X93120000Y3810000D02*
X91570000Y2260000D01*
X87220000Y3810000D02*
X88770000Y2260000D01*
X88770000Y2260000D02*
X91570000Y2260000D01*
D11*
%TO.C,R3*%
X64289000Y5257436D02*
X64289000Y5711564D01*
X65759000Y5257436D02*
X65759000Y5711564D01*
%TO.C,R5*%
X43969000Y5257436D02*
X43969000Y5711564D01*
X45439000Y5257436D02*
X45439000Y5711564D01*
%TO.C,R12*%
X50318936Y31215000D02*
X50773064Y31215000D01*
X50318936Y29745000D02*
X50773064Y29745000D01*
%TO.C,R17*%
X18261064Y13235000D02*
X17806936Y13235000D01*
X18261064Y14705000D02*
X17806936Y14705000D01*
%TO.C,R2*%
X86079000Y9474564D02*
X86079000Y9020436D01*
X84609000Y9474564D02*
X84609000Y9020436D01*
%TO.C,C5*%
X41804000Y9347252D02*
X41804000Y7924748D01*
X39984000Y9347252D02*
X39984000Y7924748D01*
D12*
%TO.C,U5*%
X11840000Y12560000D02*
X11840000Y8580000D01*
X7090000Y12560000D02*
X11840000Y12560000D01*
X5940000Y11410000D02*
X5940000Y8580000D01*
X5940000Y6240000D02*
X5940000Y3810000D01*
X11840000Y3810000D02*
X11840000Y6240000D01*
X11840000Y3810000D02*
X10290000Y2260000D01*
X5940000Y3810000D02*
X7490000Y2260000D01*
X7490000Y2260000D02*
X10290000Y2260000D01*
D11*
%TO.C,C6*%
X36470000Y8839252D02*
X36470000Y7416748D01*
X34650000Y8839252D02*
X34650000Y7416748D01*
%TO.C,R1*%
X84609000Y5257436D02*
X84609000Y5711564D01*
X86079000Y5257436D02*
X86079000Y5711564D01*
D12*
%TO.C,U4*%
X32160000Y12560000D02*
X32160000Y8580000D01*
X27410000Y12560000D02*
X32160000Y12560000D01*
X26260000Y11410000D02*
X26260000Y8580000D01*
X26260000Y6240000D02*
X26260000Y3810000D01*
X32160000Y3810000D02*
X32160000Y6240000D01*
X32160000Y3810000D02*
X30610000Y2260000D01*
X26260000Y3810000D02*
X27810000Y2260000D01*
X27810000Y2260000D02*
X30610000Y2260000D01*
%TO.C,U2*%
X72800000Y12560000D02*
X72800000Y8580000D01*
X68050000Y12560000D02*
X72800000Y12560000D01*
X66900000Y11410000D02*
X66900000Y8580000D01*
X66900000Y6240000D02*
X66900000Y3810000D01*
X72800000Y3810000D02*
X72800000Y6240000D01*
X72800000Y3810000D02*
X71250000Y2260000D01*
X66900000Y3810000D02*
X68450000Y2260000D01*
X68450000Y2260000D02*
X71250000Y2260000D01*
D11*
%TO.C,R16*%
X36549064Y11203000D02*
X36094936Y11203000D01*
X36549064Y12673000D02*
X36094936Y12673000D01*
%TO.C,C4*%
X60092000Y7315252D02*
X60092000Y5892748D01*
X58272000Y7315252D02*
X58272000Y5892748D01*
%TO.C,R11*%
X50318936Y28929000D02*
X50773064Y28929000D01*
X50318936Y27459000D02*
X50773064Y27459000D01*
%TO.C,R15*%
X48995000Y15316564D02*
X48995000Y14862436D01*
X47525000Y15316564D02*
X47525000Y14862436D01*
%TO.C,C3*%
X81682000Y11125252D02*
X81682000Y9702748D01*
X79862000Y11125252D02*
X79862000Y9702748D01*
%TO.C,R9*%
X3329000Y5360936D02*
X3329000Y5815064D01*
X4799000Y5360936D02*
X4799000Y5815064D01*
%TO.C,C1*%
X43436000Y27985767D02*
X43436000Y27693233D01*
X42416000Y27985767D02*
X42416000Y27693233D01*
D12*
%TO.C,U3*%
X52480000Y12560000D02*
X52480000Y8580000D01*
X47730000Y12560000D02*
X52480000Y12560000D01*
X46580000Y11410000D02*
X46580000Y8580000D01*
X46580000Y6240000D02*
X46580000Y3810000D01*
X52480000Y3810000D02*
X52480000Y6240000D01*
X52480000Y3810000D02*
X50930000Y2260000D01*
X46580000Y3810000D02*
X48130000Y2260000D01*
X48130000Y2260000D02*
X50930000Y2260000D01*
D11*
%TO.C,C2*%
X42416000Y31095733D02*
X42416000Y31388267D01*
X43436000Y31095733D02*
X43436000Y31388267D01*
%TO.C,R4*%
X65759000Y9474564D02*
X65759000Y9020436D01*
X64289000Y9474564D02*
X64289000Y9020436D01*
%TO.C,R6*%
X45439000Y9474564D02*
X45439000Y9020436D01*
X43969000Y9474564D02*
X43969000Y9020436D01*
%TO.C,R10*%
X4799000Y9474564D02*
X4799000Y9020436D01*
X3329000Y9474564D02*
X3329000Y9020436D01*
%TD*%
M02*
