%TF.GenerationSoftware,KiCad,Pcbnew,(7.0.0)*%
%TF.CreationDate,2023-09-21T17:36:52+12:00*%
%TF.ProjectId,SensorBoard,53656e73-6f72-4426-9f61-72642e6b6963,rev?*%
%TF.SameCoordinates,PX60e4b00PY48ab840*%
%TF.FileFunction,Legend,Bot*%
%TF.FilePolarity,Positive*%
%FSLAX46Y46*%
G04 Gerber Fmt 4.6, Leading zero omitted, Abs format (unit mm)*
G04 Created by KiCad (PCBNEW (7.0.0)) date 2023-09-21 17:36:52*
%MOMM*%
%LPD*%
G01*
G04 APERTURE LIST*
%ADD10C,0.150000*%
%ADD11C,0.120000*%
G04 APERTURE END LIST*
D10*
%TO.C,U6*%
X46777904Y34160620D02*
X46777904Y33351096D01*
X46777904Y33351096D02*
X46730285Y33255858D01*
X46730285Y33255858D02*
X46682666Y33208239D01*
X46682666Y33208239D02*
X46587428Y33160620D01*
X46587428Y33160620D02*
X46396952Y33160620D01*
X46396952Y33160620D02*
X46301714Y33208239D01*
X46301714Y33208239D02*
X46254095Y33255858D01*
X46254095Y33255858D02*
X46206476Y33351096D01*
X46206476Y33351096D02*
X46206476Y34160620D01*
X45301714Y34160620D02*
X45492190Y34160620D01*
X45492190Y34160620D02*
X45587428Y34113000D01*
X45587428Y34113000D02*
X45635047Y34065381D01*
X45635047Y34065381D02*
X45730285Y33922524D01*
X45730285Y33922524D02*
X45777904Y33732048D01*
X45777904Y33732048D02*
X45777904Y33351096D01*
X45777904Y33351096D02*
X45730285Y33255858D01*
X45730285Y33255858D02*
X45682666Y33208239D01*
X45682666Y33208239D02*
X45587428Y33160620D01*
X45587428Y33160620D02*
X45396952Y33160620D01*
X45396952Y33160620D02*
X45301714Y33208239D01*
X45301714Y33208239D02*
X45254095Y33255858D01*
X45254095Y33255858D02*
X45206476Y33351096D01*
X45206476Y33351096D02*
X45206476Y33589191D01*
X45206476Y33589191D02*
X45254095Y33684429D01*
X45254095Y33684429D02*
X45301714Y33732048D01*
X45301714Y33732048D02*
X45396952Y33779667D01*
X45396952Y33779667D02*
X45587428Y33779667D01*
X45587428Y33779667D02*
X45682666Y33732048D01*
X45682666Y33732048D02*
X45730285Y33684429D01*
X45730285Y33684429D02*
X45777904Y33589191D01*
%TO.C,J1*%
X42757380Y24463334D02*
X43471666Y24463334D01*
X43471666Y24463334D02*
X43614523Y24510953D01*
X43614523Y24510953D02*
X43709761Y24606191D01*
X43709761Y24606191D02*
X43757380Y24749048D01*
X43757380Y24749048D02*
X43757380Y24844286D01*
X43757380Y23463334D02*
X43757380Y24034762D01*
X43757380Y23749048D02*
X42757380Y23749048D01*
X42757380Y23749048D02*
X42900238Y23844286D01*
X42900238Y23844286D02*
X42995476Y23939524D01*
X42995476Y23939524D02*
X43043095Y24034762D01*
D11*
%TO.C,U6*%
X47718000Y31772000D02*
X47718000Y28172000D01*
X47706478Y31810478D02*
G75*
G03*
X43268000Y29972000I-1838478J-1838478D01*
G01*
X43268000Y29972000D02*
G75*
G03*
X47706478Y28133522I2600000J0D01*
G01*
%TO.C,J1*%
X54670000Y26730000D02*
X54670000Y21530000D01*
X46990000Y26730000D02*
X54670000Y26730000D01*
X46990000Y26730000D02*
X46990000Y24130000D01*
X45720000Y26730000D02*
X44390000Y26730000D01*
X44390000Y26730000D02*
X44390000Y25400000D01*
X46990000Y24130000D02*
X44390000Y24130000D01*
X44390000Y24130000D02*
X44390000Y21530000D01*
X44390000Y21530000D02*
X54670000Y21530000D01*
%TD*%
M02*
