%TF.GenerationSoftware,KiCad,Pcbnew,(7.0.0)*%
%TF.CreationDate,2023-09-21T17:36:51+12:00*%
%TF.ProjectId,SensorBoard,53656e73-6f72-4426-9f61-72642e6b6963,rev?*%
%TF.SameCoordinates,PX60e4b00PY48ab840*%
%TF.FileFunction,Legend,Top*%
%TF.FilePolarity,Positive*%
%FSLAX46Y46*%
G04 Gerber Fmt 4.6, Leading zero omitted, Abs format (unit mm)*
G04 Created by KiCad (PCBNEW (7.0.0)) date 2023-09-21 17:36:51*
%MOMM*%
%LPD*%
G01*
G04 APERTURE LIST*
%ADD10C,0.150000*%
%ADD11C,0.300000*%
%ADD12C,0.120000*%
%ADD13C,0.127000*%
G04 APERTURE END LIST*
D10*
X49022000Y34036000D02*
X49022000Y32004000D01*
D11*
%TO.C,*%
D10*
%TO.C,C7*%
X19140142Y9231334D02*
X19187761Y9183715D01*
X19187761Y9183715D02*
X19235380Y9040858D01*
X19235380Y9040858D02*
X19235380Y8945620D01*
X19235380Y8945620D02*
X19187761Y8802763D01*
X19187761Y8802763D02*
X19092523Y8707525D01*
X19092523Y8707525D02*
X18997285Y8659906D01*
X18997285Y8659906D02*
X18806809Y8612287D01*
X18806809Y8612287D02*
X18663952Y8612287D01*
X18663952Y8612287D02*
X18473476Y8659906D01*
X18473476Y8659906D02*
X18378238Y8707525D01*
X18378238Y8707525D02*
X18283000Y8802763D01*
X18283000Y8802763D02*
X18235380Y8945620D01*
X18235380Y8945620D02*
X18235380Y9040858D01*
X18235380Y9040858D02*
X18283000Y9183715D01*
X18283000Y9183715D02*
X18330619Y9231334D01*
X18235380Y9564668D02*
X18235380Y10231334D01*
X18235380Y10231334D02*
X19235380Y9802763D01*
%TO.C,R13*%
X77335142Y11824620D02*
X77001809Y12300810D01*
X76763714Y11824620D02*
X76763714Y12824620D01*
X76763714Y12824620D02*
X77144666Y12824620D01*
X77144666Y12824620D02*
X77239904Y12777000D01*
X77239904Y12777000D02*
X77287523Y12729381D01*
X77287523Y12729381D02*
X77335142Y12634143D01*
X77335142Y12634143D02*
X77335142Y12491286D01*
X77335142Y12491286D02*
X77287523Y12396048D01*
X77287523Y12396048D02*
X77239904Y12348429D01*
X77239904Y12348429D02*
X77144666Y12300810D01*
X77144666Y12300810D02*
X76763714Y12300810D01*
X78287523Y11824620D02*
X77716095Y11824620D01*
X78001809Y11824620D02*
X78001809Y12824620D01*
X78001809Y12824620D02*
X77906571Y12681762D01*
X77906571Y12681762D02*
X77811333Y12586524D01*
X77811333Y12586524D02*
X77716095Y12538905D01*
X78620857Y12824620D02*
X79239904Y12824620D01*
X79239904Y12824620D02*
X78906571Y12443667D01*
X78906571Y12443667D02*
X79049428Y12443667D01*
X79049428Y12443667D02*
X79144666Y12396048D01*
X79144666Y12396048D02*
X79192285Y12348429D01*
X79192285Y12348429D02*
X79239904Y12253191D01*
X79239904Y12253191D02*
X79239904Y12015096D01*
X79239904Y12015096D02*
X79192285Y11919858D01*
X79192285Y11919858D02*
X79144666Y11872239D01*
X79144666Y11872239D02*
X79049428Y11824620D01*
X79049428Y11824620D02*
X78763714Y11824620D01*
X78763714Y11824620D02*
X78668476Y11872239D01*
X78668476Y11872239D02*
X78620857Y11919858D01*
%TO.C,R7*%
X23101380Y5317834D02*
X22625190Y4984501D01*
X23101380Y4746406D02*
X22101380Y4746406D01*
X22101380Y4746406D02*
X22101380Y5127358D01*
X22101380Y5127358D02*
X22149000Y5222596D01*
X22149000Y5222596D02*
X22196619Y5270215D01*
X22196619Y5270215D02*
X22291857Y5317834D01*
X22291857Y5317834D02*
X22434714Y5317834D01*
X22434714Y5317834D02*
X22529952Y5270215D01*
X22529952Y5270215D02*
X22577571Y5222596D01*
X22577571Y5222596D02*
X22625190Y5127358D01*
X22625190Y5127358D02*
X22625190Y4746406D01*
X22101380Y5651168D02*
X22101380Y6317834D01*
X22101380Y6317834D02*
X23101380Y5889263D01*
%TO.C,R14*%
X59301142Y11442620D02*
X58967809Y11918810D01*
X58729714Y11442620D02*
X58729714Y12442620D01*
X58729714Y12442620D02*
X59110666Y12442620D01*
X59110666Y12442620D02*
X59205904Y12395000D01*
X59205904Y12395000D02*
X59253523Y12347381D01*
X59253523Y12347381D02*
X59301142Y12252143D01*
X59301142Y12252143D02*
X59301142Y12109286D01*
X59301142Y12109286D02*
X59253523Y12014048D01*
X59253523Y12014048D02*
X59205904Y11966429D01*
X59205904Y11966429D02*
X59110666Y11918810D01*
X59110666Y11918810D02*
X58729714Y11918810D01*
X60253523Y11442620D02*
X59682095Y11442620D01*
X59967809Y11442620D02*
X59967809Y12442620D01*
X59967809Y12442620D02*
X59872571Y12299762D01*
X59872571Y12299762D02*
X59777333Y12204524D01*
X59777333Y12204524D02*
X59682095Y12156905D01*
X61110666Y12109286D02*
X61110666Y11442620D01*
X60872571Y12490239D02*
X60634476Y11775953D01*
X60634476Y11775953D02*
X61253523Y11775953D01*
%TO.C,R8*%
X22973380Y9080834D02*
X22497190Y8747501D01*
X22973380Y8509406D02*
X21973380Y8509406D01*
X21973380Y8509406D02*
X21973380Y8890358D01*
X21973380Y8890358D02*
X22021000Y8985596D01*
X22021000Y8985596D02*
X22068619Y9033215D01*
X22068619Y9033215D02*
X22163857Y9080834D01*
X22163857Y9080834D02*
X22306714Y9080834D01*
X22306714Y9080834D02*
X22401952Y9033215D01*
X22401952Y9033215D02*
X22449571Y8985596D01*
X22449571Y8985596D02*
X22497190Y8890358D01*
X22497190Y8890358D02*
X22497190Y8509406D01*
X22401952Y9652263D02*
X22354333Y9557025D01*
X22354333Y9557025D02*
X22306714Y9509406D01*
X22306714Y9509406D02*
X22211476Y9461787D01*
X22211476Y9461787D02*
X22163857Y9461787D01*
X22163857Y9461787D02*
X22068619Y9509406D01*
X22068619Y9509406D02*
X22021000Y9557025D01*
X22021000Y9557025D02*
X21973380Y9652263D01*
X21973380Y9652263D02*
X21973380Y9842739D01*
X21973380Y9842739D02*
X22021000Y9937977D01*
X22021000Y9937977D02*
X22068619Y9985596D01*
X22068619Y9985596D02*
X22163857Y10033215D01*
X22163857Y10033215D02*
X22211476Y10033215D01*
X22211476Y10033215D02*
X22306714Y9985596D01*
X22306714Y9985596D02*
X22354333Y9937977D01*
X22354333Y9937977D02*
X22401952Y9842739D01*
X22401952Y9842739D02*
X22401952Y9652263D01*
X22401952Y9652263D02*
X22449571Y9557025D01*
X22449571Y9557025D02*
X22497190Y9509406D01*
X22497190Y9509406D02*
X22592428Y9461787D01*
X22592428Y9461787D02*
X22782904Y9461787D01*
X22782904Y9461787D02*
X22878142Y9509406D01*
X22878142Y9509406D02*
X22925761Y9557025D01*
X22925761Y9557025D02*
X22973380Y9652263D01*
X22973380Y9652263D02*
X22973380Y9842739D01*
X22973380Y9842739D02*
X22925761Y9937977D01*
X22925761Y9937977D02*
X22878142Y9985596D01*
X22878142Y9985596D02*
X22782904Y10033215D01*
X22782904Y10033215D02*
X22592428Y10033215D01*
X22592428Y10033215D02*
X22497190Y9985596D01*
X22497190Y9985596D02*
X22449571Y9937977D01*
X22449571Y9937977D02*
X22401952Y9842739D01*
%TO.C,U1*%
X93852771Y11172952D02*
X94665635Y11172952D01*
X94665635Y11172952D02*
X94761266Y11220768D01*
X94761266Y11220768D02*
X94809081Y11268583D01*
X94809081Y11268583D02*
X94856897Y11364214D01*
X94856897Y11364214D02*
X94856897Y11555476D01*
X94856897Y11555476D02*
X94809081Y11651107D01*
X94809081Y11651107D02*
X94761266Y11698923D01*
X94761266Y11698923D02*
X94665635Y11746738D01*
X94665635Y11746738D02*
X93852771Y11746738D01*
X94856897Y12750865D02*
X94856897Y12177079D01*
X94856897Y12463972D02*
X93852771Y12463972D01*
X93852771Y12463972D02*
X93996218Y12368341D01*
X93996218Y12368341D02*
X94091849Y12272710D01*
X94091849Y12272710D02*
X94139664Y12177079D01*
%TO.C,R3*%
X63613380Y5317834D02*
X63137190Y4984501D01*
X63613380Y4746406D02*
X62613380Y4746406D01*
X62613380Y4746406D02*
X62613380Y5127358D01*
X62613380Y5127358D02*
X62661000Y5222596D01*
X62661000Y5222596D02*
X62708619Y5270215D01*
X62708619Y5270215D02*
X62803857Y5317834D01*
X62803857Y5317834D02*
X62946714Y5317834D01*
X62946714Y5317834D02*
X63041952Y5270215D01*
X63041952Y5270215D02*
X63089571Y5222596D01*
X63089571Y5222596D02*
X63137190Y5127358D01*
X63137190Y5127358D02*
X63137190Y4746406D01*
X62613380Y5651168D02*
X62613380Y6270215D01*
X62613380Y6270215D02*
X62994333Y5936882D01*
X62994333Y5936882D02*
X62994333Y6079739D01*
X62994333Y6079739D02*
X63041952Y6174977D01*
X63041952Y6174977D02*
X63089571Y6222596D01*
X63089571Y6222596D02*
X63184809Y6270215D01*
X63184809Y6270215D02*
X63422904Y6270215D01*
X63422904Y6270215D02*
X63518142Y6222596D01*
X63518142Y6222596D02*
X63565761Y6174977D01*
X63565761Y6174977D02*
X63613380Y6079739D01*
X63613380Y6079739D02*
X63613380Y5794025D01*
X63613380Y5794025D02*
X63565761Y5698787D01*
X63565761Y5698787D02*
X63518142Y5651168D01*
%TO.C,R5*%
X43267980Y5317834D02*
X42791790Y4984501D01*
X43267980Y4746406D02*
X42267980Y4746406D01*
X42267980Y4746406D02*
X42267980Y5127358D01*
X42267980Y5127358D02*
X42315600Y5222596D01*
X42315600Y5222596D02*
X42363219Y5270215D01*
X42363219Y5270215D02*
X42458457Y5317834D01*
X42458457Y5317834D02*
X42601314Y5317834D01*
X42601314Y5317834D02*
X42696552Y5270215D01*
X42696552Y5270215D02*
X42744171Y5222596D01*
X42744171Y5222596D02*
X42791790Y5127358D01*
X42791790Y5127358D02*
X42791790Y4746406D01*
X42267980Y6222596D02*
X42267980Y5746406D01*
X42267980Y5746406D02*
X42744171Y5698787D01*
X42744171Y5698787D02*
X42696552Y5746406D01*
X42696552Y5746406D02*
X42648933Y5841644D01*
X42648933Y5841644D02*
X42648933Y6079739D01*
X42648933Y6079739D02*
X42696552Y6174977D01*
X42696552Y6174977D02*
X42744171Y6222596D01*
X42744171Y6222596D02*
X42839409Y6270215D01*
X42839409Y6270215D02*
X43077504Y6270215D01*
X43077504Y6270215D02*
X43172742Y6222596D01*
X43172742Y6222596D02*
X43220361Y6174977D01*
X43220361Y6174977D02*
X43267980Y6079739D01*
X43267980Y6079739D02*
X43267980Y5841644D01*
X43267980Y5841644D02*
X43220361Y5746406D01*
X43220361Y5746406D02*
X43172742Y5698787D01*
%TO.C,R12*%
X49903142Y33160620D02*
X49569809Y33636810D01*
X49331714Y33160620D02*
X49331714Y34160620D01*
X49331714Y34160620D02*
X49712666Y34160620D01*
X49712666Y34160620D02*
X49807904Y34113000D01*
X49807904Y34113000D02*
X49855523Y34065381D01*
X49855523Y34065381D02*
X49903142Y33970143D01*
X49903142Y33970143D02*
X49903142Y33827286D01*
X49903142Y33827286D02*
X49855523Y33732048D01*
X49855523Y33732048D02*
X49807904Y33684429D01*
X49807904Y33684429D02*
X49712666Y33636810D01*
X49712666Y33636810D02*
X49331714Y33636810D01*
X50855523Y33160620D02*
X50284095Y33160620D01*
X50569809Y33160620D02*
X50569809Y34160620D01*
X50569809Y34160620D02*
X50474571Y34017762D01*
X50474571Y34017762D02*
X50379333Y33922524D01*
X50379333Y33922524D02*
X50284095Y33874905D01*
X51236476Y34065381D02*
X51284095Y34113000D01*
X51284095Y34113000D02*
X51379333Y34160620D01*
X51379333Y34160620D02*
X51617428Y34160620D01*
X51617428Y34160620D02*
X51712666Y34113000D01*
X51712666Y34113000D02*
X51760285Y34065381D01*
X51760285Y34065381D02*
X51807904Y33970143D01*
X51807904Y33970143D02*
X51807904Y33874905D01*
X51807904Y33874905D02*
X51760285Y33732048D01*
X51760285Y33732048D02*
X51188857Y33160620D01*
X51188857Y33160620D02*
X51807904Y33160620D01*
%TO.C,R17*%
X18915142Y11824620D02*
X18581809Y12300810D01*
X18343714Y11824620D02*
X18343714Y12824620D01*
X18343714Y12824620D02*
X18724666Y12824620D01*
X18724666Y12824620D02*
X18819904Y12777000D01*
X18819904Y12777000D02*
X18867523Y12729381D01*
X18867523Y12729381D02*
X18915142Y12634143D01*
X18915142Y12634143D02*
X18915142Y12491286D01*
X18915142Y12491286D02*
X18867523Y12396048D01*
X18867523Y12396048D02*
X18819904Y12348429D01*
X18819904Y12348429D02*
X18724666Y12300810D01*
X18724666Y12300810D02*
X18343714Y12300810D01*
X19867523Y11824620D02*
X19296095Y11824620D01*
X19581809Y11824620D02*
X19581809Y12824620D01*
X19581809Y12824620D02*
X19486571Y12681762D01*
X19486571Y12681762D02*
X19391333Y12586524D01*
X19391333Y12586524D02*
X19296095Y12538905D01*
X20200857Y12824620D02*
X20867523Y12824620D01*
X20867523Y12824620D02*
X20438952Y11824620D01*
%TO.C,R2*%
X83933380Y8977334D02*
X83457190Y8644001D01*
X83933380Y8405906D02*
X82933380Y8405906D01*
X82933380Y8405906D02*
X82933380Y8786858D01*
X82933380Y8786858D02*
X82981000Y8882096D01*
X82981000Y8882096D02*
X83028619Y8929715D01*
X83028619Y8929715D02*
X83123857Y8977334D01*
X83123857Y8977334D02*
X83266714Y8977334D01*
X83266714Y8977334D02*
X83361952Y8929715D01*
X83361952Y8929715D02*
X83409571Y8882096D01*
X83409571Y8882096D02*
X83457190Y8786858D01*
X83457190Y8786858D02*
X83457190Y8405906D01*
X83028619Y9358287D02*
X82981000Y9405906D01*
X82981000Y9405906D02*
X82933380Y9501144D01*
X82933380Y9501144D02*
X82933380Y9739239D01*
X82933380Y9739239D02*
X82981000Y9834477D01*
X82981000Y9834477D02*
X83028619Y9882096D01*
X83028619Y9882096D02*
X83123857Y9929715D01*
X83123857Y9929715D02*
X83219095Y9929715D01*
X83219095Y9929715D02*
X83361952Y9882096D01*
X83361952Y9882096D02*
X83933380Y9310668D01*
X83933380Y9310668D02*
X83933380Y9929715D01*
%TO.C,C5*%
X39388142Y6945334D02*
X39435761Y6897715D01*
X39435761Y6897715D02*
X39483380Y6754858D01*
X39483380Y6754858D02*
X39483380Y6659620D01*
X39483380Y6659620D02*
X39435761Y6516763D01*
X39435761Y6516763D02*
X39340523Y6421525D01*
X39340523Y6421525D02*
X39245285Y6373906D01*
X39245285Y6373906D02*
X39054809Y6326287D01*
X39054809Y6326287D02*
X38911952Y6326287D01*
X38911952Y6326287D02*
X38721476Y6373906D01*
X38721476Y6373906D02*
X38626238Y6421525D01*
X38626238Y6421525D02*
X38531000Y6516763D01*
X38531000Y6516763D02*
X38483380Y6659620D01*
X38483380Y6659620D02*
X38483380Y6754858D01*
X38483380Y6754858D02*
X38531000Y6897715D01*
X38531000Y6897715D02*
X38578619Y6945334D01*
X38483380Y7850096D02*
X38483380Y7373906D01*
X38483380Y7373906D02*
X38959571Y7326287D01*
X38959571Y7326287D02*
X38911952Y7373906D01*
X38911952Y7373906D02*
X38864333Y7469144D01*
X38864333Y7469144D02*
X38864333Y7707239D01*
X38864333Y7707239D02*
X38911952Y7802477D01*
X38911952Y7802477D02*
X38959571Y7850096D01*
X38959571Y7850096D02*
X39054809Y7897715D01*
X39054809Y7897715D02*
X39292904Y7897715D01*
X39292904Y7897715D02*
X39388142Y7850096D01*
X39388142Y7850096D02*
X39435761Y7802477D01*
X39435761Y7802477D02*
X39483380Y7707239D01*
X39483380Y7707239D02*
X39483380Y7469144D01*
X39483380Y7469144D02*
X39435761Y7373906D01*
X39435761Y7373906D02*
X39388142Y7326287D01*
%TO.C,U5*%
X12572771Y11172952D02*
X13385635Y11172952D01*
X13385635Y11172952D02*
X13481266Y11220768D01*
X13481266Y11220768D02*
X13529081Y11268583D01*
X13529081Y11268583D02*
X13576897Y11364214D01*
X13576897Y11364214D02*
X13576897Y11555476D01*
X13576897Y11555476D02*
X13529081Y11651107D01*
X13529081Y11651107D02*
X13481266Y11698923D01*
X13481266Y11698923D02*
X13385635Y11746738D01*
X13385635Y11746738D02*
X12572771Y11746738D01*
X12572771Y12703049D02*
X12572771Y12224894D01*
X12572771Y12224894D02*
X13050926Y12177079D01*
X13050926Y12177079D02*
X13003111Y12224894D01*
X13003111Y12224894D02*
X12955295Y12320525D01*
X12955295Y12320525D02*
X12955295Y12559603D01*
X12955295Y12559603D02*
X13003111Y12655234D01*
X13003111Y12655234D02*
X13050926Y12703049D01*
X13050926Y12703049D02*
X13146557Y12750865D01*
X13146557Y12750865D02*
X13385635Y12750865D01*
X13385635Y12750865D02*
X13481266Y12703049D01*
X13481266Y12703049D02*
X13529081Y12655234D01*
X13529081Y12655234D02*
X13576897Y12559603D01*
X13576897Y12559603D02*
X13576897Y12320525D01*
X13576897Y12320525D02*
X13529081Y12224894D01*
X13529081Y12224894D02*
X13481266Y12177079D01*
%TO.C,C6*%
X37682142Y7961334D02*
X37729761Y7913715D01*
X37729761Y7913715D02*
X37777380Y7770858D01*
X37777380Y7770858D02*
X37777380Y7675620D01*
X37777380Y7675620D02*
X37729761Y7532763D01*
X37729761Y7532763D02*
X37634523Y7437525D01*
X37634523Y7437525D02*
X37539285Y7389906D01*
X37539285Y7389906D02*
X37348809Y7342287D01*
X37348809Y7342287D02*
X37205952Y7342287D01*
X37205952Y7342287D02*
X37015476Y7389906D01*
X37015476Y7389906D02*
X36920238Y7437525D01*
X36920238Y7437525D02*
X36825000Y7532763D01*
X36825000Y7532763D02*
X36777380Y7675620D01*
X36777380Y7675620D02*
X36777380Y7770858D01*
X36777380Y7770858D02*
X36825000Y7913715D01*
X36825000Y7913715D02*
X36872619Y7961334D01*
X36777380Y8818477D02*
X36777380Y8628001D01*
X36777380Y8628001D02*
X36825000Y8532763D01*
X36825000Y8532763D02*
X36872619Y8485144D01*
X36872619Y8485144D02*
X37015476Y8389906D01*
X37015476Y8389906D02*
X37205952Y8342287D01*
X37205952Y8342287D02*
X37586904Y8342287D01*
X37586904Y8342287D02*
X37682142Y8389906D01*
X37682142Y8389906D02*
X37729761Y8437525D01*
X37729761Y8437525D02*
X37777380Y8532763D01*
X37777380Y8532763D02*
X37777380Y8723239D01*
X37777380Y8723239D02*
X37729761Y8818477D01*
X37729761Y8818477D02*
X37682142Y8866096D01*
X37682142Y8866096D02*
X37586904Y8913715D01*
X37586904Y8913715D02*
X37348809Y8913715D01*
X37348809Y8913715D02*
X37253571Y8866096D01*
X37253571Y8866096D02*
X37205952Y8818477D01*
X37205952Y8818477D02*
X37158333Y8723239D01*
X37158333Y8723239D02*
X37158333Y8532763D01*
X37158333Y8532763D02*
X37205952Y8437525D01*
X37205952Y8437525D02*
X37253571Y8389906D01*
X37253571Y8389906D02*
X37348809Y8342287D01*
%TO.C,R1*%
X84061380Y5317834D02*
X83585190Y4984501D01*
X84061380Y4746406D02*
X83061380Y4746406D01*
X83061380Y4746406D02*
X83061380Y5127358D01*
X83061380Y5127358D02*
X83109000Y5222596D01*
X83109000Y5222596D02*
X83156619Y5270215D01*
X83156619Y5270215D02*
X83251857Y5317834D01*
X83251857Y5317834D02*
X83394714Y5317834D01*
X83394714Y5317834D02*
X83489952Y5270215D01*
X83489952Y5270215D02*
X83537571Y5222596D01*
X83537571Y5222596D02*
X83585190Y5127358D01*
X83585190Y5127358D02*
X83585190Y4746406D01*
X84061380Y6270215D02*
X84061380Y5698787D01*
X84061380Y5984501D02*
X83061380Y5984501D01*
X83061380Y5984501D02*
X83204238Y5889263D01*
X83204238Y5889263D02*
X83299476Y5794025D01*
X83299476Y5794025D02*
X83347095Y5698787D01*
%TO.C,U4*%
X32892771Y9902952D02*
X33705635Y9902952D01*
X33705635Y9902952D02*
X33801266Y9950768D01*
X33801266Y9950768D02*
X33849081Y9998583D01*
X33849081Y9998583D02*
X33896897Y10094214D01*
X33896897Y10094214D02*
X33896897Y10285476D01*
X33896897Y10285476D02*
X33849081Y10381107D01*
X33849081Y10381107D02*
X33801266Y10428923D01*
X33801266Y10428923D02*
X33705635Y10476738D01*
X33705635Y10476738D02*
X32892771Y10476738D01*
X33227480Y11385234D02*
X33896897Y11385234D01*
X32844955Y11146156D02*
X33562188Y10907079D01*
X33562188Y10907079D02*
X33562188Y11528680D01*
%TO.C,U2*%
X73532771Y11172952D02*
X74345635Y11172952D01*
X74345635Y11172952D02*
X74441266Y11220768D01*
X74441266Y11220768D02*
X74489081Y11268583D01*
X74489081Y11268583D02*
X74536897Y11364214D01*
X74536897Y11364214D02*
X74536897Y11555476D01*
X74536897Y11555476D02*
X74489081Y11651107D01*
X74489081Y11651107D02*
X74441266Y11698923D01*
X74441266Y11698923D02*
X74345635Y11746738D01*
X74345635Y11746738D02*
X73532771Y11746738D01*
X73628402Y12177079D02*
X73580587Y12224894D01*
X73580587Y12224894D02*
X73532771Y12320525D01*
X73532771Y12320525D02*
X73532771Y12559603D01*
X73532771Y12559603D02*
X73580587Y12655234D01*
X73580587Y12655234D02*
X73628402Y12703049D01*
X73628402Y12703049D02*
X73724033Y12750865D01*
X73724033Y12750865D02*
X73819664Y12750865D01*
X73819664Y12750865D02*
X73963111Y12703049D01*
X73963111Y12703049D02*
X74536897Y12129263D01*
X74536897Y12129263D02*
X74536897Y12750865D01*
%TO.C,R16*%
X33901142Y13348620D02*
X33567809Y13824810D01*
X33329714Y13348620D02*
X33329714Y14348620D01*
X33329714Y14348620D02*
X33710666Y14348620D01*
X33710666Y14348620D02*
X33805904Y14301000D01*
X33805904Y14301000D02*
X33853523Y14253381D01*
X33853523Y14253381D02*
X33901142Y14158143D01*
X33901142Y14158143D02*
X33901142Y14015286D01*
X33901142Y14015286D02*
X33853523Y13920048D01*
X33853523Y13920048D02*
X33805904Y13872429D01*
X33805904Y13872429D02*
X33710666Y13824810D01*
X33710666Y13824810D02*
X33329714Y13824810D01*
X34853523Y13348620D02*
X34282095Y13348620D01*
X34567809Y13348620D02*
X34567809Y14348620D01*
X34567809Y14348620D02*
X34472571Y14205762D01*
X34472571Y14205762D02*
X34377333Y14110524D01*
X34377333Y14110524D02*
X34282095Y14062905D01*
X35710666Y14348620D02*
X35520190Y14348620D01*
X35520190Y14348620D02*
X35424952Y14301000D01*
X35424952Y14301000D02*
X35377333Y14253381D01*
X35377333Y14253381D02*
X35282095Y14110524D01*
X35282095Y14110524D02*
X35234476Y13920048D01*
X35234476Y13920048D02*
X35234476Y13539096D01*
X35234476Y13539096D02*
X35282095Y13443858D01*
X35282095Y13443858D02*
X35329714Y13396239D01*
X35329714Y13396239D02*
X35424952Y13348620D01*
X35424952Y13348620D02*
X35615428Y13348620D01*
X35615428Y13348620D02*
X35710666Y13396239D01*
X35710666Y13396239D02*
X35758285Y13443858D01*
X35758285Y13443858D02*
X35805904Y13539096D01*
X35805904Y13539096D02*
X35805904Y13777191D01*
X35805904Y13777191D02*
X35758285Y13872429D01*
X35758285Y13872429D02*
X35710666Y13920048D01*
X35710666Y13920048D02*
X35615428Y13967667D01*
X35615428Y13967667D02*
X35424952Y13967667D01*
X35424952Y13967667D02*
X35329714Y13920048D01*
X35329714Y13920048D02*
X35282095Y13872429D01*
X35282095Y13872429D02*
X35234476Y13777191D01*
%TO.C,C4*%
X61304142Y6437334D02*
X61351761Y6389715D01*
X61351761Y6389715D02*
X61399380Y6246858D01*
X61399380Y6246858D02*
X61399380Y6151620D01*
X61399380Y6151620D02*
X61351761Y6008763D01*
X61351761Y6008763D02*
X61256523Y5913525D01*
X61256523Y5913525D02*
X61161285Y5865906D01*
X61161285Y5865906D02*
X60970809Y5818287D01*
X60970809Y5818287D02*
X60827952Y5818287D01*
X60827952Y5818287D02*
X60637476Y5865906D01*
X60637476Y5865906D02*
X60542238Y5913525D01*
X60542238Y5913525D02*
X60447000Y6008763D01*
X60447000Y6008763D02*
X60399380Y6151620D01*
X60399380Y6151620D02*
X60399380Y6246858D01*
X60399380Y6246858D02*
X60447000Y6389715D01*
X60447000Y6389715D02*
X60494619Y6437334D01*
X60732714Y7294477D02*
X61399380Y7294477D01*
X60351761Y7056382D02*
X61066047Y6818287D01*
X61066047Y6818287D02*
X61066047Y7437334D01*
%TO.C,R11*%
X49903142Y31890620D02*
X49569809Y32366810D01*
X49331714Y31890620D02*
X49331714Y32890620D01*
X49331714Y32890620D02*
X49712666Y32890620D01*
X49712666Y32890620D02*
X49807904Y32843000D01*
X49807904Y32843000D02*
X49855523Y32795381D01*
X49855523Y32795381D02*
X49903142Y32700143D01*
X49903142Y32700143D02*
X49903142Y32557286D01*
X49903142Y32557286D02*
X49855523Y32462048D01*
X49855523Y32462048D02*
X49807904Y32414429D01*
X49807904Y32414429D02*
X49712666Y32366810D01*
X49712666Y32366810D02*
X49331714Y32366810D01*
X50855523Y31890620D02*
X50284095Y31890620D01*
X50569809Y31890620D02*
X50569809Y32890620D01*
X50569809Y32890620D02*
X50474571Y32747762D01*
X50474571Y32747762D02*
X50379333Y32652524D01*
X50379333Y32652524D02*
X50284095Y32604905D01*
X51807904Y31890620D02*
X51236476Y31890620D01*
X51522190Y31890620D02*
X51522190Y32890620D01*
X51522190Y32890620D02*
X51426952Y32747762D01*
X51426952Y32747762D02*
X51331714Y32652524D01*
X51331714Y32652524D02*
X51236476Y32604905D01*
%TO.C,R15*%
X50913380Y14343143D02*
X50437190Y14009810D01*
X50913380Y13771715D02*
X49913380Y13771715D01*
X49913380Y13771715D02*
X49913380Y14152667D01*
X49913380Y14152667D02*
X49961000Y14247905D01*
X49961000Y14247905D02*
X50008619Y14295524D01*
X50008619Y14295524D02*
X50103857Y14343143D01*
X50103857Y14343143D02*
X50246714Y14343143D01*
X50246714Y14343143D02*
X50341952Y14295524D01*
X50341952Y14295524D02*
X50389571Y14247905D01*
X50389571Y14247905D02*
X50437190Y14152667D01*
X50437190Y14152667D02*
X50437190Y13771715D01*
X50913380Y15295524D02*
X50913380Y14724096D01*
X50913380Y15009810D02*
X49913380Y15009810D01*
X49913380Y15009810D02*
X50056238Y14914572D01*
X50056238Y14914572D02*
X50151476Y14819334D01*
X50151476Y14819334D02*
X50199095Y14724096D01*
X49913380Y16200286D02*
X49913380Y15724096D01*
X49913380Y15724096D02*
X50389571Y15676477D01*
X50389571Y15676477D02*
X50341952Y15724096D01*
X50341952Y15724096D02*
X50294333Y15819334D01*
X50294333Y15819334D02*
X50294333Y16057429D01*
X50294333Y16057429D02*
X50341952Y16152667D01*
X50341952Y16152667D02*
X50389571Y16200286D01*
X50389571Y16200286D02*
X50484809Y16247905D01*
X50484809Y16247905D02*
X50722904Y16247905D01*
X50722904Y16247905D02*
X50818142Y16200286D01*
X50818142Y16200286D02*
X50865761Y16152667D01*
X50865761Y16152667D02*
X50913380Y16057429D01*
X50913380Y16057429D02*
X50913380Y15819334D01*
X50913380Y15819334D02*
X50865761Y15724096D01*
X50865761Y15724096D02*
X50818142Y15676477D01*
%TO.C,C3*%
X82894142Y10755334D02*
X82941761Y10707715D01*
X82941761Y10707715D02*
X82989380Y10564858D01*
X82989380Y10564858D02*
X82989380Y10469620D01*
X82989380Y10469620D02*
X82941761Y10326763D01*
X82941761Y10326763D02*
X82846523Y10231525D01*
X82846523Y10231525D02*
X82751285Y10183906D01*
X82751285Y10183906D02*
X82560809Y10136287D01*
X82560809Y10136287D02*
X82417952Y10136287D01*
X82417952Y10136287D02*
X82227476Y10183906D01*
X82227476Y10183906D02*
X82132238Y10231525D01*
X82132238Y10231525D02*
X82037000Y10326763D01*
X82037000Y10326763D02*
X81989380Y10469620D01*
X81989380Y10469620D02*
X81989380Y10564858D01*
X81989380Y10564858D02*
X82037000Y10707715D01*
X82037000Y10707715D02*
X82084619Y10755334D01*
X81989380Y11088668D02*
X81989380Y11707715D01*
X81989380Y11707715D02*
X82370333Y11374382D01*
X82370333Y11374382D02*
X82370333Y11517239D01*
X82370333Y11517239D02*
X82417952Y11612477D01*
X82417952Y11612477D02*
X82465571Y11660096D01*
X82465571Y11660096D02*
X82560809Y11707715D01*
X82560809Y11707715D02*
X82798904Y11707715D01*
X82798904Y11707715D02*
X82894142Y11660096D01*
X82894142Y11660096D02*
X82941761Y11612477D01*
X82941761Y11612477D02*
X82989380Y11517239D01*
X82989380Y11517239D02*
X82989380Y11231525D01*
X82989380Y11231525D02*
X82941761Y11136287D01*
X82941761Y11136287D02*
X82894142Y11088668D01*
%TO.C,R9*%
X2781380Y5421334D02*
X2305190Y5088001D01*
X2781380Y4849906D02*
X1781380Y4849906D01*
X1781380Y4849906D02*
X1781380Y5230858D01*
X1781380Y5230858D02*
X1829000Y5326096D01*
X1829000Y5326096D02*
X1876619Y5373715D01*
X1876619Y5373715D02*
X1971857Y5421334D01*
X1971857Y5421334D02*
X2114714Y5421334D01*
X2114714Y5421334D02*
X2209952Y5373715D01*
X2209952Y5373715D02*
X2257571Y5326096D01*
X2257571Y5326096D02*
X2305190Y5230858D01*
X2305190Y5230858D02*
X2305190Y4849906D01*
X2781380Y5897525D02*
X2781380Y6088001D01*
X2781380Y6088001D02*
X2733761Y6183239D01*
X2733761Y6183239D02*
X2686142Y6230858D01*
X2686142Y6230858D02*
X2543285Y6326096D01*
X2543285Y6326096D02*
X2352809Y6373715D01*
X2352809Y6373715D02*
X1971857Y6373715D01*
X1971857Y6373715D02*
X1876619Y6326096D01*
X1876619Y6326096D02*
X1829000Y6278477D01*
X1829000Y6278477D02*
X1781380Y6183239D01*
X1781380Y6183239D02*
X1781380Y5992763D01*
X1781380Y5992763D02*
X1829000Y5897525D01*
X1829000Y5897525D02*
X1876619Y5849906D01*
X1876619Y5849906D02*
X1971857Y5802287D01*
X1971857Y5802287D02*
X2209952Y5802287D01*
X2209952Y5802287D02*
X2305190Y5849906D01*
X2305190Y5849906D02*
X2352809Y5897525D01*
X2352809Y5897525D02*
X2400428Y5992763D01*
X2400428Y5992763D02*
X2400428Y6183239D01*
X2400428Y6183239D02*
X2352809Y6278477D01*
X2352809Y6278477D02*
X2305190Y6326096D01*
X2305190Y6326096D02*
X2209952Y6373715D01*
%TO.C,C1*%
X43198142Y24979334D02*
X43245761Y24931715D01*
X43245761Y24931715D02*
X43293380Y24788858D01*
X43293380Y24788858D02*
X43293380Y24693620D01*
X43293380Y24693620D02*
X43245761Y24550763D01*
X43245761Y24550763D02*
X43150523Y24455525D01*
X43150523Y24455525D02*
X43055285Y24407906D01*
X43055285Y24407906D02*
X42864809Y24360287D01*
X42864809Y24360287D02*
X42721952Y24360287D01*
X42721952Y24360287D02*
X42531476Y24407906D01*
X42531476Y24407906D02*
X42436238Y24455525D01*
X42436238Y24455525D02*
X42341000Y24550763D01*
X42341000Y24550763D02*
X42293380Y24693620D01*
X42293380Y24693620D02*
X42293380Y24788858D01*
X42293380Y24788858D02*
X42341000Y24931715D01*
X42341000Y24931715D02*
X42388619Y24979334D01*
X43293380Y25931715D02*
X43293380Y25360287D01*
X43293380Y25646001D02*
X42293380Y25646001D01*
X42293380Y25646001D02*
X42436238Y25550763D01*
X42436238Y25550763D02*
X42531476Y25455525D01*
X42531476Y25455525D02*
X42579095Y25360287D01*
%TO.C,U3*%
X53212771Y11172952D02*
X54025635Y11172952D01*
X54025635Y11172952D02*
X54121266Y11220768D01*
X54121266Y11220768D02*
X54169081Y11268583D01*
X54169081Y11268583D02*
X54216897Y11364214D01*
X54216897Y11364214D02*
X54216897Y11555476D01*
X54216897Y11555476D02*
X54169081Y11651107D01*
X54169081Y11651107D02*
X54121266Y11698923D01*
X54121266Y11698923D02*
X54025635Y11746738D01*
X54025635Y11746738D02*
X53212771Y11746738D01*
X53212771Y12129263D02*
X53212771Y12750865D01*
X53212771Y12750865D02*
X53595295Y12416156D01*
X53595295Y12416156D02*
X53595295Y12559603D01*
X53595295Y12559603D02*
X53643111Y12655234D01*
X53643111Y12655234D02*
X53690926Y12703049D01*
X53690926Y12703049D02*
X53786557Y12750865D01*
X53786557Y12750865D02*
X54025635Y12750865D01*
X54025635Y12750865D02*
X54121266Y12703049D01*
X54121266Y12703049D02*
X54169081Y12655234D01*
X54169081Y12655234D02*
X54216897Y12559603D01*
X54216897Y12559603D02*
X54216897Y12272710D01*
X54216897Y12272710D02*
X54169081Y12177079D01*
X54169081Y12177079D02*
X54121266Y12129263D01*
%TO.C,C2*%
X42759333Y33255858D02*
X42711714Y33208239D01*
X42711714Y33208239D02*
X42568857Y33160620D01*
X42568857Y33160620D02*
X42473619Y33160620D01*
X42473619Y33160620D02*
X42330762Y33208239D01*
X42330762Y33208239D02*
X42235524Y33303477D01*
X42235524Y33303477D02*
X42187905Y33398715D01*
X42187905Y33398715D02*
X42140286Y33589191D01*
X42140286Y33589191D02*
X42140286Y33732048D01*
X42140286Y33732048D02*
X42187905Y33922524D01*
X42187905Y33922524D02*
X42235524Y34017762D01*
X42235524Y34017762D02*
X42330762Y34113000D01*
X42330762Y34113000D02*
X42473619Y34160620D01*
X42473619Y34160620D02*
X42568857Y34160620D01*
X42568857Y34160620D02*
X42711714Y34113000D01*
X42711714Y34113000D02*
X42759333Y34065381D01*
X43140286Y34065381D02*
X43187905Y34113000D01*
X43187905Y34113000D02*
X43283143Y34160620D01*
X43283143Y34160620D02*
X43521238Y34160620D01*
X43521238Y34160620D02*
X43616476Y34113000D01*
X43616476Y34113000D02*
X43664095Y34065381D01*
X43664095Y34065381D02*
X43711714Y33970143D01*
X43711714Y33970143D02*
X43711714Y33874905D01*
X43711714Y33874905D02*
X43664095Y33732048D01*
X43664095Y33732048D02*
X43092667Y33160620D01*
X43092667Y33160620D02*
X43711714Y33160620D01*
%TO.C,R4*%
X63613380Y9080834D02*
X63137190Y8747501D01*
X63613380Y8509406D02*
X62613380Y8509406D01*
X62613380Y8509406D02*
X62613380Y8890358D01*
X62613380Y8890358D02*
X62661000Y8985596D01*
X62661000Y8985596D02*
X62708619Y9033215D01*
X62708619Y9033215D02*
X62803857Y9080834D01*
X62803857Y9080834D02*
X62946714Y9080834D01*
X62946714Y9080834D02*
X63041952Y9033215D01*
X63041952Y9033215D02*
X63089571Y8985596D01*
X63089571Y8985596D02*
X63137190Y8890358D01*
X63137190Y8890358D02*
X63137190Y8509406D01*
X62946714Y9937977D02*
X63613380Y9937977D01*
X62565761Y9699882D02*
X63280047Y9461787D01*
X63280047Y9461787D02*
X63280047Y10080834D01*
%TO.C,R6*%
X43293380Y9231334D02*
X42817190Y8898001D01*
X43293380Y8659906D02*
X42293380Y8659906D01*
X42293380Y8659906D02*
X42293380Y9040858D01*
X42293380Y9040858D02*
X42341000Y9136096D01*
X42341000Y9136096D02*
X42388619Y9183715D01*
X42388619Y9183715D02*
X42483857Y9231334D01*
X42483857Y9231334D02*
X42626714Y9231334D01*
X42626714Y9231334D02*
X42721952Y9183715D01*
X42721952Y9183715D02*
X42769571Y9136096D01*
X42769571Y9136096D02*
X42817190Y9040858D01*
X42817190Y9040858D02*
X42817190Y8659906D01*
X42293380Y10088477D02*
X42293380Y9898001D01*
X42293380Y9898001D02*
X42341000Y9802763D01*
X42341000Y9802763D02*
X42388619Y9755144D01*
X42388619Y9755144D02*
X42531476Y9659906D01*
X42531476Y9659906D02*
X42721952Y9612287D01*
X42721952Y9612287D02*
X43102904Y9612287D01*
X43102904Y9612287D02*
X43198142Y9659906D01*
X43198142Y9659906D02*
X43245761Y9707525D01*
X43245761Y9707525D02*
X43293380Y9802763D01*
X43293380Y9802763D02*
X43293380Y9993239D01*
X43293380Y9993239D02*
X43245761Y10088477D01*
X43245761Y10088477D02*
X43198142Y10136096D01*
X43198142Y10136096D02*
X43102904Y10183715D01*
X43102904Y10183715D02*
X42864809Y10183715D01*
X42864809Y10183715D02*
X42769571Y10136096D01*
X42769571Y10136096D02*
X42721952Y10088477D01*
X42721952Y10088477D02*
X42674333Y9993239D01*
X42674333Y9993239D02*
X42674333Y9802763D01*
X42674333Y9802763D02*
X42721952Y9707525D01*
X42721952Y9707525D02*
X42769571Y9659906D01*
X42769571Y9659906D02*
X42864809Y9612287D01*
%TO.C,R10*%
X2653380Y9009143D02*
X2177190Y8675810D01*
X2653380Y8437715D02*
X1653380Y8437715D01*
X1653380Y8437715D02*
X1653380Y8818667D01*
X1653380Y8818667D02*
X1701000Y8913905D01*
X1701000Y8913905D02*
X1748619Y8961524D01*
X1748619Y8961524D02*
X1843857Y9009143D01*
X1843857Y9009143D02*
X1986714Y9009143D01*
X1986714Y9009143D02*
X2081952Y8961524D01*
X2081952Y8961524D02*
X2129571Y8913905D01*
X2129571Y8913905D02*
X2177190Y8818667D01*
X2177190Y8818667D02*
X2177190Y8437715D01*
X2653380Y9961524D02*
X2653380Y9390096D01*
X2653380Y9675810D02*
X1653380Y9675810D01*
X1653380Y9675810D02*
X1796238Y9580572D01*
X1796238Y9580572D02*
X1891476Y9485334D01*
X1891476Y9485334D02*
X1939095Y9390096D01*
X1653380Y10580572D02*
X1653380Y10675810D01*
X1653380Y10675810D02*
X1701000Y10771048D01*
X1701000Y10771048D02*
X1748619Y10818667D01*
X1748619Y10818667D02*
X1843857Y10866286D01*
X1843857Y10866286D02*
X2034333Y10913905D01*
X2034333Y10913905D02*
X2272428Y10913905D01*
X2272428Y10913905D02*
X2462904Y10866286D01*
X2462904Y10866286D02*
X2558142Y10818667D01*
X2558142Y10818667D02*
X2605761Y10771048D01*
X2605761Y10771048D02*
X2653380Y10675810D01*
X2653380Y10675810D02*
X2653380Y10580572D01*
X2653380Y10580572D02*
X2605761Y10485334D01*
X2605761Y10485334D02*
X2558142Y10437715D01*
X2558142Y10437715D02*
X2462904Y10390096D01*
X2462904Y10390096D02*
X2272428Y10342477D01*
X2272428Y10342477D02*
X2034333Y10342477D01*
X2034333Y10342477D02*
X1843857Y10390096D01*
X1843857Y10390096D02*
X1748619Y10437715D01*
X1748619Y10437715D02*
X1701000Y10485334D01*
X1701000Y10485334D02*
X1653380Y10580572D01*
D11*
%TO.C,*%
G36*
X17595240Y6990684D02*
G01*
X17657160Y6990684D01*
X17672680Y6990923D01*
X17706145Y7011731D01*
X17759910Y7050901D01*
X17773963Y7061226D01*
X17827619Y7101349D01*
X17870692Y7135054D01*
X17898016Y7158203D01*
X17905072Y7166206D01*
X17892133Y7175588D01*
X17857856Y7190728D01*
X17816526Y7205933D01*
X17727390Y7236369D01*
X17694706Y7135436D01*
X17670529Y7060735D01*
X17657229Y7013219D01*
X17657160Y6990684D01*
X17595240Y6990684D01*
X17604459Y7010409D01*
X17635579Y7085627D01*
X17658979Y7151186D01*
X17662693Y7163512D01*
X17678725Y7215364D01*
X17693215Y7255157D01*
X17702648Y7273694D01*
X17723647Y7277798D01*
X17761742Y7273705D01*
X17775616Y7270728D01*
X17859712Y7251186D01*
X17920615Y7239317D01*
X17964610Y7234578D01*
X17997984Y7236425D01*
X18027021Y7244315D01*
X18036713Y7248148D01*
X18070846Y7265036D01*
X18088574Y7278936D01*
X18089277Y7281005D01*
X18079631Y7301534D01*
X18053081Y7340335D01*
X18013212Y7392945D01*
X17963608Y7454903D01*
X17907854Y7521749D01*
X17849533Y7589021D01*
X17792229Y7652257D01*
X17783649Y7661432D01*
X17716265Y7734616D01*
X17670937Y7786998D01*
X17647266Y7818567D01*
X17644850Y7829308D01*
X17663290Y7819211D01*
X17702184Y7788261D01*
X17761132Y7736446D01*
X17839733Y7663754D01*
X17840306Y7663215D01*
X17885071Y7619772D01*
X17925322Y7577178D01*
X17966040Y7529492D01*
X18012200Y7470778D01*
X18068782Y7395098D01*
X18094711Y7359753D01*
X18136588Y7302472D01*
X18212390Y7340884D01*
X18265661Y7375164D01*
X18288383Y7408567D01*
X18280596Y7441161D01*
X18274632Y7448401D01*
X18263098Y7466596D01*
X18240961Y7506232D01*
X18210976Y7561975D01*
X18175899Y7628487D01*
X18138485Y7700435D01*
X18101490Y7772483D01*
X18067670Y7839295D01*
X18039781Y7895537D01*
X18020577Y7935872D01*
X18012815Y7954966D01*
X18012771Y7955409D01*
X18019467Y7955583D01*
X18038718Y7930546D01*
X18069268Y7882395D01*
X18109862Y7813229D01*
X18159244Y7725145D01*
X18216160Y7620240D01*
X18238816Y7577696D01*
X18276945Y7505575D01*
X18305535Y7456926D01*
X18330728Y7428941D01*
X18358661Y7418811D01*
X18395475Y7423727D01*
X18447311Y7440880D01*
X18497596Y7459310D01*
X18596615Y7493070D01*
X18693866Y7521161D01*
X18795289Y7544738D01*
X18906823Y7564956D01*
X19034409Y7582969D01*
X19183986Y7599933D01*
X19259819Y7607509D01*
X19394828Y7620622D01*
X19502604Y7631321D01*
X19586379Y7640074D01*
X19649386Y7647347D01*
X19694858Y7653607D01*
X19726029Y7659321D01*
X19746131Y7664956D01*
X19758398Y7670978D01*
X19766061Y7677855D01*
X19768584Y7680979D01*
X19784631Y7711474D01*
X19787711Y7726811D01*
X19792469Y7758126D01*
X19805314Y7811120D01*
X19824099Y7878630D01*
X19846680Y7953492D01*
X19870911Y8028543D01*
X19894647Y8096622D01*
X19911843Y8141264D01*
X19940559Y8207961D01*
X19969019Y8268656D01*
X19995216Y8319922D01*
X20017146Y8358330D01*
X20032801Y8380454D01*
X20040177Y8382864D01*
X20037266Y8362134D01*
X20033629Y8349375D01*
X20012332Y8283332D01*
X19992208Y8227718D01*
X19976185Y8190403D01*
X19971392Y8182094D01*
X19957713Y8154192D01*
X19938285Y8103658D01*
X19915304Y8037412D01*
X19890964Y7962376D01*
X19867461Y7885470D01*
X19846988Y7813615D01*
X19831742Y7753733D01*
X19825009Y7720532D01*
X19815101Y7658571D01*
X19896708Y7647746D01*
X19952310Y7643465D01*
X19980329Y7649220D01*
X19984016Y7654023D01*
X19995424Y7659730D01*
X20007298Y7648200D01*
X20035372Y7626917D01*
X20063522Y7615990D01*
X20087989Y7613721D01*
X20106481Y7625239D01*
X20126074Y7656546D01*
X20136903Y7678208D01*
X20161426Y7723642D01*
X20175856Y7740865D01*
X20178544Y7730448D01*
X20167839Y7692963D01*
X20159393Y7670406D01*
X20144471Y7629627D01*
X20141738Y7606902D01*
X20151555Y7592058D01*
X20162482Y7583534D01*
X20194377Y7571125D01*
X20242682Y7563522D01*
X20269240Y7562395D01*
X20307833Y7563509D01*
X20336942Y7569750D01*
X20364370Y7585471D01*
X20397923Y7615021D01*
X20440777Y7658028D01*
X20532882Y7768334D01*
X20598791Y7886364D01*
X20630453Y7973295D01*
X20646788Y8015244D01*
X20664667Y8043072D01*
X20671252Y8047929D01*
X20704311Y8046936D01*
X20750731Y8028834D01*
X20802192Y7998111D01*
X20850375Y7959257D01*
X20866984Y7942315D01*
X20897182Y7906430D01*
X20916382Y7878886D01*
X20920000Y7869913D01*
X20927978Y7850840D01*
X20948726Y7815039D01*
X20972993Y7777446D01*
X21003548Y7724790D01*
X21026500Y7671991D01*
X21034660Y7642023D01*
X21057374Y7511784D01*
X21082779Y7407324D01*
X21113231Y7323820D01*
X21151085Y7256451D01*
X21198698Y7200394D01*
X21258426Y7150828D01*
X21282868Y7133961D01*
X21353237Y7081350D01*
X21404383Y7027172D01*
X21437192Y6967195D01*
X21452548Y6897183D01*
X21451335Y6812903D01*
X21434437Y6710120D01*
X21402739Y6584600D01*
X21399787Y6574139D01*
X21389429Y6538843D01*
X21382884Y6512073D01*
X21381697Y6488349D01*
X21387409Y6462193D01*
X21401565Y6428125D01*
X21425708Y6380666D01*
X21461381Y6314337D01*
X21485605Y6269443D01*
X21513756Y6217096D01*
X21540134Y6168014D01*
X21551401Y6147034D01*
X21580850Y6080330D01*
X21607714Y5998817D01*
X21628628Y5914833D01*
X21640231Y5840716D01*
X21641515Y5816350D01*
X21637077Y5757375D01*
X21625181Y5700700D01*
X21618752Y5682308D01*
X21595305Y5621274D01*
X21564839Y5533227D01*
X21528218Y5420724D01*
X21499268Y5328419D01*
X21478608Y5262165D01*
X21453907Y5183647D01*
X21430475Y5109740D01*
X21430239Y5108996D01*
X21413666Y5052677D01*
X21403121Y5008078D01*
X21400274Y4982644D01*
X21401242Y4979788D01*
X21419899Y4977878D01*
X21459408Y4982047D01*
X21505695Y4990312D01*
X21557519Y4998156D01*
X21630702Y5005385D01*
X21716001Y5011251D01*
X21804172Y5015008D01*
X21815120Y5015297D01*
X21889276Y5016900D01*
X21940238Y5017258D01*
X21966985Y5015940D01*
X21968491Y5012510D01*
X21943735Y5006537D01*
X21891691Y4997587D01*
X21811337Y4985226D01*
X21708012Y4969954D01*
X21601344Y4954084D01*
X21520912Y4941414D01*
X21462622Y4931073D01*
X21422377Y4922192D01*
X21396085Y4913899D01*
X21379650Y4905325D01*
X21371568Y4898433D01*
X21359209Y4869800D01*
X21350252Y4815539D01*
X21346043Y4755102D01*
X21341276Y4633171D01*
X21534393Y4637842D01*
X21627319Y4638235D01*
X21727281Y4635639D01*
X21820632Y4630551D01*
X21878423Y4625359D01*
X21952640Y4615791D01*
X22028887Y4604046D01*
X22101529Y4591235D01*
X22164934Y4578474D01*
X22213466Y4566874D01*
X22241492Y4557551D01*
X22245716Y4552769D01*
X22229135Y4551851D01*
X22186641Y4553122D01*
X22122823Y4556341D01*
X22042273Y4561267D01*
X21949583Y4567660D01*
X21919948Y4569839D01*
X21747656Y4580721D01*
X21603623Y4585475D01*
X21486123Y4584104D01*
X21393433Y4576608D01*
X21354402Y4570278D01*
X21334320Y4560082D01*
X21319318Y4534479D01*
X21305856Y4486729D01*
X21302529Y4471547D01*
X21292486Y4419157D01*
X21290622Y4386942D01*
X21297545Y4365424D01*
X21310408Y4348891D01*
X21339190Y4325921D01*
X21360837Y4318540D01*
X21387457Y4309873D01*
X21423766Y4288491D01*
X21431146Y4283174D01*
X21494764Y4244241D01*
X21566811Y4219064D01*
X21654458Y4204189D01*
X21715933Y4195459D01*
X21776231Y4184272D01*
X21799819Y4178826D01*
X21855249Y4164692D01*
X21909383Y4151042D01*
X21914578Y4149744D01*
X21990031Y4129729D01*
X22061401Y4108678D01*
X22124312Y4088177D01*
X22174385Y4069808D01*
X22207242Y4055158D01*
X22218507Y4045809D01*
X22208919Y4043212D01*
X22179512Y4049818D01*
X22163015Y4056929D01*
X22133975Y4066829D01*
X22086373Y4078133D01*
X22044639Y4085955D01*
X21979059Y4098056D01*
X21902659Y4113917D01*
X21845723Y4126871D01*
X21764768Y4144855D01*
X21695985Y4157364D01*
X21644174Y4163740D01*
X21614137Y4163327D01*
X21608554Y4159329D01*
X21616112Y4140163D01*
X21630790Y4115213D01*
X21644509Y4085679D01*
X21662527Y4035167D01*
X21681843Y3972419D01*
X21690539Y3941106D01*
X21719647Y3847737D01*
X21752824Y3774483D01*
X21788354Y3719286D01*
X21824073Y3668797D01*
X21855438Y3620814D01*
X21872400Y3591696D01*
X21900173Y3548850D01*
X21929941Y3515190D01*
X21959786Y3480590D01*
X21988420Y3436061D01*
X21991594Y3430046D01*
X22016087Y3389080D01*
X22040699Y3358165D01*
X22044639Y3354564D01*
X22067945Y3327456D01*
X22093355Y3287199D01*
X22098006Y3278425D01*
X22108697Y3254811D01*
X22115740Y3229625D01*
X22119408Y3197228D01*
X22119972Y3151976D01*
X22117704Y3088231D01*
X22112876Y3000349D01*
X22112064Y2986678D01*
X22105840Y2893543D01*
X22098480Y2800788D01*
X22090781Y2717499D01*
X22083540Y2652764D01*
X22081438Y2637372D01*
X22076143Y2583163D01*
X22072205Y2506449D01*
X22069865Y2415309D01*
X22069364Y2317820D01*
X22070086Y2257527D01*
X22071747Y2160766D01*
X22072173Y2090019D01*
X22070975Y2040707D01*
X22067764Y2008252D01*
X22062152Y1988076D01*
X22053749Y1975603D01*
X22045539Y1968664D01*
X22019973Y1951965D01*
X21999301Y1950135D01*
X21967175Y1961570D01*
X21947812Y1963416D01*
X21899910Y1965368D01*
X21825531Y1967396D01*
X21726739Y1969473D01*
X21605596Y1971569D01*
X21464165Y1973656D01*
X21304508Y1975705D01*
X21128690Y1977687D01*
X20938772Y1979574D01*
X20736818Y1981337D01*
X20524890Y1982947D01*
X20345247Y1984133D01*
X19980397Y1986598D01*
X19638247Y1989358D01*
X19319400Y1992400D01*
X19024457Y1995712D01*
X18754019Y1999283D01*
X18508687Y2003099D01*
X18289062Y2007148D01*
X18095745Y2011418D01*
X17929339Y2015898D01*
X17790443Y2020574D01*
X17679660Y2025434D01*
X17597590Y2030466D01*
X17544835Y2035658D01*
X17521995Y2040998D01*
X17521214Y2041765D01*
X17520863Y2067747D01*
X17535449Y2119804D01*
X17564744Y2197432D01*
X17608520Y2300125D01*
X17666550Y2427379D01*
X17738604Y2578689D01*
X17824455Y2753550D01*
X17923874Y2951456D01*
X17996825Y3094478D01*
X18073822Y3253698D01*
X18131218Y3394119D01*
X18169998Y3519583D01*
X18191149Y3633933D01*
X18195657Y3741012D01*
X18186443Y3833476D01*
X18177848Y3871087D01*
X18164196Y3885932D01*
X18138116Y3885760D01*
X18136882Y3885576D01*
X18113793Y3883126D01*
X18114751Y3885698D01*
X18136910Y3904668D01*
X18135044Y3939015D01*
X18109006Y3990220D01*
X18103352Y3998925D01*
X18078048Y4039699D01*
X18061768Y4070982D01*
X18058506Y4081371D01*
X18050709Y4107086D01*
X18045111Y4117336D01*
X18034532Y4124125D01*
X18013301Y4124516D01*
X17978717Y4117674D01*
X17928083Y4102761D01*
X17858700Y4078941D01*
X17767867Y4045376D01*
X17652888Y4001231D01*
X17584337Y3974474D01*
X17484901Y3935725D01*
X17411507Y3907802D01*
X17361826Y3890068D01*
X17333526Y3881886D01*
X17324275Y3882618D01*
X17331744Y3891627D01*
X17353600Y3908276D01*
X17360735Y3913343D01*
X17426163Y3953346D01*
X17514198Y3998222D01*
X17617916Y4044825D01*
X17730392Y4090008D01*
X17822633Y4123224D01*
X17887973Y4145913D01*
X17943239Y4165939D01*
X17981504Y4180742D01*
X17994772Y4186812D01*
X18003711Y4205462D01*
X18009817Y4241982D01*
X18012715Y4286199D01*
X18012033Y4327939D01*
X18007396Y4357029D01*
X18001295Y4364431D01*
X17980858Y4361484D01*
X17936151Y4353391D01*
X17872860Y4341252D01*
X17796673Y4326165D01*
X17713277Y4309232D01*
X17676145Y4301558D01*
X17489085Y4260267D01*
X17323898Y4218440D01*
X17194697Y4180995D01*
X17120324Y4158361D01*
X17070324Y4144141D01*
X17039914Y4137456D01*
X17024308Y4137424D01*
X17018725Y4143165D01*
X17018193Y4148505D01*
X17032086Y4162647D01*
X17070192Y4182585D01*
X17127147Y4206251D01*
X17197588Y4231578D01*
X17276152Y4256499D01*
X17354819Y4278270D01*
X17406264Y4291211D01*
X17454135Y4302697D01*
X17503597Y4313792D01*
X17559817Y4325561D01*
X17627961Y4339067D01*
X17713194Y4355376D01*
X17820682Y4375551D01*
X17887069Y4387920D01*
X17959612Y4402707D01*
X18007492Y4417435D01*
X18036378Y4436080D01*
X18051943Y4462616D01*
X18059857Y4501020D01*
X18060942Y4509805D01*
X18066325Y4555708D01*
X17860463Y4551312D01*
X17786154Y4550387D01*
X17725244Y4550902D01*
X17682964Y4552713D01*
X17664546Y4555676D01*
X17664397Y4556712D01*
X17681263Y4561069D01*
X17721554Y4567881D01*
X17778281Y4576231D01*
X17844452Y4585204D01*
X17913077Y4593880D01*
X17977167Y4601345D01*
X18029730Y4606680D01*
X18062500Y4608937D01*
X18075119Y4617163D01*
X18065930Y4636526D01*
X18038570Y4661161D01*
X18024247Y4670635D01*
X17957255Y4695345D01*
X17890361Y4701247D01*
X17822555Y4705491D01*
X17782937Y4718073D01*
X17770078Y4739624D01*
X17772892Y4753080D01*
X17771837Y4773164D01*
X17753531Y4777576D01*
X17723925Y4789799D01*
X17690294Y4819803D01*
X17661448Y4857588D01*
X17646200Y4893156D01*
X17645542Y4900116D01*
X17639691Y4931753D01*
X17624289Y4982662D01*
X17602564Y5044308D01*
X17577745Y5108155D01*
X17553059Y5165668D01*
X17531733Y5208312D01*
X17524794Y5219399D01*
X17485771Y5295989D01*
X17458225Y5396474D01*
X17443247Y5515965D01*
X17440747Y5596190D01*
X17442345Y5676340D01*
X17448345Y5739439D01*
X17460999Y5798962D01*
X17482560Y5868384D01*
X17489711Y5889170D01*
X17516897Y5970816D01*
X17532334Y6029920D01*
X17535880Y6072258D01*
X17527396Y6103602D01*
X17506740Y6129728D01*
X17483374Y6149220D01*
X17445308Y6182389D01*
X17421591Y6216715D01*
X17410268Y6259432D01*
X17410157Y6266774D01*
X17503762Y6266774D01*
X17551931Y6232475D01*
X17602598Y6183272D01*
X17635768Y6124334D01*
X17645542Y6074622D01*
X17641524Y6039972D01*
X17631218Y5989622D01*
X17622492Y5955278D01*
X17591832Y5842459D01*
X17569101Y5754899D01*
X17553377Y5688563D01*
X17543738Y5639417D01*
X17539262Y5603427D01*
X17538669Y5588534D01*
X17544912Y5512192D01*
X17562088Y5425548D01*
X17586977Y5340938D01*
X17616363Y5270695D01*
X17626076Y5253450D01*
X17694415Y5114555D01*
X17737557Y4969467D01*
X17754367Y4908239D01*
X17774165Y4872288D01*
X17800817Y4856301D01*
X17821506Y4854082D01*
X17857568Y4844444D01*
X17875060Y4831130D01*
X17904655Y4812924D01*
X17930979Y4808178D01*
X17987317Y4798732D01*
X18046280Y4773841D01*
X18100392Y4738681D01*
X18142174Y4698427D01*
X18164151Y4658252D01*
X18165783Y4645684D01*
X18167547Y4627869D01*
X18175898Y4614685D01*
X18195421Y4604739D01*
X18230706Y4596637D01*
X18286337Y4588985D01*
X18366903Y4580391D01*
X18387515Y4578326D01*
X18487595Y4565847D01*
X18574833Y4550095D01*
X18644591Y4532221D01*
X18692232Y4513375D01*
X18711601Y4497907D01*
X18708625Y4488860D01*
X18684591Y4493400D01*
X18662591Y4499403D01*
X18631798Y4506144D01*
X18587447Y4514497D01*
X18524771Y4525336D01*
X18439004Y4539535D01*
X18385886Y4548182D01*
X18297291Y4559856D01*
X18229232Y4563165D01*
X18184556Y4558186D01*
X18166111Y4544994D01*
X18165783Y4542320D01*
X18162899Y4512372D01*
X18156977Y4477290D01*
X18148171Y4433299D01*
X18352067Y4438115D01*
X18446709Y4439307D01*
X18516800Y4437456D01*
X18568278Y4432144D01*
X18607081Y4422950D01*
X18617169Y4419360D01*
X18678373Y4395789D01*
X18548313Y4399043D01*
X18411406Y4401007D01*
X18303685Y4399239D01*
X18223950Y4393658D01*
X18171005Y4384180D01*
X18143924Y4371001D01*
X18129027Y4343555D01*
X18121080Y4304819D01*
X18120422Y4265420D01*
X18127393Y4235984D01*
X18139314Y4226733D01*
X18162945Y4230595D01*
X18206804Y4240757D01*
X18261701Y4255077D01*
X18265548Y4256133D01*
X18327310Y4270791D01*
X18395254Y4283176D01*
X18463415Y4292713D01*
X18525827Y4298829D01*
X18576527Y4300948D01*
X18609548Y4298497D01*
X18618927Y4290902D01*
X18618511Y4290109D01*
X18597627Y4279128D01*
X18558696Y4273058D01*
X18544671Y4272636D01*
X18490694Y4269024D01*
X18440613Y4260162D01*
X18434641Y4258496D01*
X18338157Y4229276D01*
X18267236Y4207055D01*
X18218075Y4190208D01*
X18186875Y4177112D01*
X18169835Y4166142D01*
X18163154Y4155675D01*
X18163032Y4144086D01*
X18163278Y4142541D01*
X18174194Y4111837D01*
X18196046Y4068658D01*
X18209181Y4046371D01*
X18239452Y4004642D01*
X18263929Y3988325D01*
X18276717Y3988992D01*
X18327096Y4003770D01*
X18350754Y4008370D01*
X18349897Y4002592D01*
X18326734Y3986234D01*
X18324290Y3984659D01*
X18281787Y3953748D01*
X18264920Y3930291D01*
X18271090Y3909933D01*
X18276381Y3904392D01*
X18285238Y3887102D01*
X18289540Y3853045D01*
X18289533Y3797564D01*
X18285939Y3723686D01*
X18274967Y3609149D01*
X18255268Y3499031D01*
X18224951Y3387079D01*
X18182125Y3267040D01*
X18124896Y3132663D01*
X18074708Y3025588D01*
X18019015Y2910614D01*
X17959960Y2789569D01*
X17899980Y2667376D01*
X17841511Y2548956D01*
X17786990Y2439231D01*
X17738853Y2343123D01*
X17699536Y2265554D01*
X17675245Y2218584D01*
X17648189Y2163969D01*
X17629126Y2119284D01*
X17620904Y2091498D01*
X17621341Y2086586D01*
X17637508Y2084753D01*
X17682618Y2082963D01*
X17755012Y2081230D01*
X17853028Y2079569D01*
X17975007Y2077993D01*
X18119291Y2076518D01*
X18284218Y2075158D01*
X18468129Y2073926D01*
X18669365Y2072839D01*
X18886266Y2071909D01*
X19117171Y2071151D01*
X19360422Y2070580D01*
X19492414Y2070360D01*
X19728600Y2069966D01*
X19956228Y2069478D01*
X20173430Y2068905D01*
X20378342Y2068259D01*
X20569097Y2067547D01*
X20743830Y2066780D01*
X20900675Y2065968D01*
X21037766Y2065118D01*
X21153237Y2064242D01*
X21245223Y2063349D01*
X21311857Y2062447D01*
X21351275Y2061547D01*
X21361974Y2060823D01*
X21378699Y2058694D01*
X21421212Y2056835D01*
X21484699Y2055354D01*
X21564346Y2054360D01*
X21655340Y2053964D01*
X21663521Y2053961D01*
X21958207Y2053961D01*
X21958734Y2310257D01*
X21961795Y2491047D01*
X21969790Y2687853D01*
X21981977Y2886615D01*
X21997615Y3073279D01*
X22000613Y3103285D01*
X22010158Y3196283D01*
X21943242Y3273168D01*
X21903597Y3320767D01*
X21868594Y3366305D01*
X21849364Y3394387D01*
X21821678Y3438324D01*
X21790613Y3485547D01*
X21788159Y3489174D01*
X21723387Y3585246D01*
X21673890Y3660851D01*
X21637344Y3720557D01*
X21611424Y3768932D01*
X21593806Y3810544D01*
X21582164Y3849961D01*
X21574174Y3891751D01*
X21570586Y3916717D01*
X21549786Y3998527D01*
X21508693Y4067513D01*
X21442811Y4130585D01*
X21420675Y4147149D01*
X21390085Y4167385D01*
X21358415Y4183352D01*
X21321107Y4195909D01*
X21273599Y4205916D01*
X21211329Y4214235D01*
X21129738Y4221725D01*
X21024264Y4229247D01*
X20965496Y4233016D01*
X20819726Y4242171D01*
X20739443Y4165596D01*
X20698174Y4128075D01*
X20664469Y4100774D01*
X20645071Y4089118D01*
X20644218Y4089022D01*
X20629527Y4097511D01*
X20637083Y4119796D01*
X20664810Y4151101D01*
X20675181Y4160225D01*
X20710782Y4193691D01*
X20723720Y4216894D01*
X20712289Y4231082D01*
X20674783Y4237498D01*
X20609493Y4237391D01*
X20571898Y4235618D01*
X20505495Y4232892D01*
X20465799Y4233447D01*
X20454259Y4237215D01*
X20460964Y4240820D01*
X20494075Y4247347D01*
X20547520Y4252564D01*
X20611031Y4255538D01*
X20626182Y4255810D01*
X20690083Y4257407D01*
X20731549Y4261702D01*
X20758680Y4270734D01*
X20838692Y4270734D01*
X20839699Y4266230D01*
X20857621Y4262772D01*
X20899827Y4259942D01*
X20960002Y4258032D01*
X21031443Y4257335D01*
X21214292Y4257335D01*
X21201634Y4291763D01*
X21195527Y4324011D01*
X21191592Y4375752D01*
X21190666Y4435903D01*
X21190684Y4437124D01*
X21189473Y4502686D01*
X21183282Y4538833D01*
X21174780Y4547118D01*
X21151652Y4544170D01*
X21107808Y4537334D01*
X21052660Y4528079D01*
X21051676Y4527908D01*
X20990025Y4515108D01*
X20951722Y4499356D01*
X20929606Y4475288D01*
X20916518Y4437544D01*
X20913649Y4424530D01*
X20899750Y4386586D01*
X20875403Y4341346D01*
X20868139Y4330142D01*
X20847307Y4294892D01*
X20838692Y4270734D01*
X20758680Y4270734D01*
X20758740Y4270754D01*
X20779816Y4286624D01*
X20790077Y4297182D01*
X20816883Y4331872D01*
X20843980Y4375894D01*
X20867149Y4420922D01*
X20882172Y4458633D01*
X20884830Y4480701D01*
X20883845Y4482205D01*
X20874186Y4484419D01*
X20852086Y4481478D01*
X20814339Y4472528D01*
X20757741Y4456718D01*
X20679086Y4433194D01*
X20575168Y4401103D01*
X20552771Y4394113D01*
X20471939Y4369945D01*
X20415875Y4355566D01*
X20385507Y4351071D01*
X20381765Y4356552D01*
X20405581Y4372103D01*
X20422711Y4381004D01*
X20473863Y4403424D01*
X20544599Y4430068D01*
X20628808Y4459078D01*
X20720380Y4488594D01*
X20813205Y4516758D01*
X20901173Y4541711D01*
X20978175Y4561593D01*
X21038099Y4574547D01*
X21072661Y4578746D01*
X21102292Y4582744D01*
X21144840Y4592458D01*
X21152160Y4594439D01*
X21187154Y4607075D01*
X21206761Y4626412D01*
X21219056Y4662405D01*
X21223452Y4682336D01*
X21229538Y4730380D01*
X21230170Y4782074D01*
X21226099Y4828957D01*
X21218078Y4862572D01*
X21206858Y4874458D01*
X21206383Y4874368D01*
X21184615Y4869786D01*
X21147584Y4862336D01*
X21145438Y4861911D01*
X21066120Y4842261D01*
X20970843Y4812496D01*
X20866641Y4775430D01*
X20760550Y4733875D01*
X20659602Y4690644D01*
X20570832Y4648550D01*
X20501274Y4610405D01*
X20477429Y4594790D01*
X20434548Y4569438D01*
X20407788Y4564999D01*
X20399759Y4578969D01*
X20412340Y4595316D01*
X20446267Y4622273D01*
X20495811Y4656179D01*
X20555247Y4693374D01*
X20618848Y4730198D01*
X20680886Y4762990D01*
X20708265Y4776149D01*
X20771818Y4803328D01*
X20849024Y4833314D01*
X20924245Y4860058D01*
X20931476Y4862460D01*
X20996723Y4885650D01*
X21036447Y4904453D01*
X21054972Y4921229D01*
X21057711Y4931330D01*
X21067918Y4953073D01*
X21093359Y4982522D01*
X21126267Y5012868D01*
X21158870Y5037303D01*
X21183402Y5049019D01*
X21190513Y5047706D01*
X21186679Y5032125D01*
X21166830Y5002597D01*
X21151554Y4984124D01*
X21123422Y4950904D01*
X21106177Y4928267D01*
X21103614Y4923367D01*
X21116048Y4918655D01*
X21146276Y4922572D01*
X21183689Y4932357D01*
X21217679Y4945250D01*
X21237399Y4958184D01*
X21249644Y4982326D01*
X21267559Y5028483D01*
X21288407Y5089244D01*
X21303161Y5136115D01*
X21326705Y5211685D01*
X21351116Y5286692D01*
X21372642Y5349741D01*
X21381566Y5374323D01*
X21405012Y5438828D01*
X21430249Y5511508D01*
X21443185Y5550287D01*
X21465295Y5615683D01*
X21489446Y5683624D01*
X21502593Y5718896D01*
X21528890Y5821806D01*
X21525801Y5919703D01*
X21493180Y6016594D01*
X21491736Y6019542D01*
X21466138Y6068309D01*
X21442468Y6108374D01*
X21430175Y6125680D01*
X21412695Y6154075D01*
X21392036Y6198809D01*
X21381791Y6225138D01*
X21357852Y6285091D01*
X21330205Y6346035D01*
X21320942Y6364466D01*
X21295105Y6431310D01*
X21289701Y6499529D01*
X21304878Y6577051D01*
X21326045Y6636670D01*
X21357021Y6739071D01*
X21366069Y6833493D01*
X21353069Y6914961D01*
X21333852Y6956834D01*
X21298497Y6997593D01*
X21245448Y7039680D01*
X21213691Y7059444D01*
X21157202Y7094045D01*
X21102733Y7131819D01*
X21072592Y7155709D01*
X21026235Y7190292D01*
X20968684Y7225567D01*
X20938944Y7241070D01*
X20886890Y7270165D01*
X20861307Y7293531D01*
X20862510Y7309172D01*
X20890815Y7315098D01*
X20927651Y7312298D01*
X20964982Y7308195D01*
X20986884Y7311831D01*
X20995201Y7328346D01*
X20991779Y7362882D01*
X20978462Y7420579D01*
X20973554Y7440217D01*
X20956011Y7510193D01*
X20936780Y7586874D01*
X20927383Y7624333D01*
X20907190Y7687447D01*
X20880399Y7749666D01*
X20862936Y7781170D01*
X20823274Y7840384D01*
X20784920Y7893073D01*
X20752171Y7933749D01*
X20729324Y7956919D01*
X20722821Y7960227D01*
X20711844Y7947129D01*
X20695820Y7913637D01*
X20685614Y7887326D01*
X20661436Y7833244D01*
X20631610Y7783383D01*
X20620388Y7768741D01*
X20575412Y7717921D01*
X20527780Y7667095D01*
X20482577Y7621337D01*
X20444890Y7585718D01*
X20419805Y7565311D01*
X20413469Y7562395D01*
X20400935Y7550160D01*
X20399759Y7541865D01*
X20413064Y7525336D01*
X20446521Y7508049D01*
X20463192Y7502331D01*
X20503963Y7491745D01*
X20528564Y7493950D01*
X20549874Y7512118D01*
X20562100Y7526686D01*
X20587742Y7553809D01*
X20597588Y7555866D01*
X20590028Y7534906D01*
X20575137Y7510094D01*
X20563700Y7489898D01*
X20564650Y7474639D01*
X20582388Y7458297D01*
X20621311Y7434853D01*
X20636342Y7426345D01*
X20689731Y7392557D01*
X20716196Y7367835D01*
X20718165Y7352583D01*
X20698064Y7347208D01*
X20658322Y7352113D01*
X20601364Y7367704D01*
X20529619Y7394386D01*
X20505736Y7404544D01*
X20438864Y7431606D01*
X20373443Y7454420D01*
X20320708Y7469175D01*
X20307952Y7471634D01*
X20252163Y7483302D01*
X20199576Y7498887D01*
X20188978Y7502927D01*
X20143164Y7514383D01*
X20109620Y7503059D01*
X20084143Y7466100D01*
X20068083Y7420807D01*
X20052055Y7374838D01*
X20037391Y7346759D01*
X20026989Y7339337D01*
X20023745Y7355338D01*
X20027265Y7381845D01*
X20037901Y7425112D01*
X20049986Y7458106D01*
X20062781Y7503228D01*
X20053912Y7538718D01*
X20031796Y7554978D01*
X19993992Y7553984D01*
X19965103Y7531829D01*
X19956100Y7503142D01*
X19951159Y7473778D01*
X19937995Y7424672D01*
X19919248Y7364696D01*
X19897557Y7302717D01*
X19892318Y7288821D01*
X19878974Y7264970D01*
X19869091Y7261698D01*
X19868688Y7279742D01*
X19875992Y7318179D01*
X19888787Y7368453D01*
X19904856Y7422008D01*
X19921980Y7470290D01*
X19925203Y7478239D01*
X19943241Y7525402D01*
X19947136Y7552947D01*
X19936047Y7568814D01*
X19914552Y7578920D01*
X19869169Y7589207D01*
X19834857Y7589906D01*
X19817418Y7585880D01*
X19804006Y7575478D01*
X19793172Y7554184D01*
X19783468Y7517487D01*
X19773446Y7460872D01*
X19761658Y7379826D01*
X19757302Y7348178D01*
X19751626Y7308832D01*
X19748017Y7291459D01*
X19746221Y7298023D01*
X19745987Y7330486D01*
X19747062Y7390811D01*
X19747778Y7422191D01*
X19751856Y7595661D01*
X19689452Y7588091D01*
X19651124Y7583562D01*
X19590130Y7576494D01*
X19514212Y7567778D01*
X19431112Y7558306D01*
X19412831Y7556232D01*
X19234449Y7535447D01*
X19083047Y7516444D01*
X18955095Y7498582D01*
X18847068Y7481225D01*
X18755438Y7463732D01*
X18676677Y7445464D01*
X18607257Y7425783D01*
X18543652Y7404051D01*
X18517711Y7394113D01*
X18467236Y7374590D01*
X18425319Y7359074D01*
X18406777Y7352754D01*
X18390161Y7345257D01*
X18382127Y7332142D01*
X18383484Y7308638D01*
X18395041Y7269973D01*
X18417607Y7211378D01*
X18439985Y7156913D01*
X18465121Y7095905D01*
X18479801Y7057755D01*
X18485412Y7037103D01*
X18483344Y7028591D01*
X18474987Y7026860D01*
X18473691Y7026853D01*
X18460892Y7039765D01*
X18441733Y7073142D01*
X18425890Y7107184D01*
X18399919Y7166725D01*
X18372860Y7227056D01*
X18361342Y7252064D01*
X18331179Y7316613D01*
X18256132Y7278584D01*
X18206057Y7249917D01*
X18183556Y7227787D01*
X18186866Y7210027D01*
X18195145Y7203584D01*
X18209139Y7186520D01*
X18233066Y7149595D01*
X18262706Y7100083D01*
X18293840Y7045254D01*
X18322246Y6992381D01*
X18343704Y6948735D01*
X18345882Y6943847D01*
X18359231Y6904922D01*
X18357251Y6888734D01*
X18343521Y6893963D01*
X18321623Y6919287D01*
X18295651Y6962396D01*
X18270738Y7007679D01*
X18255636Y7027912D01*
X18247606Y7025957D01*
X18245038Y7015287D01*
X18248383Y6977865D01*
X18263199Y6934578D01*
X18264165Y6932605D01*
X18281874Y6895908D01*
X18286299Y6878946D01*
X18277877Y6874101D01*
X18267530Y6873841D01*
X18251004Y6886578D01*
X18226603Y6920166D01*
X18199281Y6967671D01*
X18196126Y6973810D01*
X18169480Y7030093D01*
X18157841Y7065993D01*
X18159707Y7086897D01*
X18163234Y7091629D01*
X18178099Y7101572D01*
X18181084Y7091118D01*
X18191090Y7073897D01*
X18196386Y7072757D01*
X18210710Y7082949D01*
X18205024Y7110217D01*
X18180552Y7149600D01*
X18176006Y7155411D01*
X18150568Y7180869D01*
X18123083Y7191135D01*
X18088253Y7185201D01*
X18040781Y7162059D01*
X17975370Y7120700D01*
X17968121Y7115848D01*
X17830021Y7006501D01*
X17714104Y6879765D01*
X17628898Y6748937D01*
X17581197Y6653448D01*
X17548845Y6569158D01*
X17527963Y6483462D01*
X17514671Y6383755D01*
X17513859Y6375217D01*
X17503762Y6266774D01*
X17410157Y6266774D01*
X17409385Y6317775D01*
X17416662Y6396203D01*
X17430532Y6507711D01*
X17444326Y6596599D01*
X17460291Y6670761D01*
X17480675Y6738092D01*
X17507725Y6806485D01*
X17543687Y6883834D01*
X17571306Y6939474D01*
X17595240Y6990684D01*
G37*
G36*
X17247711Y3836552D02*
G01*
X17240060Y3828901D01*
X17232410Y3836552D01*
X17240060Y3844202D01*
X17247711Y3836552D01*
G37*
G36*
X18089277Y7554745D02*
G01*
X18081626Y7547094D01*
X18073976Y7554745D01*
X18081626Y7562395D01*
X18089277Y7554745D01*
G37*
G36*
X18130080Y7587897D02*
G01*
X18127980Y7578801D01*
X18119879Y7577696D01*
X18107285Y7583295D01*
X18109679Y7587897D01*
X18127838Y7589728D01*
X18130080Y7587897D01*
G37*
G36*
X20200843Y7768961D02*
G01*
X20193193Y7761311D01*
X20185542Y7768961D01*
X20193193Y7776612D01*
X20200843Y7768961D01*
G37*
G36*
X18012771Y7983178D02*
G01*
X18005120Y7975528D01*
X17997470Y7983178D01*
X18005120Y7990829D01*
X18012771Y7983178D01*
G37*
G36*
X20078434Y8442214D02*
G01*
X20070783Y8434564D01*
X20063132Y8442214D01*
X20070783Y8449865D01*
X20078434Y8442214D01*
G37*
G36*
X20762844Y2552844D02*
G01*
X20758280Y2545890D01*
X20742761Y2544808D01*
X20726434Y2548545D01*
X20733517Y2554052D01*
X20757430Y2555877D01*
X20762844Y2552844D01*
G37*
G36*
X18157933Y2638937D02*
G01*
X18145506Y2610074D01*
X18142831Y2604805D01*
X18124792Y2573823D01*
X18112248Y2559096D01*
X18111443Y2558901D01*
X18112428Y2570672D01*
X18124856Y2599536D01*
X18127530Y2604805D01*
X18145569Y2635787D01*
X18158114Y2650514D01*
X18158918Y2650708D01*
X18157933Y2638937D01*
G37*
G36*
X20865502Y2626987D02*
G01*
X20845480Y2606543D01*
X20843494Y2604805D01*
X20813824Y2582988D01*
X20793186Y2574202D01*
X20793175Y2582094D01*
X20812868Y2601431D01*
X20817067Y2604805D01*
X20847251Y2626026D01*
X20866909Y2635385D01*
X20867375Y2635407D01*
X20865502Y2626987D01*
G37*
G36*
X20899898Y2671427D02*
G01*
X20897048Y2666010D01*
X20882631Y2651397D01*
X20879941Y2650708D01*
X20878897Y2660592D01*
X20881747Y2666010D01*
X20896164Y2680622D01*
X20898854Y2681311D01*
X20899898Y2671427D01*
G37*
G36*
X21088313Y2780769D02*
G01*
X21080663Y2773118D01*
X21073012Y2780769D01*
X21080663Y2788419D01*
X21088313Y2780769D01*
G37*
G36*
X21289206Y2987335D02*
G01*
X21267598Y2932461D01*
X21244606Y2881745D01*
X21223191Y2840680D01*
X21206316Y2814764D01*
X21196942Y2809492D01*
X21195957Y2814293D01*
X21201271Y2844787D01*
X21209546Y2856547D01*
X21223030Y2876659D01*
X21233073Y2907179D01*
X21249903Y2950592D01*
X21272756Y2987335D01*
X21303037Y3025588D01*
X21289206Y2987335D01*
G37*
G36*
X18858956Y3145559D02*
G01*
X18888594Y3123018D01*
X18926285Y3086931D01*
X18930707Y3082288D01*
X18969856Y3043025D01*
X19002210Y3014576D01*
X19021181Y3002698D01*
X19021874Y3002636D01*
X19041742Y2993166D01*
X19074613Y2969022D01*
X19095287Y2951469D01*
X19135504Y2917619D01*
X19171374Y2890682D01*
X19183313Y2883079D01*
X19213916Y2865856D01*
X19183313Y2865491D01*
X19148730Y2873805D01*
X19114458Y2891995D01*
X19083127Y2916515D01*
X19039738Y2953538D01*
X18999699Y2989552D01*
X18952126Y3032947D01*
X18906147Y3073975D01*
X18877289Y3098992D01*
X18851100Y3126104D01*
X18841936Y3146323D01*
X18843457Y3149842D01*
X18858956Y3145559D01*
G37*
G36*
X21317831Y3040889D02*
G01*
X21310181Y3033239D01*
X21302530Y3040889D01*
X21310181Y3048540D01*
X21317831Y3040889D01*
G37*
G36*
X18659282Y4862248D02*
G01*
X18731928Y4862248D01*
X18742534Y4841277D01*
X18769635Y4809589D01*
X18790513Y4789414D01*
X18824220Y4761512D01*
X18855706Y4744534D01*
X18895387Y4734791D01*
X18953681Y4728596D01*
X18964694Y4727743D01*
X19060778Y4714496D01*
X19130017Y4689778D01*
X19174825Y4651099D01*
X19197611Y4595966D01*
X19200788Y4521888D01*
X19197251Y4487461D01*
X19192596Y4438806D01*
X19197143Y4407496D01*
X19214166Y4380852D01*
X19228935Y4364738D01*
X19270097Y4330024D01*
X19314552Y4303763D01*
X19318996Y4301905D01*
X19364007Y4279702D01*
X19411824Y4249865D01*
X19418193Y4245289D01*
X19469458Y4207531D01*
X19458621Y4337619D01*
X19454262Y4408953D01*
X19455598Y4453911D01*
X19462819Y4476218D01*
X19465754Y4478812D01*
X19480432Y4484555D01*
X19491343Y4477808D01*
X19499967Y4454229D01*
X19507781Y4409472D01*
X19516265Y4339195D01*
X19517676Y4326282D01*
X19524681Y4263949D01*
X19530656Y4214970D01*
X19534772Y4185936D01*
X19535994Y4180829D01*
X19544621Y4192806D01*
X19565055Y4224434D01*
X19593138Y4269256D01*
X19597594Y4276461D01*
X19627702Y4328128D01*
X19646317Y4371100D01*
X19656978Y4417261D01*
X19663222Y4478492D01*
X19664799Y4502154D01*
X19679471Y4610358D01*
X19709706Y4693984D01*
X19757673Y4755971D01*
X19825542Y4799255D01*
X19902470Y4823987D01*
X19961598Y4843843D01*
X20017278Y4873539D01*
X20062237Y4907939D01*
X20089203Y4941907D01*
X20093735Y4959070D01*
X20080445Y4972813D01*
X20046928Y4988510D01*
X20028705Y4994556D01*
X19987022Y5001837D01*
X19920609Y5007477D01*
X19835292Y5011474D01*
X19736900Y5013828D01*
X19631260Y5014535D01*
X19524199Y5013594D01*
X19421546Y5011004D01*
X19329127Y5006762D01*
X19252771Y5000867D01*
X19206265Y4994804D01*
X19052621Y4966497D01*
X18928757Y4940155D01*
X18834835Y4915823D01*
X18771017Y4893547D01*
X18737464Y4873372D01*
X18731928Y4862248D01*
X18659282Y4862248D01*
X18652260Y4938073D01*
X18672884Y5037877D01*
X18699688Y5103602D01*
X18733696Y5167101D01*
X18763841Y5207986D01*
X18788018Y5223816D01*
X18799660Y5219376D01*
X18795913Y5203965D01*
X18781287Y5168294D01*
X18758723Y5119409D01*
X18753097Y5107807D01*
X18719961Y5035521D01*
X18703459Y4987958D01*
X18703350Y4964307D01*
X18709736Y4961190D01*
X18728006Y4967446D01*
X18759465Y4982207D01*
X18839539Y5016284D01*
X18939074Y5048643D01*
X19046957Y5076168D01*
X19152079Y5095743D01*
X19175663Y5098912D01*
X19242909Y5104138D01*
X19331372Y5106617D01*
X19434632Y5106595D01*
X19546269Y5104318D01*
X19659865Y5100032D01*
X19769000Y5093983D01*
X19867255Y5086418D01*
X19948211Y5077582D01*
X20005448Y5067722D01*
X20008437Y5066990D01*
X20051319Y5057803D01*
X20080222Y5054619D01*
X20086382Y5055846D01*
X20083217Y5071880D01*
X20068207Y5107637D01*
X20044823Y5156350D01*
X20016540Y5211248D01*
X19986830Y5265565D01*
X19959167Y5312531D01*
X19939475Y5342136D01*
X19918939Y5377398D01*
X19916116Y5398740D01*
X19929066Y5401380D01*
X19955283Y5381123D01*
X19976786Y5353036D01*
X20006134Y5306855D01*
X20039634Y5249406D01*
X20073590Y5187517D01*
X20104307Y5128013D01*
X20128089Y5077723D01*
X20141241Y5043471D01*
X20142700Y5034892D01*
X20152743Y5003568D01*
X20163568Y4990982D01*
X20173912Y4965112D01*
X20162609Y4928577D01*
X20134234Y4886490D01*
X20093361Y4843964D01*
X20044565Y4806111D01*
X19992421Y4778046D01*
X19964834Y4768849D01*
X19926796Y4745422D01*
X19901952Y4709791D01*
X19878201Y4672951D01*
X19840279Y4627322D01*
X19804969Y4591133D01*
X19764532Y4550902D01*
X19741221Y4518456D01*
X19728931Y4481655D01*
X19721556Y4428364D01*
X19721149Y4424493D01*
X19704884Y4340152D01*
X19676995Y4275331D01*
X19675649Y4273234D01*
X19631892Y4200215D01*
X19600242Y4135061D01*
X19582767Y4082896D01*
X19581539Y4048840D01*
X19583332Y4044807D01*
X19610292Y4019508D01*
X19659587Y3990518D01*
X19723736Y3961032D01*
X19795257Y3934244D01*
X19866668Y3913351D01*
X19913480Y3903804D01*
X19985667Y3895876D01*
X20061760Y3892625D01*
X20116687Y3894240D01*
X20169019Y3897271D01*
X20210151Y3897141D01*
X20227620Y3894779D01*
X20244968Y3875369D01*
X20244169Y3846870D01*
X20227301Y3823165D01*
X20216145Y3818034D01*
X20196736Y3807163D01*
X20187647Y3782303D01*
X20185542Y3739646D01*
X20171520Y3639674D01*
X20132304Y3537371D01*
X20072170Y3438654D01*
X19995396Y3349439D01*
X19906257Y3275643D01*
X19813559Y3225017D01*
X19771270Y3213758D01*
X19708666Y3204194D01*
X19636022Y3197177D01*
X19563614Y3193555D01*
X19501716Y3194179D01*
X19474036Y3196924D01*
X19432475Y3208585D01*
X19373556Y3231268D01*
X19306480Y3260791D01*
X19240448Y3292974D01*
X19239748Y3293359D01*
X19451084Y3293359D01*
X19464258Y3282601D01*
X19493163Y3279133D01*
X19520380Y3280993D01*
X19519418Y3286418D01*
X19511757Y3290016D01*
X19579078Y3290016D01*
X19584109Y3280832D01*
X19607561Y3278631D01*
X19638173Y3282935D01*
X19664686Y3293269D01*
X19665301Y3293668D01*
X19669282Y3298230D01*
X19726506Y3298230D01*
X19738347Y3294025D01*
X19766516Y3299974D01*
X19799985Y3312517D01*
X19827724Y3328094D01*
X19833068Y3332619D01*
X19844452Y3349846D01*
X19839244Y3354564D01*
X19815680Y3348386D01*
X19781688Y3333689D01*
X19748790Y3316233D01*
X19728508Y3301774D01*
X19726506Y3298230D01*
X19669282Y3298230D01*
X19673845Y3303459D01*
X19656244Y3306240D01*
X19637361Y3305391D01*
X19600549Y3299801D01*
X19579682Y3290818D01*
X19579078Y3290016D01*
X19511757Y3290016D01*
X19504639Y3293359D01*
X19468886Y3306075D01*
X19453298Y3303086D01*
X19451084Y3293359D01*
X19239748Y3293359D01*
X19205255Y3312318D01*
X19381215Y3312318D01*
X19396255Y3309868D01*
X19416101Y3312681D01*
X19416338Y3317905D01*
X19395859Y3321557D01*
X19387011Y3319113D01*
X19381215Y3312318D01*
X19205255Y3312318D01*
X19184662Y3323637D01*
X19159695Y3339737D01*
X19114603Y3384428D01*
X19070437Y3449847D01*
X19032634Y3526454D01*
X19006628Y3604707D01*
X19005197Y3610859D01*
X18991702Y3659075D01*
X19053253Y3659075D01*
X19060544Y3622668D01*
X19078832Y3573368D01*
X19102738Y3524133D01*
X19121609Y3494394D01*
X19159923Y3448688D01*
X19197678Y3411545D01*
X19228070Y3389244D01*
X19239516Y3385580D01*
X19241362Y3394806D01*
X19223977Y3417978D01*
X19205352Y3436672D01*
X19138923Y3519016D01*
X19097343Y3618676D01*
X19091904Y3641461D01*
X19079734Y3676869D01*
X19065884Y3690499D01*
X19055578Y3679972D01*
X19053253Y3659075D01*
X18991702Y3659075D01*
X18991337Y3660378D01*
X18976154Y3685182D01*
X18959011Y3691190D01*
X18936395Y3701794D01*
X18933160Y3717546D01*
X19141575Y3717546D01*
X19148638Y3644033D01*
X19161810Y3576490D01*
X19190110Y3522468D01*
X19238883Y3474161D01*
X19289079Y3438919D01*
X19410156Y3374027D01*
X19524222Y3338827D01*
X19631535Y3333281D01*
X19732351Y3357353D01*
X19764759Y3372056D01*
X19800648Y3395985D01*
X19916414Y3395985D01*
X19917746Y3387043D01*
X19937017Y3400150D01*
X19972738Y3434895D01*
X20028539Y3505306D01*
X20069816Y3581805D01*
X20093799Y3657125D01*
X20097719Y3723994D01*
X20092368Y3748885D01*
X20078749Y3780843D01*
X20066615Y3786688D01*
X20054904Y3765148D01*
X20042556Y3714947D01*
X20036326Y3681638D01*
X19999681Y3551101D01*
X19936085Y3429847D01*
X19934374Y3427245D01*
X19916414Y3395985D01*
X19800648Y3395985D01*
X19857472Y3433872D01*
X19923814Y3511038D01*
X19963553Y3603198D01*
X19976277Y3694367D01*
X19978976Y3790469D01*
X19894819Y3800494D01*
X19830293Y3813937D01*
X19761159Y3836802D01*
X19730406Y3850313D01*
X19685589Y3871740D01*
X19652308Y3886187D01*
X19640043Y3890106D01*
X19622743Y3898609D01*
X19591099Y3920013D01*
X19576334Y3930990D01*
X19522732Y3971875D01*
X19532902Y3911864D01*
X19540700Y3853620D01*
X19546983Y3783420D01*
X19551566Y3707706D01*
X19554264Y3632920D01*
X19554891Y3565503D01*
X19553261Y3511898D01*
X19549190Y3478546D01*
X19545585Y3470988D01*
X19535113Y3469001D01*
X19526867Y3480056D01*
X19520213Y3507802D01*
X19514515Y3555884D01*
X19509139Y3627953D01*
X19504579Y3706492D01*
X19499639Y3777510D01*
X19493416Y3837428D01*
X19486741Y3879541D01*
X19480999Y3896715D01*
X19460564Y3896925D01*
X19424708Y3876713D01*
X19409283Y3865088D01*
X19365523Y3834803D01*
X19306646Y3799841D01*
X19246601Y3768374D01*
X19141575Y3717546D01*
X18933160Y3717546D01*
X18930843Y3728829D01*
X18935934Y3754297D01*
X18956399Y3770772D01*
X18995873Y3783739D01*
X19049464Y3801019D01*
X19110814Y3825030D01*
X19137410Y3836852D01*
X19192870Y3861100D01*
X19247323Y3882205D01*
X19269333Y3889589D01*
X19320793Y3914223D01*
X19374328Y3953827D01*
X19421219Y4000418D01*
X19452748Y4046011D01*
X19459522Y4063757D01*
X19462615Y4094463D01*
X19450059Y4120447D01*
X19418591Y4151026D01*
X19373218Y4184562D01*
X19316972Y4218931D01*
X19290422Y4232857D01*
X19206114Y4283860D01*
X19149995Y4341799D01*
X19119989Y4409088D01*
X19115127Y4436503D01*
X19107746Y4481137D01*
X19094997Y4504798D01*
X19070598Y4517102D01*
X19060664Y4519862D01*
X19023724Y4537618D01*
X18979537Y4570063D01*
X18954275Y4593470D01*
X18902872Y4637434D01*
X18859739Y4654742D01*
X18852406Y4655166D01*
X18813286Y4664935D01*
X18770986Y4688956D01*
X18764553Y4694065D01*
X18698035Y4766542D01*
X18660624Y4847753D01*
X18659282Y4862248D01*
G37*
G36*
X20597841Y3749085D02*
G01*
X20583299Y3720464D01*
X20555912Y3682109D01*
X20538784Y3661617D01*
X20507997Y3622340D01*
X20489286Y3590285D01*
X20486375Y3575541D01*
X20481672Y3553245D01*
X20461197Y3521078D01*
X20454702Y3513307D01*
X20429768Y3486571D01*
X20418602Y3481796D01*
X20415626Y3497234D01*
X20415544Y3501025D01*
X20424167Y3531591D01*
X20446569Y3572795D01*
X20460538Y3592832D01*
X20487371Y3632688D01*
X20503927Y3665723D01*
X20506442Y3676314D01*
X20520163Y3706898D01*
X20556243Y3741634D01*
X20580211Y3758091D01*
X20597492Y3763214D01*
X20597841Y3749085D01*
G37*
G36*
X18337922Y3914350D02*
G01*
X18384027Y3886077D01*
X18448605Y3853586D01*
X18520900Y3821725D01*
X18590156Y3795342D01*
X18628367Y3783449D01*
X18675176Y3767789D01*
X18694501Y3754774D01*
X18689416Y3745411D01*
X18662997Y3740706D01*
X18618318Y3741665D01*
X18558453Y3749296D01*
X18536417Y3753346D01*
X18484875Y3767854D01*
X18430968Y3789875D01*
X18381749Y3815530D01*
X18344274Y3840943D01*
X18325598Y3862237D01*
X18325195Y3869413D01*
X18323388Y3892829D01*
X18318127Y3898170D01*
X18303909Y3919379D01*
X18303494Y3923478D01*
X18313673Y3927488D01*
X18337922Y3914350D01*
G37*
G36*
X20593574Y3992114D02*
G01*
X20595406Y3973955D01*
X20593574Y3971712D01*
X20584478Y3973813D01*
X20583373Y3981913D01*
X20588972Y3994508D01*
X20593574Y3992114D01*
G37*
G36*
X18420803Y4038018D02*
G01*
X18418703Y4028921D01*
X18410602Y4027817D01*
X18398008Y4033415D01*
X18400402Y4038018D01*
X18418561Y4039849D01*
X18420803Y4038018D01*
G37*
G36*
X17924518Y5263480D02*
G01*
X17924079Y5252803D01*
X17904639Y5232141D01*
X17873574Y5207027D01*
X17838259Y5182994D01*
X17806070Y5165577D01*
X17786734Y5160106D01*
X17772399Y5164384D01*
X17782184Y5181763D01*
X17783100Y5182873D01*
X17812579Y5209837D01*
X17852203Y5236308D01*
X17891594Y5256369D01*
X17920373Y5264104D01*
X17924518Y5263480D01*
G37*
G36*
X19128019Y5289553D02*
G01*
X19124967Y5272044D01*
X19102982Y5256374D01*
X19074088Y5239530D01*
X19064963Y5230078D01*
X19055379Y5225756D01*
X19053487Y5237377D01*
X19065444Y5271175D01*
X19093710Y5294365D01*
X19109867Y5297817D01*
X19128019Y5289553D01*
G37*
G36*
X19563774Y5334991D02*
G01*
X19606554Y5322913D01*
X19637674Y5306636D01*
X19657537Y5288819D01*
X19653271Y5283271D01*
X19629424Y5291577D01*
X19615686Y5298979D01*
X19584323Y5310902D01*
X19569782Y5312002D01*
X19529860Y5310711D01*
X19506140Y5317467D01*
X19504156Y5327639D01*
X19525874Y5337158D01*
X19563774Y5334991D01*
G37*
G36*
X17683193Y6301277D02*
G01*
X17722048Y6301277D01*
X17726280Y6289135D01*
X17740779Y6299362D01*
X17768248Y6333888D01*
X17768797Y6334634D01*
X17808091Y6377827D01*
X17861108Y6423456D01*
X17902204Y6452407D01*
X17958902Y6484493D01*
X18005929Y6501051D01*
X18056843Y6506476D01*
X18069362Y6506612D01*
X18131662Y6501344D01*
X18194204Y6488070D01*
X18215202Y6481071D01*
X18263864Y6457470D01*
X18318532Y6424265D01*
X18369240Y6388202D01*
X18406025Y6356028D01*
X18414193Y6346345D01*
X18424500Y6339333D01*
X18425669Y6343145D01*
X18414837Y6369920D01*
X18386256Y6407322D01*
X18346871Y6447902D01*
X18303626Y6484208D01*
X18278685Y6500859D01*
X18201099Y6532815D01*
X18110766Y6549197D01*
X18019199Y6549226D01*
X17937914Y6532123D01*
X17920576Y6525092D01*
X17860321Y6489066D01*
X17804270Y6440788D01*
X17758577Y6387195D01*
X17729396Y6335227D01*
X17722048Y6301277D01*
X17683193Y6301277D01*
X17690623Y6350493D01*
X17706319Y6400245D01*
X17729481Y6440155D01*
X17761656Y6475406D01*
X17796759Y6505190D01*
X17883536Y6563965D01*
X17966634Y6597414D01*
X18054369Y6608366D01*
X18095650Y6606858D01*
X18207690Y6593166D01*
X18295311Y6569863D01*
X18363775Y6534779D01*
X18418345Y6485748D01*
X18432786Y6468006D01*
X18492982Y6364616D01*
X18528214Y6248066D01*
X18537895Y6123696D01*
X18521435Y5996848D01*
X18494214Y5909865D01*
X18468029Y5849654D01*
X18439041Y5799519D01*
X18400776Y5750141D01*
X18346761Y5692200D01*
X18334161Y5679432D01*
X18272836Y5621820D01*
X18212599Y5572518D01*
X18161419Y5537872D01*
X18146823Y5530245D01*
X18062267Y5503041D01*
X17977139Y5496609D01*
X17900148Y5510909D01*
X17858196Y5531568D01*
X17806998Y5577428D01*
X17756256Y5642210D01*
X17713473Y5715056D01*
X17688310Y5777397D01*
X17679772Y5826447D01*
X17674434Y5904224D01*
X17672382Y6009011D01*
X17672845Y6090349D01*
X17672936Y6094209D01*
X17725380Y6094209D01*
X17726193Y6023070D01*
X17731071Y5945885D01*
X17739560Y5870678D01*
X17751207Y5805473D01*
X17761367Y5769009D01*
X17796529Y5690668D01*
X17839810Y5627546D01*
X17886608Y5585619D01*
X17911655Y5573916D01*
X17987697Y5565274D01*
X18077720Y5579389D01*
X18176310Y5615342D01*
X18187757Y5620740D01*
X18266526Y5669658D01*
X18337079Y5738020D01*
X18403365Y5830118D01*
X18441721Y5896674D01*
X18463978Y5947593D01*
X18479584Y6001653D01*
X18487480Y6051385D01*
X18486606Y6089322D01*
X18475905Y6107995D01*
X18471807Y6108781D01*
X18460699Y6095578D01*
X18456494Y6066702D01*
X18446950Y6015624D01*
X18421869Y5952152D01*
X18386540Y5886313D01*
X18346252Y5828135D01*
X18311447Y5791692D01*
X18260933Y5757991D01*
X18204736Y5731468D01*
X18189309Y5726411D01*
X18148467Y5717170D01*
X18115897Y5718415D01*
X18078234Y5732080D01*
X18048021Y5746847D01*
X17964933Y5801917D01*
X17900077Y5871359D01*
X17859610Y5948572D01*
X17859456Y5949037D01*
X17848404Y6012341D01*
X17848827Y6088941D01*
X17859652Y6164719D01*
X17869728Y6195130D01*
X18058675Y6195130D01*
X18064282Y6154310D01*
X18077769Y6125759D01*
X18077801Y6125726D01*
X18106154Y6114360D01*
X18152405Y6112071D01*
X18205617Y6117686D01*
X18254853Y6130031D01*
X18289177Y6147934D01*
X18289772Y6148463D01*
X18316423Y6187290D01*
X18316246Y6225956D01*
X18292652Y6259603D01*
X18249053Y6283369D01*
X18188861Y6292395D01*
X18188735Y6292395D01*
X18122247Y6282850D01*
X18078735Y6254876D01*
X18059525Y6209466D01*
X18058675Y6195130D01*
X17869728Y6195130D01*
X17879810Y6225561D01*
X17880547Y6227006D01*
X17917931Y6280649D01*
X17972406Y6336894D01*
X18033324Y6385417D01*
X18062450Y6403329D01*
X18111751Y6430106D01*
X18052125Y6430106D01*
X17986306Y6416735D01*
X17915217Y6379846D01*
X17845097Y6324281D01*
X17782183Y6254877D01*
X17737764Y6186253D01*
X17729085Y6151277D01*
X17725380Y6094209D01*
X17672936Y6094209D01*
X17675434Y6200729D01*
X17680844Y6285715D01*
X17683193Y6301277D01*
G37*
G36*
X18698377Y5895963D02*
G01*
X18721047Y5859225D01*
X18741183Y5807101D01*
X18755325Y5747042D01*
X18756803Y5737179D01*
X18760278Y5686528D01*
X18754879Y5663777D01*
X18743479Y5668570D01*
X18728954Y5700549D01*
X18717768Y5742024D01*
X18703531Y5795556D01*
X18687623Y5839765D01*
X18677050Y5859687D01*
X18657927Y5892009D01*
X18663160Y5907676D01*
X18676630Y5909865D01*
X18698377Y5895963D01*
G37*
G36*
X19703061Y5932998D02*
G01*
X19704332Y5904129D01*
X19702464Y5853116D01*
X19696929Y5794584D01*
X19688400Y5757542D01*
X19679014Y5743886D01*
X19670908Y5755510D01*
X19666218Y5794307D01*
X19665788Y5820608D01*
X19669813Y5872332D01*
X19679558Y5914466D01*
X19686873Y5929364D01*
X19697543Y5939936D01*
X19703061Y5932998D01*
G37*
G36*
X20150582Y6678692D02*
G01*
X20240707Y6678692D01*
X20256585Y6684217D01*
X20292009Y6711125D01*
X20329449Y6743850D01*
X20394760Y6795254D01*
X20461556Y6829539D01*
X20537491Y6848988D01*
X20630216Y6855884D01*
X20701354Y6854785D01*
X20814855Y6843976D01*
X20911859Y6821826D01*
X20988534Y6789722D01*
X21041051Y6749052D01*
X21057068Y6725907D01*
X21073087Y6699444D01*
X21081944Y6699413D01*
X21084892Y6708966D01*
X21080820Y6735050D01*
X21064873Y6778405D01*
X21040467Y6829792D01*
X21039632Y6831376D01*
X21002544Y6893183D01*
X20963254Y6936733D01*
X20915653Y6964921D01*
X20853632Y6980645D01*
X20771084Y6986799D01*
X20711135Y6987123D01*
X20637145Y6985585D01*
X20585279Y6981601D01*
X20547074Y6973616D01*
X20514064Y6960071D01*
X20489268Y6946301D01*
X20407592Y6885479D01*
X20323666Y6799459D01*
X20270207Y6732305D01*
X20245029Y6694679D01*
X20240707Y6678692D01*
X20150582Y6678692D01*
X20183320Y6742102D01*
X20243104Y6823615D01*
X20315630Y6901935D01*
X20393411Y6968975D01*
X20468614Y7016476D01*
X20542639Y7043061D01*
X20631465Y7059764D01*
X20727839Y7066799D01*
X20824508Y7064380D01*
X20914219Y7052721D01*
X20989719Y7032036D01*
X21043757Y7002537D01*
X21047354Y6999427D01*
X21074784Y6968059D01*
X21097316Y6931504D01*
X21109733Y6899684D01*
X21108261Y6883588D01*
X21107904Y6865027D01*
X21118446Y6830053D01*
X21123951Y6816617D01*
X21145074Y6760606D01*
X21162535Y6702044D01*
X21163545Y6697877D01*
X21178560Y6643055D01*
X21197873Y6582965D01*
X21202922Y6568802D01*
X21218570Y6484607D01*
X21210581Y6390929D01*
X21182036Y6293206D01*
X21136016Y6196873D01*
X21075603Y6107366D01*
X21003879Y6030123D01*
X20923925Y5970580D01*
X20843998Y5935600D01*
X20779583Y5923850D01*
X20693469Y5917552D01*
X20594051Y5916613D01*
X20489727Y5920937D01*
X20388892Y5930433D01*
X20317381Y5941497D01*
X20225388Y5961434D01*
X20159559Y5982128D01*
X20115484Y6005634D01*
X20088752Y6034010D01*
X20079930Y6052201D01*
X20073241Y6082247D01*
X20066032Y6133680D01*
X20062174Y6171296D01*
X20124337Y6171296D01*
X20133268Y6106586D01*
X20157425Y6055187D01*
X20192854Y6023432D01*
X20221080Y6016298D01*
X20255100Y6011866D01*
X20304059Y6001360D01*
X20330904Y5994379D01*
X20390591Y5983260D01*
X20469609Y5976017D01*
X20558771Y5972703D01*
X20648889Y5973371D01*
X20730778Y5978074D01*
X20795250Y5986865D01*
X20814285Y5991593D01*
X20912131Y6036373D01*
X20998619Y6104751D01*
X21069425Y6190947D01*
X21120225Y6289183D01*
X21146694Y6393680D01*
X21149518Y6439581D01*
X21146716Y6492994D01*
X21134678Y6530964D01*
X21107954Y6568416D01*
X21098515Y6579249D01*
X21066640Y6618143D01*
X21043635Y6651673D01*
X21037966Y6662993D01*
X21017132Y6685661D01*
X20985685Y6699610D01*
X20946920Y6712545D01*
X20896178Y6733919D01*
X20869186Y6746777D01*
X20823999Y6766267D01*
X20777927Y6777725D01*
X20720215Y6783105D01*
X20662620Y6784330D01*
X20572619Y6781401D01*
X20502236Y6768906D01*
X20441297Y6742872D01*
X20379631Y6699327D01*
X20327504Y6653453D01*
X20237409Y6549797D01*
X20172937Y6430266D01*
X20135014Y6297059D01*
X20124337Y6171296D01*
X20062174Y6171296D01*
X20059504Y6197334D01*
X20057329Y6224484D01*
X20054695Y6302107D01*
X20059833Y6375573D01*
X20074222Y6452437D01*
X20099344Y6540254D01*
X20136680Y6646578D01*
X20143763Y6665485D01*
X20150582Y6678692D01*
G37*
G36*
X19736707Y5981271D02*
G01*
X19734606Y5972174D01*
X19726506Y5971070D01*
X19713911Y5976668D01*
X19716305Y5981271D01*
X19734464Y5983102D01*
X19736707Y5981271D01*
G37*
G36*
X18772731Y6715729D02*
G01*
X18774562Y6697570D01*
X18772731Y6695327D01*
X18763634Y6697427D01*
X18762530Y6705528D01*
X18768129Y6718122D01*
X18772731Y6715729D01*
G37*
G36*
X18788379Y6839413D02*
G01*
X18790758Y6800606D01*
X18788379Y6785859D01*
X18783944Y6781097D01*
X18781529Y6802255D01*
X18781381Y6812636D01*
X18782976Y6840474D01*
X18786948Y6843755D01*
X18788379Y6839413D01*
G37*
G36*
X19487854Y7128074D02*
G01*
X19518120Y7089282D01*
X19551791Y7037974D01*
X19584391Y6981793D01*
X19611449Y6928379D01*
X19628488Y6885372D01*
X19631757Y6862721D01*
X19624586Y6859699D01*
X19612155Y6881235D01*
X19606931Y6894559D01*
X19590809Y6930214D01*
X19575806Y6949325D01*
X19572761Y6950347D01*
X19558667Y6962892D01*
X19537182Y6995217D01*
X19520488Y7025770D01*
X19496559Y7069393D01*
X19475854Y7100996D01*
X19466676Y7110830D01*
X19453090Y7127706D01*
X19453259Y7143990D01*
X19465466Y7146712D01*
X19487854Y7128074D01*
G37*
G36*
X18665622Y6914644D02*
G01*
X18667454Y6896485D01*
X18665622Y6894243D01*
X18656526Y6896343D01*
X18655422Y6904443D01*
X18661020Y6917038D01*
X18665622Y6914644D01*
G37*
G36*
X18650321Y6960548D02*
G01*
X18652152Y6942389D01*
X18650321Y6940146D01*
X18641225Y6942247D01*
X18640120Y6950347D01*
X18645719Y6962942D01*
X18650321Y6960548D01*
G37*
G36*
X18818280Y7040669D02*
G01*
X18819037Y7038038D01*
X18821277Y7004707D01*
X18818470Y6992134D01*
X18813447Y6991625D01*
X18811396Y7015579D01*
X18811417Y7019202D01*
X18813623Y7042934D01*
X18818280Y7040669D01*
G37*
G36*
X18624819Y7019202D02*
G01*
X18617169Y7011552D01*
X18609518Y7019202D01*
X18617169Y7026853D01*
X18624819Y7019202D01*
G37*
G36*
X20195743Y7128861D02*
G01*
X20197574Y7110702D01*
X20195743Y7108459D01*
X20186646Y7110560D01*
X20185542Y7118660D01*
X20191141Y7131255D01*
X20195743Y7128861D01*
G37*
G36*
X19168420Y7284016D02*
G01*
X19169751Y7264669D01*
X19161601Y7243386D01*
X19147901Y7203835D01*
X19145060Y7180871D01*
X19136288Y7155516D01*
X19123383Y7149263D01*
X19099769Y7137909D01*
X19095370Y7130254D01*
X19088020Y7129199D01*
X19078736Y7152359D01*
X19078049Y7155011D01*
X19074253Y7186524D01*
X19077974Y7208399D01*
X19086377Y7213230D01*
X19094876Y7198992D01*
X19109345Y7180546D01*
X19123868Y7187797D01*
X19129993Y7214293D01*
X19135579Y7249182D01*
X19148386Y7276455D01*
X19163216Y7286680D01*
X19168420Y7284016D01*
G37*
G36*
X20229502Y7241070D02*
G01*
X20262048Y7241070D01*
X20267647Y7228475D01*
X20272249Y7230869D01*
X20274080Y7249028D01*
X20272249Y7251271D01*
X20263152Y7249170D01*
X20262048Y7241070D01*
X20229502Y7241070D01*
X20233843Y7260638D01*
X20249954Y7306799D01*
X20254260Y7315590D01*
X20276124Y7355829D01*
X20276737Y7313751D01*
X20284628Y7280253D01*
X20300301Y7271672D01*
X20320036Y7266365D01*
X20317217Y7248950D01*
X20290899Y7217188D01*
X20267701Y7194343D01*
X20212150Y7141612D01*
X20222273Y7208481D01*
X20229502Y7241070D01*
G37*
G36*
X19659521Y7347725D02*
G01*
X19668304Y7319210D01*
X19668687Y7316746D01*
X19669581Y7278618D01*
X19660215Y7260848D01*
X19644484Y7266988D01*
X19635877Y7290907D01*
X19636095Y7324637D01*
X19644392Y7350940D01*
X19648286Y7354770D01*
X19659521Y7347725D01*
G37*
G36*
X20365126Y7338818D02*
G01*
X20353855Y7317576D01*
X20341972Y7303237D01*
X20338840Y7317019D01*
X20338788Y7320498D01*
X20346585Y7348164D01*
X20353855Y7355829D01*
X20367372Y7357064D01*
X20365126Y7338818D01*
G37*
G36*
X19285576Y3740409D02*
G01*
X19297267Y3720933D01*
X19295777Y3714397D01*
X19279790Y3714871D01*
X19277671Y3716692D01*
X19267582Y3740248D01*
X19267470Y3742704D01*
X19275233Y3748394D01*
X19285576Y3740409D01*
G37*
G36*
X20392261Y6537779D02*
G01*
X20522889Y6537779D01*
X20534759Y6498041D01*
X20571313Y6463604D01*
X20583373Y6456907D01*
X20648689Y6433430D01*
X20699339Y6436010D01*
X20727642Y6454151D01*
X20749146Y6488552D01*
X20742899Y6524471D01*
X20714129Y6560862D01*
X20673600Y6586361D01*
X20623406Y6598460D01*
X20575052Y6596149D01*
X20540043Y6578418D01*
X20538169Y6576310D01*
X20522889Y6537779D01*
X20392261Y6537779D01*
X20394857Y6548319D01*
X20435600Y6636676D01*
X20488397Y6697795D01*
X20526818Y6721610D01*
X20618274Y6747310D01*
X20711191Y6744958D01*
X20799384Y6716131D01*
X20876666Y6662409D01*
X20911897Y6623325D01*
X20953015Y6560294D01*
X20972274Y6501928D01*
X20972564Y6435812D01*
X20965746Y6391967D01*
X20938058Y6286889D01*
X20896771Y6202547D01*
X20836883Y6130308D01*
X20790699Y6089788D01*
X20740947Y6051731D01*
X20703943Y6029795D01*
X20669663Y6019657D01*
X20628081Y6016996D01*
X20621810Y6016974D01*
X20577874Y6018702D01*
X20546087Y6027337D01*
X20515859Y6048051D01*
X20476603Y6086019D01*
X20473051Y6089654D01*
X20406785Y6173016D01*
X20369253Y6260337D01*
X20358750Y6357122D01*
X20366566Y6433444D01*
X20392261Y6537779D01*
G37*
D12*
%TO.C,C7*%
X17928000Y11174252D02*
X17928000Y9751748D01*
X16108000Y11174252D02*
X16108000Y9751748D01*
%TO.C,R13*%
X79528936Y14705000D02*
X79983064Y14705000D01*
X79528936Y13235000D02*
X79983064Y13235000D01*
%TO.C,R7*%
X23649000Y5257436D02*
X23649000Y5711564D01*
X25119000Y5257436D02*
X25119000Y5711564D01*
%TO.C,R14*%
X59716936Y10895000D02*
X60171064Y10895000D01*
X59716936Y9425000D02*
X60171064Y9425000D01*
%TO.C,R8*%
X25119000Y9474564D02*
X25119000Y9020436D01*
X23649000Y9474564D02*
X23649000Y9020436D01*
D13*
%TO.C,U1*%
X93120000Y12560000D02*
X93120000Y8580000D01*
X88370000Y12560000D02*
X93120000Y12560000D01*
X87220000Y11410000D02*
X87220000Y8580000D01*
X87220000Y6240000D02*
X87220000Y3810000D01*
X93120000Y3810000D02*
X93120000Y6240000D01*
X93120000Y3810000D02*
X91570000Y2260000D01*
X87220000Y3810000D02*
X88770000Y2260000D01*
X88770000Y2260000D02*
X91570000Y2260000D01*
D12*
%TO.C,R3*%
X64289000Y5257436D02*
X64289000Y5711564D01*
X65759000Y5257436D02*
X65759000Y5711564D01*
%TO.C,R5*%
X43969000Y5257436D02*
X43969000Y5711564D01*
X45439000Y5257436D02*
X45439000Y5711564D01*
%TO.C,R12*%
X50318936Y31215000D02*
X50773064Y31215000D01*
X50318936Y29745000D02*
X50773064Y29745000D01*
%TO.C,R17*%
X18261064Y13235000D02*
X17806936Y13235000D01*
X18261064Y14705000D02*
X17806936Y14705000D01*
%TO.C,R2*%
X86079000Y9474564D02*
X86079000Y9020436D01*
X84609000Y9474564D02*
X84609000Y9020436D01*
%TO.C,C5*%
X41804000Y9347252D02*
X41804000Y7924748D01*
X39984000Y9347252D02*
X39984000Y7924748D01*
D13*
%TO.C,U5*%
X11840000Y12560000D02*
X11840000Y8580000D01*
X7090000Y12560000D02*
X11840000Y12560000D01*
X5940000Y11410000D02*
X5940000Y8580000D01*
X5940000Y6240000D02*
X5940000Y3810000D01*
X11840000Y3810000D02*
X11840000Y6240000D01*
X11840000Y3810000D02*
X10290000Y2260000D01*
X5940000Y3810000D02*
X7490000Y2260000D01*
X7490000Y2260000D02*
X10290000Y2260000D01*
D12*
%TO.C,C6*%
X36470000Y8839252D02*
X36470000Y7416748D01*
X34650000Y8839252D02*
X34650000Y7416748D01*
%TO.C,R1*%
X84609000Y5257436D02*
X84609000Y5711564D01*
X86079000Y5257436D02*
X86079000Y5711564D01*
D13*
%TO.C,U4*%
X32160000Y12560000D02*
X32160000Y8580000D01*
X27410000Y12560000D02*
X32160000Y12560000D01*
X26260000Y11410000D02*
X26260000Y8580000D01*
X26260000Y6240000D02*
X26260000Y3810000D01*
X32160000Y3810000D02*
X32160000Y6240000D01*
X32160000Y3810000D02*
X30610000Y2260000D01*
X26260000Y3810000D02*
X27810000Y2260000D01*
X27810000Y2260000D02*
X30610000Y2260000D01*
%TO.C,U2*%
X72800000Y12560000D02*
X72800000Y8580000D01*
X68050000Y12560000D02*
X72800000Y12560000D01*
X66900000Y11410000D02*
X66900000Y8580000D01*
X66900000Y6240000D02*
X66900000Y3810000D01*
X72800000Y3810000D02*
X72800000Y6240000D01*
X72800000Y3810000D02*
X71250000Y2260000D01*
X66900000Y3810000D02*
X68450000Y2260000D01*
X68450000Y2260000D02*
X71250000Y2260000D01*
D12*
%TO.C,R16*%
X36549064Y11203000D02*
X36094936Y11203000D01*
X36549064Y12673000D02*
X36094936Y12673000D01*
%TO.C,C4*%
X60092000Y7315252D02*
X60092000Y5892748D01*
X58272000Y7315252D02*
X58272000Y5892748D01*
%TO.C,R11*%
X50318936Y28929000D02*
X50773064Y28929000D01*
X50318936Y27459000D02*
X50773064Y27459000D01*
%TO.C,R15*%
X48995000Y15316564D02*
X48995000Y14862436D01*
X47525000Y15316564D02*
X47525000Y14862436D01*
%TO.C,C3*%
X81682000Y11125252D02*
X81682000Y9702748D01*
X79862000Y11125252D02*
X79862000Y9702748D01*
%TO.C,R9*%
X3329000Y5360936D02*
X3329000Y5815064D01*
X4799000Y5360936D02*
X4799000Y5815064D01*
%TO.C,C1*%
X43436000Y27985767D02*
X43436000Y27693233D01*
X42416000Y27985767D02*
X42416000Y27693233D01*
D13*
%TO.C,U3*%
X52480000Y12560000D02*
X52480000Y8580000D01*
X47730000Y12560000D02*
X52480000Y12560000D01*
X46580000Y11410000D02*
X46580000Y8580000D01*
X46580000Y6240000D02*
X46580000Y3810000D01*
X52480000Y3810000D02*
X52480000Y6240000D01*
X52480000Y3810000D02*
X50930000Y2260000D01*
X46580000Y3810000D02*
X48130000Y2260000D01*
X48130000Y2260000D02*
X50930000Y2260000D01*
D12*
%TO.C,C2*%
X42416000Y31095733D02*
X42416000Y31388267D01*
X43436000Y31095733D02*
X43436000Y31388267D01*
%TO.C,R4*%
X65759000Y9474564D02*
X65759000Y9020436D01*
X64289000Y9474564D02*
X64289000Y9020436D01*
%TO.C,R6*%
X45439000Y9474564D02*
X45439000Y9020436D01*
X43969000Y9474564D02*
X43969000Y9020436D01*
%TO.C,R10*%
X4799000Y9474564D02*
X4799000Y9020436D01*
X3329000Y9474564D02*
X3329000Y9020436D01*
%TO.C,*%
G36*
X77248009Y6479275D02*
G01*
X77232243Y6388904D01*
X77214348Y6350435D01*
X77185960Y6313793D01*
X77180405Y6341112D01*
X77180688Y6350435D01*
X77196532Y6429352D01*
X77214348Y6479275D01*
X77245985Y6552898D01*
X77248009Y6479275D01*
G37*
G36*
X79311490Y7098880D02*
G01*
X79325033Y7027591D01*
X79334953Y6997648D01*
X79332661Y6949192D01*
X79294936Y6942453D01*
X79257572Y6975940D01*
X79255385Y7034245D01*
X79272686Y7077172D01*
X79302528Y7111485D01*
X79311490Y7098880D01*
G37*
G36*
X77348263Y3092024D02*
G01*
X77308544Y3058529D01*
X77213127Y3016860D01*
X77086759Y3002234D01*
X76967669Y3016729D01*
X76919855Y3037391D01*
X76904962Y3059874D01*
X76952869Y3071439D01*
X77030290Y3074142D01*
X77155377Y3079456D01*
X77264436Y3091403D01*
X77287971Y3095843D01*
X77351152Y3107546D01*
X77348263Y3092024D01*
G37*
G36*
X78809956Y6801245D02*
G01*
X78857896Y6761752D01*
X78864051Y6746159D01*
X78856337Y6692262D01*
X78836757Y6681739D01*
X78798857Y6708166D01*
X78797247Y6718550D01*
X78766415Y6748459D01*
X78723624Y6755362D01*
X78663823Y6771789D01*
X78650000Y6794619D01*
X78677332Y6824170D01*
X78740209Y6824215D01*
X78809956Y6801245D01*
G37*
G36*
X77324699Y4733063D02*
G01*
X77324783Y4725868D01*
X77299166Y4677635D01*
X77236109Y4604392D01*
X77156302Y4526309D01*
X77080435Y4463555D01*
X77029199Y4436301D01*
X77027669Y4436232D01*
X76994010Y4447836D01*
X76993479Y4450307D01*
X77017334Y4481718D01*
X77079122Y4548615D01*
X77145056Y4615959D01*
X77239181Y4708290D01*
X77293236Y4754145D01*
X77318112Y4760183D01*
X77324699Y4733063D01*
G37*
G36*
X77379025Y5883624D02*
G01*
X77464753Y5819039D01*
X77528979Y5758330D01*
X77710220Y5600619D01*
X77895576Y5505424D01*
X78105158Y5463394D01*
X78170940Y5459879D01*
X78309334Y5449704D01*
X78378883Y5432435D01*
X78378756Y5413691D01*
X78308124Y5399089D01*
X78180652Y5394142D01*
X77968819Y5417156D01*
X77805429Y5469147D01*
X77711784Y5521487D01*
X77606353Y5595301D01*
X77501070Y5679796D01*
X77407868Y5764177D01*
X77338680Y5837649D01*
X77305438Y5889419D01*
X77319516Y5908695D01*
X77379025Y5883624D01*
G37*
G36*
X78971107Y4973886D02*
G01*
X78946056Y4935071D01*
X78882941Y4888633D01*
X78785115Y4843560D01*
X78767183Y4837312D01*
X78652833Y4794777D01*
X78514605Y4736976D01*
X78448026Y4706948D01*
X78271110Y4640963D01*
X78124620Y4626614D01*
X78000361Y4656855D01*
X77925126Y4701234D01*
X77893091Y4734400D01*
X77886613Y4762670D01*
X77934290Y4747955D01*
X77935338Y4747471D01*
X78069841Y4718777D01*
X78248943Y4729494D01*
X78457301Y4776281D01*
X78679575Y4855799D01*
X78879573Y4952999D01*
X78952487Y4985484D01*
X78971107Y4973886D01*
G37*
G36*
X77338041Y6900324D02*
G01*
X77593700Y6900324D01*
X77619302Y6823840D01*
X77640206Y6804181D01*
X77717343Y6761248D01*
X77788418Y6767848D01*
X77842565Y6793469D01*
X77901713Y6854161D01*
X77905301Y6926835D01*
X77864843Y6993112D01*
X77791850Y7034613D01*
X77697837Y7032959D01*
X77693391Y7031605D01*
X77620638Y6979167D01*
X77593700Y6900324D01*
X77338041Y6900324D01*
X77355549Y6981505D01*
X77436817Y7090113D01*
X77552039Y7160605D01*
X77684669Y7188917D01*
X77818158Y7170982D01*
X77935960Y7102733D01*
X78008938Y7006970D01*
X78053152Y6855484D01*
X78036613Y6709418D01*
X77965477Y6586733D01*
X77845897Y6505389D01*
X77835771Y6501672D01*
X77755638Y6474880D01*
X77700894Y6467233D01*
X77637057Y6478725D01*
X77556505Y6501626D01*
X77424864Y6572941D01*
X77392930Y6622468D01*
X77520098Y6622468D01*
X77526565Y6609218D01*
X77573239Y6582191D01*
X77640300Y6580367D01*
X77693821Y6600454D01*
X77704944Y6626521D01*
X77671510Y6675799D01*
X77641537Y6699317D01*
X77576958Y6710624D01*
X77527728Y6678150D01*
X77520098Y6622468D01*
X77392930Y6622468D01*
X77347070Y6693593D01*
X77324783Y6838849D01*
X77338041Y6900324D01*
G37*
G36*
X74394351Y3090239D02*
G01*
X74499627Y3090239D01*
X74517447Y3016112D01*
X74582735Y2977963D01*
X74625888Y2970821D01*
X74710697Y2974827D01*
X74768410Y3014631D01*
X74807882Y3102470D01*
X74837970Y3250582D01*
X74840547Y3267464D01*
X74871172Y3386251D01*
X74913865Y3439267D01*
X74962693Y3423941D01*
X75010409Y3341087D01*
X75036350Y3257963D01*
X75069930Y3127154D01*
X75104939Y2973286D01*
X75113845Y2930914D01*
X75159729Y2744777D01*
X75210891Y2621817D01*
X75274396Y2551607D01*
X75357313Y2523721D01*
X75391019Y2522029D01*
X75495853Y2548208D01*
X75583794Y2613138D01*
X75629552Y2696407D01*
X75631450Y2716059D01*
X75614978Y2784045D01*
X75571102Y2895976D01*
X75508133Y3031413D01*
X75483648Y3079572D01*
X75407212Y3239943D01*
X75373874Y3342862D01*
X75382951Y3387369D01*
X75433760Y3372504D01*
X75525619Y3297306D01*
X75591729Y3231610D01*
X75716765Y3109649D01*
X75810196Y3039657D01*
X75884238Y3014445D01*
X75944348Y3024079D01*
X75994896Y3075732D01*
X75990974Y3163441D01*
X75935327Y3276928D01*
X75846937Y3388677D01*
X75758279Y3493897D01*
X75720443Y3560149D01*
X75734263Y3583655D01*
X75800578Y3560638D01*
X75809935Y3555736D01*
X75901924Y3526325D01*
X75997145Y3515942D01*
X76084439Y3531300D01*
X76106138Y3574690D01*
X76062926Y3642087D01*
X75961609Y3725221D01*
X75846626Y3810716D01*
X75737947Y3899631D01*
X75709404Y3925159D01*
X75601800Y3995701D01*
X75439003Y4054838D01*
X75314825Y4085749D01*
X75122472Y4131839D01*
X74994343Y4171936D01*
X74921659Y4209568D01*
X74895639Y4248264D01*
X74895218Y4254414D01*
X74923086Y4264304D01*
X74991434Y4240875D01*
X75004050Y4234597D01*
X75109547Y4197718D01*
X75242867Y4173048D01*
X75287964Y4169231D01*
X75396197Y4167629D01*
X75458410Y4186453D01*
X75501887Y4239299D01*
X75528304Y4288985D01*
X75572658Y4424027D01*
X75590963Y4583531D01*
X75590962Y4601884D01*
X75589937Y4738594D01*
X75593205Y4812898D01*
X75603003Y4835986D01*
X75621569Y4819047D01*
X75631450Y4804348D01*
X75662871Y4703726D01*
X75665754Y4564081D01*
X75642247Y4413312D01*
X75594500Y4279318D01*
X75590393Y4271449D01*
X75544616Y4168359D01*
X75546421Y4117323D01*
X75555284Y4111910D01*
X75606677Y4084787D01*
X75697270Y4028607D01*
X75789602Y3967534D01*
X75935031Y3875455D01*
X76080820Y3794412D01*
X76208479Y3733764D01*
X76299513Y3702871D01*
X76316642Y3700808D01*
X76338648Y3726233D01*
X76336177Y3809159D01*
X76325117Y3878885D01*
X76311599Y4006958D01*
X76316972Y4114631D01*
X76324240Y4143291D01*
X76342053Y4173763D01*
X76356281Y4150086D01*
X76369250Y4064920D01*
X76378065Y3973608D01*
X76431421Y3692820D01*
X76538211Y3396887D01*
X76687932Y3107166D01*
X76870081Y2845013D01*
X77008268Y2692257D01*
X77119818Y2567363D01*
X77221341Y2426956D01*
X77278395Y2326180D01*
X77364846Y2139584D01*
X77285521Y2032291D01*
X77234445Y1947489D01*
X77230783Y1879140D01*
X77246295Y1836992D01*
X77312619Y1768167D01*
X77410960Y1748949D01*
X77517742Y1780680D01*
X77569668Y1818588D01*
X77607149Y1862102D01*
X77627625Y1917724D01*
X77634118Y2004412D01*
X77629651Y2141121D01*
X77627431Y2180928D01*
X77610485Y2473665D01*
X77881764Y2512570D01*
X78026158Y2531025D01*
X78124777Y2533874D01*
X78204379Y2518148D01*
X78291720Y2480875D01*
X78327221Y2463128D01*
X78459851Y2401815D01*
X78550408Y2380134D01*
X78618586Y2397659D01*
X78684083Y2453961D01*
X78685378Y2455347D01*
X78755245Y2567330D01*
X78762313Y2671526D01*
X78717372Y2757976D01*
X78631214Y2816724D01*
X78514631Y2837812D01*
X78378414Y2811284D01*
X78325387Y2787505D01*
X78232331Y2746949D01*
X78141275Y2731179D01*
X78027081Y2738863D01*
X77886160Y2764239D01*
X77821444Y2797524D01*
X77803334Y2834333D01*
X77813381Y2853543D01*
X77932304Y2853543D01*
X77947643Y2831131D01*
X78011089Y2819189D01*
X78097807Y2818179D01*
X78182966Y2828564D01*
X78237489Y2847867D01*
X78237806Y2867928D01*
X78171428Y2881128D01*
X78120154Y2884325D01*
X78015734Y2880515D01*
X77945248Y2863617D01*
X77932304Y2853543D01*
X77813381Y2853543D01*
X77837738Y2900112D01*
X77936530Y2943898D01*
X78093073Y2963100D01*
X78134638Y2963768D01*
X78258804Y2971031D01*
X78361291Y2989489D01*
X78394739Y3001875D01*
X78451320Y3068266D01*
X78463133Y3161179D01*
X78426420Y3245992D01*
X78421768Y3250898D01*
X78368527Y3284891D01*
X78295679Y3289448D01*
X78189629Y3262349D01*
X78036779Y3201375D01*
X77988907Y3180242D01*
X77827556Y3114613D01*
X77719298Y3089539D01*
X77654816Y3106522D01*
X77624791Y3167065D01*
X77619276Y3239855D01*
X77601306Y3348128D01*
X77544425Y3395791D01*
X77444175Y3385406D01*
X77396565Y3367933D01*
X77313580Y3343197D01*
X77262434Y3345420D01*
X77260785Y3346800D01*
X77245407Y3393249D01*
X77227919Y3492665D01*
X77211835Y3624607D01*
X77210241Y3640866D01*
X77179680Y3839102D01*
X77122569Y4014520D01*
X77027832Y4197034D01*
X76970277Y4288985D01*
X76953865Y4323174D01*
X76983697Y4302891D01*
X77041646Y4246073D01*
X77147901Y4098775D01*
X77231948Y3911302D01*
X77280795Y3716523D01*
X77287971Y3622960D01*
X77287971Y3522471D01*
X77508305Y3573872D01*
X77624808Y3610812D01*
X77787680Y3675271D01*
X77979260Y3758895D01*
X78181888Y3853329D01*
X78377902Y3950219D01*
X78549642Y4041211D01*
X78679448Y4117951D01*
X78723624Y4148763D01*
X78801575Y4204311D01*
X78917158Y4281532D01*
X79044197Y4362978D01*
X79212665Y4487193D01*
X79352452Y4626026D01*
X79451628Y4765137D01*
X79498266Y4890188D01*
X79500201Y4911103D01*
X79512056Y5003247D01*
X79538112Y5128136D01*
X79554136Y5190869D01*
X79604537Y5374927D01*
X79582180Y5154058D01*
X79570665Y5003172D01*
X79565373Y4855712D01*
X79566081Y4783441D01*
X79565550Y4704652D01*
X79548082Y4644945D01*
X79501686Y4586511D01*
X79414367Y4511540D01*
X79347866Y4459376D01*
X79227105Y4369189D01*
X79117659Y4293668D01*
X79041336Y4247786D01*
X79035968Y4245223D01*
X78962157Y4196748D01*
X78929268Y4155159D01*
X78934513Y4113023D01*
X78987887Y4107749D01*
X79075211Y4136978D01*
X79180266Y4196956D01*
X79282008Y4261521D01*
X79345271Y4284371D01*
X79389754Y4268909D01*
X79419328Y4238245D01*
X79438402Y4163140D01*
X79408233Y4064127D01*
X79340499Y3958638D01*
X79246879Y3864104D01*
X79139051Y3797954D01*
X79119348Y3790514D01*
X79062048Y3743779D01*
X79059731Y3679084D01*
X79107922Y3621884D01*
X79152245Y3603354D01*
X79279058Y3607609D01*
X79401505Y3681040D01*
X79512713Y3819240D01*
X79527034Y3843576D01*
X79584173Y3932674D01*
X79631673Y3986860D01*
X79646671Y3994492D01*
X79675877Y3982108D01*
X79668634Y3938166D01*
X79621493Y3852485D01*
X79573241Y3777737D01*
X79504777Y3657111D01*
X79491094Y3572067D01*
X79533971Y3507089D01*
X79609735Y3459363D01*
X79746059Y3410812D01*
X79860989Y3423746D01*
X79924216Y3458610D01*
X79967997Y3500484D01*
X79987206Y3560411D01*
X79987134Y3661359D01*
X79983198Y3714697D01*
X79977032Y3836471D01*
X79989910Y3914850D01*
X80030756Y3979360D01*
X80078395Y4029710D01*
X80202057Y4118852D01*
X80322502Y4142835D01*
X80428624Y4101204D01*
X80479659Y4046203D01*
X80595429Y3903255D01*
X80700353Y3830243D01*
X80801398Y3825668D01*
X80905532Y3888032D01*
X80960049Y3942855D01*
X81013594Y4035051D01*
X80998370Y4118403D01*
X80912617Y4196323D01*
X80799752Y4253771D01*
X80626882Y4345242D01*
X80472673Y4458475D01*
X80355973Y4577919D01*
X80304263Y4662555D01*
X80270486Y4734650D01*
X80239519Y4746295D01*
X80186534Y4705282D01*
X80181756Y4700997D01*
X80077429Y4627313D01*
X79983767Y4595971D01*
X79933579Y4604867D01*
X79942268Y4631788D01*
X80003053Y4676681D01*
X80056539Y4706218D01*
X80151602Y4763447D01*
X80207291Y4826900D01*
X80223396Y4907873D01*
X80199707Y5017664D01*
X80136013Y5167569D01*
X80044641Y5345499D01*
X79953706Y5511768D01*
X79862770Y5671465D01*
X79784544Y5802575D01*
X79745610Y5863408D01*
X79639376Y6020585D01*
X79511767Y5845002D01*
X79428798Y5727578D01*
X79354087Y5616411D01*
X79320775Y5563549D01*
X79211191Y5402154D01*
X79104593Y5297348D01*
X78984838Y5234623D01*
X78938977Y5220499D01*
X78801422Y5169850D01*
X78663338Y5098596D01*
X78636289Y5081244D01*
X78543506Y5026562D01*
X78472085Y4999048D01*
X78453332Y4998744D01*
X78449827Y5024412D01*
X78496387Y5071780D01*
X78576886Y5130310D01*
X78675200Y5189461D01*
X78775205Y5238695D01*
X78860776Y5267472D01*
X78866013Y5268485D01*
X79010104Y5304546D01*
X79104437Y5359207D01*
X79172808Y5447862D01*
X79188689Y5477250D01*
X79243535Y5569036D01*
X79325667Y5689908D01*
X79405624Y5798261D01*
X79501553Y5939486D01*
X79588865Y6096139D01*
X79636323Y6203188D01*
X79685086Y6334545D01*
X79729787Y6453522D01*
X79750547Y6507898D01*
X79773452Y6576381D01*
X79761584Y6590562D01*
X79726214Y6572939D01*
X79584903Y6469732D01*
X79511211Y6361250D01*
X79496667Y6277694D01*
X79471699Y6125309D01*
X79392060Y6018095D01*
X79292423Y5960796D01*
X79132159Y5913596D01*
X79003997Y5924932D01*
X78892793Y5996875D01*
X78871616Y6018332D01*
X78787492Y6108387D01*
X78870870Y6108387D01*
X78902057Y6044366D01*
X78981874Y6005934D01*
X79089699Y5993675D01*
X79204913Y6008179D01*
X79306896Y6050031D01*
X79358247Y6094513D01*
X79407727Y6187276D01*
X79423044Y6263429D01*
X79418908Y6321376D01*
X79392973Y6332146D01*
X79324944Y6301582D01*
X79312609Y6295217D01*
X79223558Y6222795D01*
X79201003Y6156228D01*
X79195824Y6099780D01*
X79172476Y6111485D01*
X79150861Y6138863D01*
X79089425Y6183452D01*
X78993733Y6181698D01*
X78986380Y6180276D01*
X78906770Y6150835D01*
X78871018Y6110897D01*
X78870870Y6108387D01*
X78787492Y6108387D01*
X78769200Y6127968D01*
X78461122Y6093859D01*
X78280042Y6076700D01*
X78081112Y6062607D01*
X77877522Y6051936D01*
X77682464Y6045044D01*
X77509132Y6042285D01*
X77370717Y6044017D01*
X77280411Y6050594D01*
X77251160Y6061208D01*
X77282403Y6085978D01*
X77333986Y6093109D01*
X77397568Y6095397D01*
X77520330Y6101493D01*
X77687971Y6110629D01*
X77886189Y6122032D01*
X78030321Y6130638D01*
X78399388Y6159685D01*
X78706070Y6199497D01*
X78961128Y6252487D01*
X79175325Y6321070D01*
X79359422Y6407659D01*
X79417137Y6441671D01*
X79580256Y6546017D01*
X79688134Y6624929D01*
X79750118Y6688311D01*
X79775557Y6746063D01*
X79773798Y6808089D01*
X79771949Y6817510D01*
X79730807Y7001698D01*
X79696311Y7124220D01*
X79663935Y7196179D01*
X79629157Y7228682D01*
X79602318Y7233913D01*
X79527066Y7258723D01*
X79456249Y7311142D01*
X79429028Y7362645D01*
X79469350Y7362645D01*
X79504442Y7318641D01*
X79535651Y7307536D01*
X79569601Y7335304D01*
X79570290Y7342175D01*
X79545836Y7388638D01*
X79497816Y7413099D01*
X79472126Y7405700D01*
X79469350Y7362645D01*
X79429028Y7362645D01*
X79400588Y7416456D01*
X79399941Y7556288D01*
X79577310Y7556288D01*
X79581852Y7478502D01*
X79584777Y7470127D01*
X79623888Y7426392D01*
X79668434Y7440223D01*
X79696919Y7500664D01*
X79699131Y7528406D01*
X79681785Y7601260D01*
X79653136Y7629631D01*
X79604988Y7615803D01*
X79577310Y7556288D01*
X79399941Y7556288D01*
X79399939Y7556639D01*
X79438916Y7682608D01*
X79429377Y7734203D01*
X79364216Y7775137D01*
X79261160Y7801105D01*
X79137936Y7807806D01*
X79012272Y7790936D01*
X79002786Y7788478D01*
X78874412Y7757265D01*
X78721530Y7724687D01*
X78653782Y7711711D01*
X78521469Y7676203D01*
X78358475Y7616483D01*
X78198048Y7544856D01*
X78184023Y7537815D01*
X77912946Y7400129D01*
X78143430Y7353310D01*
X78296567Y7323732D01*
X78447751Y7296962D01*
X78531208Y7283725D01*
X78632246Y7262899D01*
X78698217Y7237785D01*
X78708235Y7229030D01*
X78695845Y7204788D01*
X78626410Y7198859D01*
X78513974Y7210405D01*
X78372580Y7238588D01*
X78318696Y7252269D01*
X78174632Y7283574D01*
X77997197Y7312019D01*
X77837333Y7330215D01*
X77650410Y7337265D01*
X77501139Y7316908D01*
X77372480Y7260677D01*
X77247393Y7160104D01*
X77108839Y7006721D01*
X77056582Y6942227D01*
X76855729Y6663956D01*
X76715599Y6406428D01*
X76630851Y6157884D01*
X76597458Y5931205D01*
X76591566Y5787262D01*
X76599219Y5690093D01*
X76625723Y5613310D01*
X76676388Y5530526D01*
X76678757Y5527061D01*
X76736432Y5430424D01*
X76754961Y5371383D01*
X76733969Y5358387D01*
X76684861Y5389781D01*
X76603391Y5496616D01*
X76544609Y5651686D01*
X76516829Y5831018D01*
X76515704Y5877447D01*
X76536758Y6065380D01*
X76591882Y6279339D01*
X76670972Y6489140D01*
X76763925Y6664596D01*
X76793114Y6706169D01*
X76892980Y6837100D01*
X76805186Y6809870D01*
X76572590Y6709981D01*
X76339636Y6560567D01*
X76161467Y6406703D01*
X76006354Y6233175D01*
X75852192Y6028545D01*
X75712465Y5813461D01*
X75600655Y5608571D01*
X75533456Y5444989D01*
X75494652Y5331826D01*
X75459562Y5272429D01*
X75412313Y5249596D01*
X75349921Y5246087D01*
X75217025Y5213696D01*
X75100374Y5133078D01*
X74932673Y4950616D01*
X74822180Y4752967D01*
X74773403Y4551616D01*
X74790848Y4358049D01*
X74793137Y4350129D01*
X74816332Y4240038D01*
X74803717Y4162804D01*
X74787716Y4132756D01*
X74760654Y4055464D01*
X74740003Y3934612D01*
X74732031Y3832337D01*
X74712528Y3658529D01*
X74660834Y3494419D01*
X74604925Y3374705D01*
X74528908Y3207413D01*
X74499627Y3090239D01*
X74394351Y3090239D01*
X74404645Y3171560D01*
X74451588Y3294887D01*
X74531766Y3458520D01*
X74588458Y3585905D01*
X74629548Y3724067D01*
X74656813Y3886382D01*
X74672027Y4086226D01*
X74676968Y4336978D01*
X74675410Y4540461D01*
X74706500Y4732547D01*
X74772635Y4882940D01*
X74858674Y5015443D01*
X74963992Y5141049D01*
X75072913Y5244214D01*
X75169760Y5309396D01*
X75217425Y5323956D01*
X75302431Y5330542D01*
X75330477Y5333159D01*
X75369184Y5367972D01*
X75415901Y5451932D01*
X75444262Y5522174D01*
X75494986Y5654915D01*
X75548585Y5779275D01*
X75569788Y5822897D01*
X75645155Y5947657D01*
X75754428Y6103713D01*
X75880671Y6269114D01*
X76006948Y6421906D01*
X76116325Y6540135D01*
X76141418Y6563878D01*
X76257038Y6651890D01*
X76412445Y6748793D01*
X76582440Y6840849D01*
X76741826Y6914317D01*
X76855435Y6953204D01*
X76928620Y6981692D01*
X76956667Y7012464D01*
X76984283Y7074577D01*
X77055303Y7160535D01*
X77151990Y7253175D01*
X77256602Y7335333D01*
X77342873Y7386129D01*
X77474516Y7430068D01*
X77611311Y7453045D01*
X77635485Y7453974D01*
X77770464Y7477570D01*
X77958731Y7546289D01*
X78114036Y7617539D01*
X78329380Y7708304D01*
X78565993Y7784259D01*
X78804541Y7841175D01*
X79025690Y7874819D01*
X79210108Y7880960D01*
X79280380Y7872806D01*
X79409388Y7835889D01*
X79542961Y7778823D01*
X79653533Y7714809D01*
X79705616Y7669140D01*
X79748802Y7573353D01*
X79768544Y7448601D01*
X79758734Y7337473D01*
X79754852Y7325942D01*
X79750657Y7237091D01*
X79782624Y7105200D01*
X79795720Y7068261D01*
X79851940Y6871714D01*
X79857732Y6696330D01*
X79813764Y6510267D01*
X79807813Y6493106D01*
X79751260Y6316647D01*
X79716852Y6173350D01*
X79706901Y6075255D01*
X79720036Y6035992D01*
X79752810Y5995821D01*
X79812143Y5905644D01*
X79889432Y5780138D01*
X79976071Y5633979D01*
X80063457Y5481845D01*
X80142985Y5338412D01*
X80206050Y5218357D01*
X80235504Y5156743D01*
X80285649Y5023795D01*
X80331240Y4871632D01*
X80343288Y4822158D01*
X80388737Y4662300D01*
X80451939Y4547505D01*
X80549930Y4456889D01*
X80699745Y4369569D01*
X80721402Y4358627D01*
X80895867Y4265619D01*
X81008646Y4187459D01*
X81067162Y4113612D01*
X81078838Y4033541D01*
X81051098Y3936709D01*
X81038695Y3908255D01*
X80958073Y3812043D01*
X80835327Y3752674D01*
X80695739Y3737387D01*
X80565655Y3772846D01*
X80505326Y3832454D01*
X80460550Y3917240D01*
X80398711Y4031020D01*
X80318994Y4074460D01*
X80224695Y4046489D01*
X80177112Y4009146D01*
X80120597Y3950156D01*
X80093047Y3891752D01*
X80087721Y3808150D01*
X80095676Y3697562D01*
X80104242Y3573358D01*
X80096646Y3496877D01*
X80065525Y3442745D01*
X80005686Y3387412D01*
X79897168Y3321773D01*
X79788686Y3295080D01*
X79787153Y3295072D01*
X79668616Y3311022D01*
X79547140Y3351549D01*
X79448640Y3405672D01*
X79400182Y3459062D01*
X79344707Y3502684D01*
X79232627Y3515942D01*
X79118882Y3525439D01*
X79026854Y3548815D01*
X79015696Y3554049D01*
X78954955Y3620791D01*
X78950095Y3710218D01*
X78999027Y3799628D01*
X79041670Y3836325D01*
X79143774Y3913077D01*
X79237124Y3995371D01*
X79307079Y4068710D01*
X79339001Y4118599D01*
X79337435Y4129184D01*
X79296210Y4124984D01*
X79218838Y4088954D01*
X79190563Y4072315D01*
X79058578Y4008283D01*
X78955252Y4002642D01*
X78866863Y4053336D01*
X78820056Y4086603D01*
X78773929Y4082645D01*
X78703042Y4036845D01*
X78679907Y4019409D01*
X78589663Y3961930D01*
X78449960Y3885701D01*
X78279519Y3799751D01*
X78097061Y3713110D01*
X77921309Y3634804D01*
X77770984Y3573864D01*
X77714269Y3553732D01*
X77629076Y3521831D01*
X77603503Y3494153D01*
X77626251Y3455144D01*
X77635278Y3444975D01*
X77676619Y3363275D01*
X77692899Y3263270D01*
X77697618Y3185013D01*
X77721345Y3165765D01*
X77769396Y3186175D01*
X77867365Y3229896D01*
X77999287Y3278084D01*
X78139478Y3322574D01*
X78262256Y3355200D01*
X78340599Y3367790D01*
X78431353Y3336594D01*
X78500735Y3256615D01*
X78539256Y3151729D01*
X78537429Y3045812D01*
X78497429Y2973168D01*
X78484661Y2938717D01*
X78534945Y2912766D01*
X78561850Y2905757D01*
X78669775Y2860983D01*
X78753692Y2802963D01*
X78811488Y2732682D01*
X78823006Y2650693D01*
X78815389Y2596127D01*
X78782500Y2479947D01*
X78736196Y2380554D01*
X78735595Y2379616D01*
X78691097Y2326295D01*
X78632883Y2305413D01*
X78534199Y2308909D01*
X78509698Y2311548D01*
X78366841Y2345683D01*
X78280573Y2404072D01*
X78192292Y2461611D01*
X78131874Y2464479D01*
X78041335Y2451960D01*
X77917035Y2435528D01*
X77862747Y2428535D01*
X77682885Y2405581D01*
X77706709Y2149254D01*
X77715278Y1971415D01*
X77697684Y1848707D01*
X77647706Y1765389D01*
X77559123Y1705720D01*
X77525466Y1690651D01*
X77399643Y1647722D01*
X77311213Y1647420D01*
X77236407Y1691388D01*
X77214348Y1712174D01*
X77156753Y1813868D01*
X77143332Y1938219D01*
X77175614Y2051647D01*
X77197521Y2082034D01*
X77230308Y2129249D01*
X77230877Y2181928D01*
X77198100Y2267471D01*
X77189064Y2287397D01*
X77133094Y2381414D01*
X77042215Y2504832D01*
X76933500Y2634916D01*
X76902196Y2669431D01*
X76706448Y2916407D01*
X76533143Y3204304D01*
X76514928Y3240011D01*
X76441305Y3382782D01*
X76376499Y3500469D01*
X76329327Y3577475D01*
X76312464Y3598204D01*
X76252865Y3622826D01*
X76201086Y3619945D01*
X76187983Y3598768D01*
X76181253Y3520495D01*
X76121373Y3465021D01*
X76073709Y3442534D01*
X75963794Y3397006D01*
X76036897Y3294342D01*
X76100761Y3166140D01*
X76094480Y3058035D01*
X76042681Y2987879D01*
X75940301Y2930159D01*
X75828859Y2938354D01*
X75702891Y3013898D01*
X75608697Y3101811D01*
X75440708Y3276666D01*
X75572890Y3033853D01*
X75638002Y2901837D01*
X75685203Y2782469D01*
X75704963Y2700108D01*
X75705073Y2696018D01*
X75672460Y2593073D01*
X75587583Y2513262D01*
X75469887Y2463038D01*
X75338817Y2448851D01*
X75213817Y2477154D01*
X75154486Y2513342D01*
X75101514Y2579669D01*
X75064838Y2687870D01*
X75042811Y2817037D01*
X75012176Y3028741D01*
X74984663Y3172288D01*
X74958925Y3253008D01*
X74933618Y3276231D01*
X74927547Y3273896D01*
X74903948Y3226152D01*
X74895218Y3149731D01*
X74861440Y3019466D01*
X74771475Y2917609D01*
X74666998Y2869783D01*
X74581397Y2867201D01*
X74501941Y2913878D01*
X74470211Y2943689D01*
X74415720Y3010710D01*
X74393277Y3081751D01*
X74394351Y3090239D01*
G37*
%TD*%
M02*
