M48
; DRILL file {KiCad 7.0.2-0} date 2023 September 22, Friday 13:16:18
; FORMAT={-:-/ absolute / metric / decimal}
; #@! TF.CreationDate,2023-09-22T13:16:18+12:00
; #@! TF.GenerationSoftware,Kicad,Pcbnew,7.0.2-0
; #@! TF.FileFunction,Plated,1,2,PTH
FMAT,2
METRIC
; #@! TA.AperFunction,Plated,PTH,ViaDrill
T1C0.400
; #@! TA.AperFunction,Plated,PTH,ComponentDrill
T2C0.750
; #@! TA.AperFunction,Plated,PTH,ComponentDrill
T3C1.000
%
G90
G05
T1
X2.032Y7.366
X17.018Y6.096
X22.606Y7.366
X35.56Y4.826
X42.672Y7.366
X60.96Y5.08
X62.992Y7.366
X80.772Y7.112
X83.312Y7.366
T2
X45.868Y31.242
X45.868Y29.972
X45.868Y28.702
T3
X7.62Y10.16
X7.62Y4.66
X10.16Y10.16
X10.16Y4.66
X27.94Y10.16
X27.94Y4.66
X30.48Y10.16
X30.48Y4.66
X45.72Y25.4
X45.72Y22.86
X48.26Y25.4
X48.26Y22.86
X48.26Y10.16
X48.26Y4.66
X50.8Y25.4
X50.8Y22.86
X50.8Y10.16
X50.8Y4.66
X53.34Y25.4
X53.34Y22.86
X68.58Y10.16
X68.58Y4.66
X71.12Y10.16
X71.12Y4.66
X88.9Y10.16
X88.9Y4.66
X91.44Y10.16
X91.44Y4.66
T0
M30
