%TF.GenerationSoftware,KiCad,Pcbnew,(7.0.0)*%
%TF.CreationDate,2023-09-21T17:16:17+12:00*%
%TF.ProjectId,MainBoard,4d61696e-426f-4617-9264-2e6b69636164,rev?*%
%TF.SameCoordinates,PX48ab840PY7b0df40*%
%TF.FileFunction,Soldermask,Top*%
%TF.FilePolarity,Negative*%
%FSLAX46Y46*%
G04 Gerber Fmt 4.6, Leading zero omitted, Abs format (unit mm)*
G04 Created by KiCad (PCBNEW (7.0.0)) date 2023-09-21 17:16:17*
%MOMM*%
%LPD*%
G01*
G04 APERTURE LIST*
G04 Aperture macros list*
%AMRoundRect*
0 Rectangle with rounded corners*
0 $1 Rounding radius*
0 $2 $3 $4 $5 $6 $7 $8 $9 X,Y pos of 4 corners*
0 Add a 4 corners polygon primitive as box body*
4,1,4,$2,$3,$4,$5,$6,$7,$8,$9,$2,$3,0*
0 Add four circle primitives for the rounded corners*
1,1,$1+$1,$2,$3*
1,1,$1+$1,$4,$5*
1,1,$1+$1,$6,$7*
1,1,$1+$1,$8,$9*
0 Add four rect primitives between the rounded corners*
20,1,$1+$1,$2,$3,$4,$5,0*
20,1,$1+$1,$4,$5,$6,$7,0*
20,1,$1+$1,$6,$7,$8,$9,0*
20,1,$1+$1,$8,$9,$2,$3,0*%
G04 Aperture macros list end*
%ADD10RoundRect,0.250000X0.262500X0.450000X-0.262500X0.450000X-0.262500X-0.450000X0.262500X-0.450000X0*%
%ADD11R,1.800000X1.800000*%
%ADD12C,1.800000*%
%ADD13C,1.500000*%
%ADD14C,3.000000*%
%ADD15R,1.350000X1.350000*%
%ADD16O,1.350000X1.350000*%
%ADD17RoundRect,0.250000X-0.262500X-0.450000X0.262500X-0.450000X0.262500X0.450000X-0.262500X0.450000X0*%
%ADD18C,0.800000*%
%ADD19C,6.400000*%
%ADD20C,2.000000*%
%ADD21RoundRect,0.150000X-0.150000X0.587500X-0.150000X-0.587500X0.150000X-0.587500X0.150000X0.587500X0*%
%ADD22RoundRect,0.250000X-0.450000X0.262500X-0.450000X-0.262500X0.450000X-0.262500X0.450000X0.262500X0*%
%ADD23RoundRect,0.250000X-0.325000X-0.650000X0.325000X-0.650000X0.325000X0.650000X-0.325000X0.650000X0*%
%ADD24RoundRect,0.250000X0.450000X-0.262500X0.450000X0.262500X-0.450000X0.262500X-0.450000X-0.262500X0*%
%ADD25RoundRect,0.250000X0.650000X-0.325000X0.650000X0.325000X-0.650000X0.325000X-0.650000X-0.325000X0*%
%ADD26R,1.700000X1.700000*%
%ADD27O,1.700000X1.700000*%
%ADD28R,0.550000X1.600000*%
%ADD29R,1.600000X0.550000*%
%ADD30R,2.200000X2.200000*%
%ADD31O,2.200000X2.200000*%
%ADD32R,1.500000X1.050000*%
%ADD33O,1.500000X1.050000*%
%ADD34RoundRect,0.250000X0.325000X0.650000X-0.325000X0.650000X-0.325000X-0.650000X0.325000X-0.650000X0*%
%ADD35RoundRect,0.250000X-0.650000X0.325000X-0.650000X-0.325000X0.650000X-0.325000X0.650000X0.325000X0*%
%ADD36R,1.600000X1.600000*%
%ADD37C,1.600000*%
%ADD38RoundRect,0.250000X0.350000X0.625000X-0.350000X0.625000X-0.350000X-0.625000X0.350000X-0.625000X0*%
%ADD39O,1.200000X1.750000*%
%ADD40RoundRect,0.250000X-0.350000X-0.625000X0.350000X-0.625000X0.350000X0.625000X-0.350000X0.625000X0*%
%ADD41C,3.300000*%
%ADD42R,2.000000X2.000000*%
G04 APERTURE END LIST*
D10*
%TO.C,R9*%
X22756500Y59182000D03*
X20931500Y59182000D03*
%TD*%
%TO.C,R10*%
X23264500Y21336000D03*
X21439500Y21336000D03*
%TD*%
D11*
%TO.C,D2*%
X61721999Y48628999D03*
D12*
X61722000Y51169000D03*
%TD*%
D13*
%TO.C,BZ1*%
X50800000Y18990000D03*
X50800000Y11490000D03*
D14*
X48260000Y15240000D03*
X53340000Y15240000D03*
%TD*%
D15*
%TO.C,J9*%
X60705999Y37115999D03*
D16*
X60705999Y39115999D03*
X60705999Y41115999D03*
X60705999Y43115999D03*
X60705999Y45115999D03*
%TD*%
D17*
%TO.C,R15*%
X63349500Y33020000D03*
X65174500Y33020000D03*
%TD*%
D18*
%TO.C,H4*%
X37050944Y4064000D03*
X37753888Y5761056D03*
X37753888Y2366944D03*
X39450944Y6464000D03*
D19*
X39450944Y4064000D03*
D18*
X39450944Y1664000D03*
X41148000Y5761056D03*
X41148000Y2366944D03*
X41850944Y4064000D03*
%TD*%
D20*
%TO.C,TP6V1*%
X59182000Y14986000D03*
%TD*%
D21*
%TO.C,Q1*%
X18984000Y59279000D03*
X17084000Y59279000D03*
X18034000Y57404000D03*
%TD*%
D22*
%TO.C,R12*%
X7620000Y61872500D03*
X7620000Y60047500D03*
%TD*%
D17*
%TO.C,R14*%
X63349500Y35052000D03*
X65174500Y35052000D03*
%TD*%
D23*
%TO.C,C7*%
X10668000Y67818000D03*
X13618000Y67818000D03*
%TD*%
D24*
%TO.C,R4*%
X54102000Y74271500D03*
X54102000Y76096500D03*
%TD*%
D11*
%TO.C,D3*%
X61721999Y56128999D03*
D12*
X61722000Y58669000D03*
%TD*%
D20*
%TO.C,SW1*%
X56948000Y76164000D03*
X63448000Y76164000D03*
X56948000Y71664000D03*
X63448000Y71664000D03*
%TD*%
D17*
%TO.C,R2*%
X55221500Y27686000D03*
X57046500Y27686000D03*
%TD*%
D10*
%TO.C,R11*%
X23264500Y19050000D03*
X21439500Y19050000D03*
%TD*%
D25*
%TO.C,C3*%
X57150000Y48309000D03*
X57150000Y51259000D03*
%TD*%
D21*
%TO.C,Q2*%
X19238000Y18893000D03*
X17338000Y18893000D03*
X18288000Y17018000D03*
%TD*%
D26*
%TO.C,J2*%
X48254999Y56626999D03*
D27*
X50794999Y56626999D03*
X48254999Y54086999D03*
X50794999Y54086999D03*
X48254999Y51546999D03*
X50794999Y51546999D03*
%TD*%
D28*
%TO.C,U2*%
X49015999Y37659999D03*
X49815999Y37659999D03*
X50615999Y37659999D03*
X51415999Y37659999D03*
X52215999Y37659999D03*
X53015999Y37659999D03*
X53815999Y37659999D03*
X54615999Y37659999D03*
D29*
X56065999Y39109999D03*
X56065999Y39909999D03*
X56065999Y40709999D03*
X56065999Y41509999D03*
X56065999Y42309999D03*
X56065999Y43109999D03*
X56065999Y43909999D03*
X56065999Y44709999D03*
D28*
X54615999Y46159999D03*
X53815999Y46159999D03*
X53015999Y46159999D03*
X52215999Y46159999D03*
X51415999Y46159999D03*
X50615999Y46159999D03*
X49815999Y46159999D03*
X49015999Y46159999D03*
D29*
X47565999Y44709999D03*
X47565999Y43909999D03*
X47565999Y43109999D03*
X47565999Y42309999D03*
X47565999Y41509999D03*
X47565999Y40709999D03*
X47565999Y39909999D03*
X47565999Y39109999D03*
%TD*%
D17*
%TO.C,R3*%
X43434000Y46228000D03*
X45259000Y46228000D03*
%TD*%
D11*
%TO.C,D1*%
X60197999Y2534999D03*
D12*
X60198000Y5075000D03*
%TD*%
D18*
%TO.C,H2*%
X36970000Y74422000D03*
X37672944Y76119056D03*
X37672944Y72724944D03*
X39370000Y76822000D03*
D19*
X39370000Y74422000D03*
D18*
X39370000Y72022000D03*
X41067056Y76119056D03*
X41067056Y72724944D03*
X41770000Y74422000D03*
%TD*%
D17*
%TO.C,R5*%
X55729500Y53594000D03*
X57554500Y53594000D03*
%TD*%
%TO.C,R6*%
X55626000Y59436000D03*
X57451000Y59436000D03*
%TD*%
D18*
%TO.C,H3*%
X18174000Y3890944D03*
X18876944Y5588000D03*
X18876944Y2193888D03*
X20574000Y6290944D03*
D19*
X20574000Y3890944D03*
D18*
X20574000Y1490944D03*
X22271056Y5588000D03*
X22271056Y2193888D03*
X22974000Y3890944D03*
%TD*%
D26*
%TO.C,J1*%
X5338999Y3555999D03*
D27*
X2798999Y3555999D03*
%TD*%
D23*
%TO.C,C8*%
X10717000Y10160000D03*
X13667000Y10160000D03*
%TD*%
D30*
%TO.C,D5*%
X10667999Y64769999D03*
D31*
X18287999Y64769999D03*
%TD*%
D32*
%TO.C,U1*%
X61319999Y25145999D03*
D33*
X61319999Y26415999D03*
X61319999Y27685999D03*
%TD*%
D11*
%TO.C,D4*%
X61721999Y63628999D03*
D12*
X61722000Y66169000D03*
%TD*%
D34*
%TO.C,C5*%
X45974000Y48514000D03*
X43024000Y48514000D03*
%TD*%
D35*
%TO.C,C6*%
X45212000Y28653000D03*
X45212000Y25703000D03*
%TD*%
D10*
%TO.C,R8*%
X22756500Y61214000D03*
X20931500Y61214000D03*
%TD*%
D34*
%TO.C,C2*%
X61116000Y30734000D03*
X58166000Y30734000D03*
%TD*%
D26*
%TO.C,J8*%
X13212999Y17017999D03*
D27*
X10672999Y17017999D03*
%TD*%
D17*
%TO.C,R7*%
X55729500Y67056000D03*
X57554500Y67056000D03*
%TD*%
D26*
%TO.C,J3*%
X48259999Y32247999D03*
D27*
X48259999Y29707999D03*
X48259999Y27167999D03*
X48259999Y24627999D03*
%TD*%
D10*
%TO.C,R1*%
X55522500Y2540000D03*
X53697500Y2540000D03*
%TD*%
D20*
%TO.C,TP3V3*%
X55372000Y23876000D03*
%TD*%
D36*
%TO.C,C9*%
X8700887Y6095999D03*
D37*
X11200888Y6096000D03*
%TD*%
D34*
%TO.C,C1*%
X61165000Y21082000D03*
X58215000Y21082000D03*
%TD*%
D30*
%TO.C,D6*%
X10667999Y13207999D03*
D31*
X18287999Y13207999D03*
%TD*%
D34*
%TO.C,C4*%
X42877000Y42164000D03*
X39927000Y42164000D03*
%TD*%
D38*
%TO.C,J5*%
X13176000Y20918000D03*
D39*
X11175999Y20917999D03*
X9175999Y20917999D03*
%TD*%
D40*
%TO.C,J6*%
X9176000Y57314000D03*
D39*
X11175999Y57313999D03*
X13175999Y57313999D03*
%TD*%
D36*
%TO.C,C10*%
X7809111Y66039999D03*
D37*
X5309112Y66040000D03*
%TD*%
D24*
%TO.C,R13*%
X7620000Y16359500D03*
X7620000Y18184500D03*
%TD*%
D26*
%TO.C,J7*%
X10662999Y61213999D03*
D27*
X13202999Y61213999D03*
%TD*%
D18*
%TO.C,H1*%
X18174000Y74422000D03*
X18876944Y76119056D03*
X18876944Y72724944D03*
X20574000Y76822000D03*
D19*
X20574000Y74422000D03*
D18*
X20574000Y72022000D03*
X22271056Y76119056D03*
X22271056Y72724944D03*
X22974000Y74422000D03*
%TD*%
D41*
%TO.C,BT1*%
X29959000Y29718000D03*
X29959000Y14728000D03*
D42*
X2793999Y14727999D03*
D20*
X2794000Y29718000D03*
%TD*%
D41*
%TO.C,BT2*%
X29959000Y63504000D03*
X29959000Y48514000D03*
D42*
X2793999Y48513999D03*
D20*
X2794000Y63504000D03*
%TD*%
D26*
%TO.C,J4*%
X97286999Y42915999D03*
D27*
X94746999Y42915999D03*
X97286999Y40375999D03*
X94746999Y40375999D03*
X97286999Y37835999D03*
X94746999Y37835999D03*
X97286999Y35295999D03*
X94746999Y35295999D03*
%TD*%
M02*
