%TF.GenerationSoftware,KiCad,Pcbnew,7.0.2-0*%
%TF.CreationDate,2023-09-22T13:09:17+12:00*%
%TF.ProjectId,MainBoard,4d61696e-426f-4617-9264-2e6b69636164,rev?*%
%TF.SameCoordinates,PX48ab840PY7b0df40*%
%TF.FileFunction,Soldermask,Bot*%
%TF.FilePolarity,Negative*%
%FSLAX46Y46*%
G04 Gerber Fmt 4.6, Leading zero omitted, Abs format (unit mm)*
G04 Created by KiCad (PCBNEW 7.0.2-0) date 2023-09-22 13:09:17*
%MOMM*%
%LPD*%
G01*
G04 APERTURE LIST*
G04 Aperture macros list*
%AMRoundRect*
0 Rectangle with rounded corners*
0 $1 Rounding radius*
0 $2 $3 $4 $5 $6 $7 $8 $9 X,Y pos of 4 corners*
0 Add a 4 corners polygon primitive as box body*
4,1,4,$2,$3,$4,$5,$6,$7,$8,$9,$2,$3,0*
0 Add four circle primitives for the rounded corners*
1,1,$1+$1,$2,$3*
1,1,$1+$1,$4,$5*
1,1,$1+$1,$6,$7*
1,1,$1+$1,$8,$9*
0 Add four rect primitives between the rounded corners*
20,1,$1+$1,$2,$3,$4,$5,0*
20,1,$1+$1,$4,$5,$6,$7,0*
20,1,$1+$1,$6,$7,$8,$9,0*
20,1,$1+$1,$8,$9,$2,$3,0*%
G04 Aperture macros list end*
%ADD10R,1.800000X1.800000*%
%ADD11C,1.800000*%
%ADD12C,1.500000*%
%ADD13C,3.000000*%
%ADD14R,1.350000X1.350000*%
%ADD15O,1.350000X1.350000*%
%ADD16C,0.800000*%
%ADD17C,6.400000*%
%ADD18C,2.000000*%
%ADD19R,1.700000X1.700000*%
%ADD20O,1.700000X1.700000*%
%ADD21R,2.200000X2.200000*%
%ADD22O,2.200000X2.200000*%
%ADD23R,1.500000X1.050000*%
%ADD24O,1.500000X1.050000*%
%ADD25R,1.600000X1.600000*%
%ADD26C,1.600000*%
%ADD27RoundRect,0.250000X0.350000X0.625000X-0.350000X0.625000X-0.350000X-0.625000X0.350000X-0.625000X0*%
%ADD28O,1.200000X1.750000*%
%ADD29RoundRect,0.250000X-0.350000X-0.625000X0.350000X-0.625000X0.350000X0.625000X-0.350000X0.625000X0*%
%ADD30C,3.300000*%
%ADD31R,2.000000X2.000000*%
G04 APERTURE END LIST*
D10*
%TO.C,D2*%
X61722000Y48629000D03*
D11*
X61722000Y51169000D03*
%TD*%
D12*
%TO.C,BZ1*%
X50800000Y18990000D03*
X50800000Y11490000D03*
D13*
X48260000Y15240000D03*
X53340000Y15240000D03*
%TD*%
D14*
%TO.C,J9*%
X60706000Y37116000D03*
D15*
X60706000Y39116000D03*
X60706000Y41116000D03*
X60706000Y43116000D03*
X60706000Y45116000D03*
%TD*%
D16*
%TO.C,H4*%
X37050944Y4064000D03*
X37753888Y5761056D03*
X37753888Y2366944D03*
X39450944Y6464000D03*
D17*
X39450944Y4064000D03*
D16*
X39450944Y1664000D03*
X41148000Y5761056D03*
X41148000Y2366944D03*
X41850944Y4064000D03*
%TD*%
D10*
%TO.C,D3*%
X61722000Y56129000D03*
D11*
X61722000Y58669000D03*
%TD*%
D18*
%TO.C,SW1*%
X56948000Y76164000D03*
X63448000Y76164000D03*
X56948000Y71664000D03*
X63448000Y71664000D03*
%TD*%
D19*
%TO.C,J2*%
X48255000Y56627000D03*
D20*
X50795000Y56627000D03*
X48255000Y54087000D03*
X50795000Y54087000D03*
X48255000Y51547000D03*
X50795000Y51547000D03*
%TD*%
D10*
%TO.C,D1*%
X60198000Y2535000D03*
D11*
X60198000Y5075000D03*
%TD*%
D16*
%TO.C,H2*%
X36970000Y74422000D03*
X37672944Y76119056D03*
X37672944Y72724944D03*
X39370000Y76822000D03*
D17*
X39370000Y74422000D03*
D16*
X39370000Y72022000D03*
X41067056Y76119056D03*
X41067056Y72724944D03*
X41770000Y74422000D03*
%TD*%
%TO.C,H3*%
X18174000Y3890944D03*
X18876944Y5588000D03*
X18876944Y2193888D03*
X20574000Y6290944D03*
D17*
X20574000Y3890944D03*
D16*
X20574000Y1490944D03*
X22271056Y5588000D03*
X22271056Y2193888D03*
X22974000Y3890944D03*
%TD*%
D19*
%TO.C,J1*%
X5339000Y3556000D03*
D20*
X2799000Y3556000D03*
%TD*%
D21*
%TO.C,D5*%
X10668000Y64770000D03*
D22*
X18288000Y64770000D03*
%TD*%
D23*
%TO.C,U1*%
X61320000Y25146000D03*
D24*
X61320000Y26416000D03*
X61320000Y27686000D03*
%TD*%
D10*
%TO.C,D4*%
X61722000Y63629000D03*
D11*
X61722000Y66169000D03*
%TD*%
D19*
%TO.C,J8*%
X13213000Y17018000D03*
D20*
X10673000Y17018000D03*
%TD*%
D19*
%TO.C,J3*%
X48260000Y32248000D03*
D20*
X48260000Y29708000D03*
X48260000Y27168000D03*
X48260000Y24628000D03*
%TD*%
D25*
%TO.C,C9*%
X8700888Y6096000D03*
D26*
X11200888Y6096000D03*
%TD*%
D21*
%TO.C,D6*%
X10668000Y13208000D03*
D22*
X18288000Y13208000D03*
%TD*%
D27*
%TO.C,J5*%
X13176000Y20918000D03*
D28*
X11176000Y20918000D03*
X9176000Y20918000D03*
%TD*%
D29*
%TO.C,J6*%
X9176000Y57314000D03*
D28*
X11176000Y57314000D03*
X13176000Y57314000D03*
%TD*%
D25*
%TO.C,C10*%
X7809112Y66040000D03*
D26*
X5309112Y66040000D03*
%TD*%
D19*
%TO.C,J7*%
X10663000Y61214000D03*
D20*
X13203000Y61214000D03*
%TD*%
D16*
%TO.C,H1*%
X18174000Y74422000D03*
X18876944Y76119056D03*
X18876944Y72724944D03*
X20574000Y76822000D03*
D17*
X20574000Y74422000D03*
D16*
X20574000Y72022000D03*
X22271056Y76119056D03*
X22271056Y72724944D03*
X22974000Y74422000D03*
%TD*%
D30*
%TO.C,BT1*%
X29959000Y29718000D03*
X29959000Y14728000D03*
D31*
X2794000Y14728000D03*
D18*
X2794000Y29718000D03*
%TD*%
D30*
%TO.C,BT2*%
X29959000Y63504000D03*
X29959000Y48514000D03*
D31*
X2794000Y48514000D03*
D18*
X2794000Y63504000D03*
%TD*%
D19*
%TO.C,J4*%
X97287000Y42916000D03*
D20*
X94747000Y42916000D03*
X97287000Y40376000D03*
X94747000Y40376000D03*
X97287000Y37836000D03*
X94747000Y37836000D03*
X97287000Y35296000D03*
X94747000Y35296000D03*
%TD*%
M02*
