%TF.GenerationSoftware,KiCad,Pcbnew,(7.0.0)*%
%TF.CreationDate,2023-09-21T17:16:17+12:00*%
%TF.ProjectId,MainBoard,4d61696e-426f-4617-9264-2e6b69636164,rev?*%
%TF.SameCoordinates,PX48ab840PY7b0df40*%
%TF.FileFunction,Legend,Bot*%
%TF.FilePolarity,Positive*%
%FSLAX46Y46*%
G04 Gerber Fmt 4.6, Leading zero omitted, Abs format (unit mm)*
G04 Created by KiCad (PCBNEW (7.0.0)) date 2023-09-21 17:16:17*
%MOMM*%
%LPD*%
G01*
G04 APERTURE LIST*
%ADD10C,0.150000*%
%ADD11C,0.120000*%
G04 APERTURE END LIST*
D10*
X40068571Y48747643D02*
X41211429Y48747643D01*
%TO.C,BT1*%
X31011714Y19460429D02*
X30868857Y19412810D01*
X30868857Y19412810D02*
X30821238Y19365191D01*
X30821238Y19365191D02*
X30773619Y19269953D01*
X30773619Y19269953D02*
X30773619Y19127096D01*
X30773619Y19127096D02*
X30821238Y19031858D01*
X30821238Y19031858D02*
X30868857Y18984239D01*
X30868857Y18984239D02*
X30964095Y18936620D01*
X30964095Y18936620D02*
X31345047Y18936620D01*
X31345047Y18936620D02*
X31345047Y19936620D01*
X31345047Y19936620D02*
X31011714Y19936620D01*
X31011714Y19936620D02*
X30916476Y19889000D01*
X30916476Y19889000D02*
X30868857Y19841381D01*
X30868857Y19841381D02*
X30821238Y19746143D01*
X30821238Y19746143D02*
X30821238Y19650905D01*
X30821238Y19650905D02*
X30868857Y19555667D01*
X30868857Y19555667D02*
X30916476Y19508048D01*
X30916476Y19508048D02*
X31011714Y19460429D01*
X31011714Y19460429D02*
X31345047Y19460429D01*
X30487904Y19936620D02*
X29916476Y19936620D01*
X30202190Y18936620D02*
X30202190Y19936620D01*
X29059333Y18936620D02*
X29630761Y18936620D01*
X29345047Y18936620D02*
X29345047Y19936620D01*
X29345047Y19936620D02*
X29440285Y19793762D01*
X29440285Y19793762D02*
X29535523Y19698524D01*
X29535523Y19698524D02*
X29630761Y19650905D01*
X19720428Y14748358D02*
X18577571Y14748358D01*
X19148999Y14176929D02*
X19148999Y15319786D01*
X41310428Y29738358D02*
X40167571Y29738358D01*
X40738999Y29166929D02*
X40738999Y30309786D01*
X19720428Y29738358D02*
X18577571Y29738358D01*
X-444572Y14748358D02*
X-1587429Y14748358D01*
X-1016001Y14176929D02*
X-1016001Y15319786D01*
X-444572Y29738358D02*
X-1587429Y29738358D01*
X41310428Y14748358D02*
X40167571Y14748358D01*
%TO.C,BT2*%
X30757714Y53496429D02*
X30614857Y53448810D01*
X30614857Y53448810D02*
X30567238Y53401191D01*
X30567238Y53401191D02*
X30519619Y53305953D01*
X30519619Y53305953D02*
X30519619Y53163096D01*
X30519619Y53163096D02*
X30567238Y53067858D01*
X30567238Y53067858D02*
X30614857Y53020239D01*
X30614857Y53020239D02*
X30710095Y52972620D01*
X30710095Y52972620D02*
X31091047Y52972620D01*
X31091047Y52972620D02*
X31091047Y53972620D01*
X31091047Y53972620D02*
X30757714Y53972620D01*
X30757714Y53972620D02*
X30662476Y53925000D01*
X30662476Y53925000D02*
X30614857Y53877381D01*
X30614857Y53877381D02*
X30567238Y53782143D01*
X30567238Y53782143D02*
X30567238Y53686905D01*
X30567238Y53686905D02*
X30614857Y53591667D01*
X30614857Y53591667D02*
X30662476Y53544048D01*
X30662476Y53544048D02*
X30757714Y53496429D01*
X30757714Y53496429D02*
X31091047Y53496429D01*
X30233904Y53972620D02*
X29662476Y53972620D01*
X29948190Y52972620D02*
X29948190Y53972620D01*
X29376761Y53877381D02*
X29329142Y53925000D01*
X29329142Y53925000D02*
X29233904Y53972620D01*
X29233904Y53972620D02*
X28995809Y53972620D01*
X28995809Y53972620D02*
X28900571Y53925000D01*
X28900571Y53925000D02*
X28852952Y53877381D01*
X28852952Y53877381D02*
X28805333Y53782143D01*
X28805333Y53782143D02*
X28805333Y53686905D01*
X28805333Y53686905D02*
X28852952Y53544048D01*
X28852952Y53544048D02*
X29424380Y52972620D01*
X29424380Y52972620D02*
X28805333Y52972620D01*
X19720428Y48534358D02*
X18577571Y48534358D01*
X19148999Y47962929D02*
X19148999Y49105786D01*
X-444572Y63524358D02*
X-1587429Y63524358D01*
X19720428Y63524358D02*
X18577571Y63524358D01*
X-444572Y48534358D02*
X-1587429Y48534358D01*
X-1016001Y47962929D02*
X-1016001Y49105786D01*
X41310428Y63524358D02*
X40167571Y63524358D01*
X40738999Y62952929D02*
X40738999Y64095786D01*
%TO.C,J4*%
X96350333Y45878620D02*
X96350333Y45164334D01*
X96350333Y45164334D02*
X96397952Y45021477D01*
X96397952Y45021477D02*
X96493190Y44926239D01*
X96493190Y44926239D02*
X96636047Y44878620D01*
X96636047Y44878620D02*
X96731285Y44878620D01*
X95445571Y45545286D02*
X95445571Y44878620D01*
X95683666Y45926239D02*
X95921761Y45211953D01*
X95921761Y45211953D02*
X95302714Y45211953D01*
D11*
%TO.C,BT1*%
X104000Y38783000D02*
X59814000Y38783000D01*
X104000Y5663000D02*
X104000Y38783000D01*
X1374000Y37513000D02*
X7719000Y37513000D01*
X1374000Y21969000D02*
X58544000Y21969000D01*
X1374000Y6933000D02*
X1374000Y37513000D01*
X7719000Y37513000D02*
X7719000Y34973000D01*
X7719000Y34973000D02*
X20419000Y34973000D01*
X7719000Y9473000D02*
X7719000Y6933000D01*
X7719000Y9473000D02*
X20419000Y9473000D01*
X7719000Y6933000D02*
X1374000Y6933000D01*
X20419000Y37513000D02*
X39469000Y37513000D01*
X20419000Y34973000D02*
X20419000Y37513000D01*
X20419000Y32258000D02*
X20419000Y27178000D01*
X20419000Y27178000D02*
X38199000Y27178000D01*
X20419000Y15998000D02*
X20419000Y13458000D01*
X20419000Y13458000D02*
X21689000Y13458000D01*
X20419000Y6933000D02*
X20419000Y9473000D01*
X21689000Y17268000D02*
X21689000Y15998000D01*
X21689000Y15998000D02*
X20419000Y15998000D01*
X21689000Y13458000D02*
X21689000Y12188000D01*
X21689000Y12188000D02*
X39469000Y12188000D01*
X38199000Y32258000D02*
X20419000Y32258000D01*
X38199000Y30988000D02*
X38199000Y32258000D01*
X38199000Y28448000D02*
X39469000Y28448000D01*
X38199000Y27178000D02*
X38199000Y28448000D01*
X39469000Y37513000D02*
X39469000Y34973000D01*
X39469000Y30988000D02*
X38199000Y30988000D01*
X39469000Y28448000D02*
X39469000Y30988000D01*
X39469000Y17268000D02*
X21689000Y17268000D01*
X39469000Y13458000D02*
X39469000Y17268000D01*
X39469000Y12188000D02*
X39469000Y13458000D01*
X39469000Y9473000D02*
X39469000Y6933000D01*
X39469000Y6933000D02*
X20419000Y6933000D01*
X52169000Y37513000D02*
X52169000Y34973000D01*
X52169000Y34973000D02*
X39469000Y34973000D01*
X52169000Y9473000D02*
X39469000Y9473000D01*
X52169000Y6933000D02*
X52169000Y9473000D01*
X58544000Y37513000D02*
X52169000Y37513000D01*
X58544000Y22477000D02*
X1374000Y22477000D01*
X58544000Y6933000D02*
X52169000Y6933000D01*
X58544000Y6933000D02*
X58544000Y37513000D01*
X59814000Y38783000D02*
X59814000Y5663000D01*
X59814000Y5663000D02*
X104000Y5663000D01*
%TO.C,BT2*%
X104000Y72569000D02*
X59814000Y72569000D01*
X104000Y39449000D02*
X104000Y72569000D01*
X1374000Y71299000D02*
X7719000Y71299000D01*
X1374000Y55755000D02*
X58544000Y55755000D01*
X1374000Y40719000D02*
X1374000Y71299000D01*
X7719000Y71299000D02*
X7719000Y68759000D01*
X7719000Y68759000D02*
X20419000Y68759000D01*
X7719000Y43259000D02*
X7719000Y40719000D01*
X7719000Y43259000D02*
X20419000Y43259000D01*
X7719000Y40719000D02*
X1374000Y40719000D01*
X20419000Y71299000D02*
X39469000Y71299000D01*
X20419000Y68759000D02*
X20419000Y71299000D01*
X20419000Y66044000D02*
X20419000Y60964000D01*
X20419000Y60964000D02*
X38199000Y60964000D01*
X20419000Y49784000D02*
X20419000Y47244000D01*
X20419000Y47244000D02*
X21689000Y47244000D01*
X20419000Y40719000D02*
X20419000Y43259000D01*
X21689000Y51054000D02*
X21689000Y49784000D01*
X21689000Y49784000D02*
X20419000Y49784000D01*
X21689000Y47244000D02*
X21689000Y45974000D01*
X21689000Y45974000D02*
X39469000Y45974000D01*
X38199000Y66044000D02*
X20419000Y66044000D01*
X38199000Y64774000D02*
X38199000Y66044000D01*
X38199000Y62234000D02*
X39469000Y62234000D01*
X38199000Y60964000D02*
X38199000Y62234000D01*
X39469000Y71299000D02*
X39469000Y68759000D01*
X39469000Y64774000D02*
X38199000Y64774000D01*
X39469000Y62234000D02*
X39469000Y64774000D01*
X39469000Y51054000D02*
X21689000Y51054000D01*
X39469000Y47244000D02*
X39469000Y51054000D01*
X39469000Y45974000D02*
X39469000Y47244000D01*
X39469000Y43259000D02*
X39469000Y40719000D01*
X39469000Y40719000D02*
X20419000Y40719000D01*
X52169000Y71299000D02*
X52169000Y68759000D01*
X52169000Y68759000D02*
X39469000Y68759000D01*
X52169000Y43259000D02*
X39469000Y43259000D01*
X52169000Y40719000D02*
X52169000Y43259000D01*
X58544000Y71299000D02*
X52169000Y71299000D01*
X58544000Y56263000D02*
X1374000Y56263000D01*
X58544000Y40719000D02*
X52169000Y40719000D01*
X58544000Y40719000D02*
X58544000Y71299000D01*
X59814000Y72569000D02*
X59814000Y39449000D01*
X59814000Y39449000D02*
X104000Y39449000D01*
%TO.C,J4*%
X98617000Y33966000D02*
X93417000Y33966000D01*
X98617000Y41646000D02*
X98617000Y33966000D01*
X98617000Y41646000D02*
X96017000Y41646000D01*
X98617000Y42916000D02*
X98617000Y44246000D01*
X98617000Y44246000D02*
X97287000Y44246000D01*
X96017000Y41646000D02*
X96017000Y44246000D01*
X96017000Y44246000D02*
X93417000Y44246000D01*
X93417000Y44246000D02*
X93417000Y33966000D01*
%TD*%
M02*
