%TF.GenerationSoftware,KiCad,Pcbnew,7.0.2-0*%
%TF.CreationDate,2023-09-22T13:09:17+12:00*%
%TF.ProjectId,MainBoard,4d61696e-426f-4617-9264-2e6b69636164,rev?*%
%TF.SameCoordinates,PX48ab840PY7b0df40*%
%TF.FileFunction,Copper,L2,Bot*%
%TF.FilePolarity,Positive*%
%FSLAX46Y46*%
G04 Gerber Fmt 4.6, Leading zero omitted, Abs format (unit mm)*
G04 Created by KiCad (PCBNEW 7.0.2-0) date 2023-09-22 13:09:17*
%MOMM*%
%LPD*%
G01*
G04 APERTURE LIST*
G04 Aperture macros list*
%AMRoundRect*
0 Rectangle with rounded corners*
0 $1 Rounding radius*
0 $2 $3 $4 $5 $6 $7 $8 $9 X,Y pos of 4 corners*
0 Add a 4 corners polygon primitive as box body*
4,1,4,$2,$3,$4,$5,$6,$7,$8,$9,$2,$3,0*
0 Add four circle primitives for the rounded corners*
1,1,$1+$1,$2,$3*
1,1,$1+$1,$4,$5*
1,1,$1+$1,$6,$7*
1,1,$1+$1,$8,$9*
0 Add four rect primitives between the rounded corners*
20,1,$1+$1,$2,$3,$4,$5,0*
20,1,$1+$1,$4,$5,$6,$7,0*
20,1,$1+$1,$6,$7,$8,$9,0*
20,1,$1+$1,$8,$9,$2,$3,0*%
G04 Aperture macros list end*
%TA.AperFunction,ComponentPad*%
%ADD10R,1.800000X1.800000*%
%TD*%
%TA.AperFunction,ComponentPad*%
%ADD11C,1.800000*%
%TD*%
%TA.AperFunction,WasherPad*%
%ADD12C,1.500000*%
%TD*%
%TA.AperFunction,ComponentPad*%
%ADD13C,3.000000*%
%TD*%
%TA.AperFunction,ComponentPad*%
%ADD14R,1.350000X1.350000*%
%TD*%
%TA.AperFunction,ComponentPad*%
%ADD15O,1.350000X1.350000*%
%TD*%
%TA.AperFunction,ComponentPad*%
%ADD16C,0.800000*%
%TD*%
%TA.AperFunction,ComponentPad*%
%ADD17C,6.400000*%
%TD*%
%TA.AperFunction,ComponentPad*%
%ADD18C,2.000000*%
%TD*%
%TA.AperFunction,ComponentPad*%
%ADD19R,1.700000X1.700000*%
%TD*%
%TA.AperFunction,ComponentPad*%
%ADD20O,1.700000X1.700000*%
%TD*%
%TA.AperFunction,ComponentPad*%
%ADD21R,2.200000X2.200000*%
%TD*%
%TA.AperFunction,ComponentPad*%
%ADD22O,2.200000X2.200000*%
%TD*%
%TA.AperFunction,ComponentPad*%
%ADD23R,1.500000X1.050000*%
%TD*%
%TA.AperFunction,ComponentPad*%
%ADD24O,1.500000X1.050000*%
%TD*%
%TA.AperFunction,ComponentPad*%
%ADD25R,1.600000X1.600000*%
%TD*%
%TA.AperFunction,ComponentPad*%
%ADD26C,1.600000*%
%TD*%
%TA.AperFunction,ComponentPad*%
%ADD27RoundRect,0.250000X0.350000X0.625000X-0.350000X0.625000X-0.350000X-0.625000X0.350000X-0.625000X0*%
%TD*%
%TA.AperFunction,ComponentPad*%
%ADD28O,1.200000X1.750000*%
%TD*%
%TA.AperFunction,ComponentPad*%
%ADD29RoundRect,0.250000X-0.350000X-0.625000X0.350000X-0.625000X0.350000X0.625000X-0.350000X0.625000X0*%
%TD*%
%TA.AperFunction,ComponentPad*%
%ADD30R,2.000000X2.000000*%
%TD*%
%TA.AperFunction,ViaPad*%
%ADD31C,0.800000*%
%TD*%
%TA.AperFunction,Conductor*%
%ADD32C,0.300000*%
%TD*%
G04 APERTURE END LIST*
D10*
%TO.P,D2,1,K*%
%TO.N,GND*%
X61722000Y48629000D03*
D11*
%TO.P,D2,2,A*%
%TO.N,Net-(D2-A)*%
X61722000Y51169000D03*
%TD*%
D12*
%TO.P,BZ1,*%
%TO.N,*%
X50800000Y18990000D03*
X50800000Y11490000D03*
D13*
%TO.P,BZ1,1,-*%
%TO.N,/BUZZER*%
X48260000Y15240000D03*
%TO.P,BZ1,2,+*%
%TO.N,GND*%
X53340000Y15240000D03*
%TD*%
D14*
%TO.P,J9,1,Pin_1*%
%TO.N,/IR_1*%
X60706000Y37116000D03*
D15*
%TO.P,J9,2,Pin_2*%
%TO.N,/IR_2*%
X60706000Y39116000D03*
%TO.P,J9,3,Pin_3*%
%TO.N,/IR_3*%
X60706000Y41116000D03*
%TO.P,J9,4,Pin_4*%
%TO.N,/IR_4*%
X60706000Y43116000D03*
%TO.P,J9,5,Pin_5*%
%TO.N,/IR_5*%
X60706000Y45116000D03*
%TD*%
D16*
%TO.P,H4,1*%
%TO.N,N/C*%
X37050944Y4064000D03*
X37753888Y5761056D03*
X37753888Y2366944D03*
X39450944Y6464000D03*
D17*
X39450944Y4064000D03*
D16*
X39450944Y1664000D03*
X41148000Y5761056D03*
X41148000Y2366944D03*
X41850944Y4064000D03*
%TD*%
D10*
%TO.P,D3,1,K*%
%TO.N,GND*%
X61722000Y56129000D03*
D11*
%TO.P,D3,2,A*%
%TO.N,Net-(D3-A)*%
X61722000Y58669000D03*
%TD*%
D18*
%TO.P,SW1,1,A*%
%TO.N,Net-(SW1-A)*%
X56948000Y76164000D03*
X63448000Y76164000D03*
%TO.P,SW1,2,B*%
%TO.N,GND*%
X56948000Y71664000D03*
X63448000Y71664000D03*
%TD*%
D19*
%TO.P,J2,1,Pin_1*%
%TO.N,/UPDI_DATA*%
X48255000Y56627000D03*
D20*
%TO.P,J2,2,Pin_2*%
%TO.N,+3V3*%
X50795000Y56627000D03*
%TO.P,J2,3,Pin_3*%
%TO.N,unconnected-(J2-Pin_3-Pad3)*%
X48255000Y54087000D03*
%TO.P,J2,4,Pin_4*%
%TO.N,unconnected-(J2-Pin_4-Pad4)*%
X50795000Y54087000D03*
%TO.P,J2,5,Pin_5*%
%TO.N,unconnected-(J2-Pin_5-Pad5)*%
X48255000Y51547000D03*
%TO.P,J2,6,Pin_6*%
%TO.N,GND*%
X50795000Y51547000D03*
%TD*%
D10*
%TO.P,D1,1,K*%
%TO.N,Net-(D1-K)*%
X60198000Y2535000D03*
D11*
%TO.P,D1,2,A*%
%TO.N,+6V*%
X60198000Y5075000D03*
%TD*%
D16*
%TO.P,H2,1*%
%TO.N,N/C*%
X36970000Y74422000D03*
X37672944Y76119056D03*
X37672944Y72724944D03*
X39370000Y76822000D03*
D17*
X39370000Y74422000D03*
D16*
X39370000Y72022000D03*
X41067056Y76119056D03*
X41067056Y72724944D03*
X41770000Y74422000D03*
%TD*%
%TO.P,H3,1*%
%TO.N,N/C*%
X18174000Y3890944D03*
X18876944Y5588000D03*
X18876944Y2193888D03*
X20574000Y6290944D03*
D17*
X20574000Y3890944D03*
D16*
X20574000Y1490944D03*
X22271056Y5588000D03*
X22271056Y2193888D03*
X22974000Y3890944D03*
%TD*%
D19*
%TO.P,J1,1,Pin_1*%
%TO.N,+6V*%
X5339000Y3556000D03*
D20*
%TO.P,J1,2,Pin_2*%
%TO.N,Net-(BT1-+)*%
X2799000Y3556000D03*
%TD*%
D21*
%TO.P,D5,1,K*%
%TO.N,Net-(D5-K)*%
X10668000Y64770000D03*
D22*
%TO.P,D5,2,A*%
%TO.N,Net-(D5-A)*%
X18288000Y64770000D03*
%TD*%
D23*
%TO.P,U1,1,GND*%
%TO.N,GND*%
X61320000Y25146000D03*
D24*
%TO.P,U1,2,VI*%
%TO.N,+6V*%
X61320000Y26416000D03*
%TO.P,U1,3,VO*%
%TO.N,Net-(U1-VO)*%
X61320000Y27686000D03*
%TD*%
D10*
%TO.P,D4,1,K*%
%TO.N,GND*%
X61722000Y63629000D03*
D11*
%TO.P,D4,2,A*%
%TO.N,Net-(D4-A)*%
X61722000Y66169000D03*
%TD*%
D19*
%TO.P,J8,1,Pin_1*%
%TO.N,Net-(D6-A)*%
X13213000Y17018000D03*
D20*
%TO.P,J8,2,Pin_2*%
%TO.N,Net-(D6-K)*%
X10673000Y17018000D03*
%TD*%
D19*
%TO.P,J3,1,Pin_1*%
%TO.N,+3V3*%
X48260000Y32248000D03*
D20*
%TO.P,J3,2,Pin_2*%
%TO.N,/TxD*%
X48260000Y29708000D03*
%TO.P,J3,3,Pin_3*%
%TO.N,/RxD*%
X48260000Y27168000D03*
%TO.P,J3,4,Pin_4*%
%TO.N,GND*%
X48260000Y24628000D03*
%TD*%
D25*
%TO.P,C9,1*%
%TO.N,+6V*%
X8700888Y6096000D03*
D26*
%TO.P,C9,2*%
%TO.N,GND*%
X11200888Y6096000D03*
%TD*%
D21*
%TO.P,D6,1,K*%
%TO.N,Net-(D6-K)*%
X10668000Y13208000D03*
D22*
%TO.P,D6,2,A*%
%TO.N,Net-(D6-A)*%
X18288000Y13208000D03*
%TD*%
D27*
%TO.P,J5,1,Pin_1*%
%TO.N,Net-(D6-A)*%
X13176000Y20918000D03*
D28*
%TO.P,J5,2,Pin_2*%
%TO.N,unconnected-(J5-Pin_2-Pad2)*%
X11176000Y20918000D03*
%TO.P,J5,3,Pin_3*%
%TO.N,Net-(D6-K)*%
X9176000Y20918000D03*
%TD*%
D29*
%TO.P,J6,1,Pin_1*%
%TO.N,Net-(D5-K)*%
X9176000Y57314000D03*
D28*
%TO.P,J6,2,Pin_2*%
%TO.N,unconnected-(J6-Pin_2-Pad2)*%
X11176000Y57314000D03*
%TO.P,J6,3,Pin_3*%
%TO.N,Net-(D5-A)*%
X13176000Y57314000D03*
%TD*%
D25*
%TO.P,C10,1*%
%TO.N,+6V*%
X7809112Y66040000D03*
D26*
%TO.P,C10,2*%
%TO.N,GND*%
X5309112Y66040000D03*
%TD*%
D19*
%TO.P,J7,1,Pin_1*%
%TO.N,Net-(D5-K)*%
X10663000Y61214000D03*
D20*
%TO.P,J7,2,Pin_2*%
%TO.N,Net-(D5-A)*%
X13203000Y61214000D03*
%TD*%
D16*
%TO.P,H1,1,1*%
%TO.N,GND*%
X18174000Y74422000D03*
X18876944Y76119056D03*
X18876944Y72724944D03*
X20574000Y76822000D03*
D17*
X20574000Y74422000D03*
D16*
X20574000Y72022000D03*
X22271056Y76119056D03*
X22271056Y72724944D03*
X22974000Y74422000D03*
%TD*%
D30*
%TO.P,BT1,1,+*%
%TO.N,Net-(BT1-+)*%
X2794000Y14728000D03*
D18*
%TO.P,BT1,2,-*%
%TO.N,Net-(BT1--)*%
X2794000Y29718000D03*
%TD*%
D30*
%TO.P,BT2,1,+*%
%TO.N,Net-(BT1--)*%
X2794000Y48514000D03*
D18*
%TO.P,BT2,2,-*%
%TO.N,GND*%
X2794000Y63504000D03*
%TD*%
D19*
%TO.P,J4,1,Pin_1*%
%TO.N,/IR_5*%
X97287000Y42916000D03*
D20*
%TO.P,J4,2,Pin_2*%
%TO.N,/IR_4*%
X94747000Y42916000D03*
%TO.P,J4,3,Pin_3*%
%TO.N,/IR_3*%
X97287000Y40376000D03*
%TO.P,J4,4,Pin_4*%
%TO.N,GND*%
X94747000Y40376000D03*
%TO.P,J4,5,Pin_5*%
%TO.N,/IR_2*%
X97287000Y37836000D03*
%TO.P,J4,6,Pin_6*%
%TO.N,Net-(J4-Pin_6)*%
X94747000Y37836000D03*
%TO.P,J4,7,Pin_7*%
%TO.N,/IR_1*%
X97287000Y35296000D03*
%TO.P,J4,8,Pin_8*%
%TO.N,GND*%
X94747000Y35296000D03*
%TD*%
D31*
%TO.N,GND*%
X17033317Y60960000D03*
X59436000Y50038000D03*
X43180000Y50800000D03*
X15240000Y67818000D03*
X19050000Y21844000D03*
X58166000Y32766000D03*
X51816000Y2540000D03*
X53340000Y48260000D03*
X58166000Y19050000D03*
X18288000Y60960000D03*
X15240000Y10160000D03*
X39878000Y44196000D03*
X17526000Y21844000D03*
X44958000Y41148000D03*
%TO.N,+3V3*%
X54864000Y48260000D03*
%TD*%
D32*
%TO.N,+3V3*%
X53086000Y51308000D02*
X53086000Y54336000D01*
X54864000Y49530000D02*
X53086000Y51308000D01*
X54864000Y48260000D02*
X54864000Y49530000D01*
X53086000Y54336000D02*
X50795000Y56627000D01*
%TD*%
%TA.AperFunction,Conductor*%
%TO.N,GND*%
G36*
X37320197Y77711815D02*
G01*
X37365952Y77659011D01*
X37375896Y77589853D01*
X37346871Y77526297D01*
X37320693Y77503505D01*
X37194644Y77421648D01*
X37194638Y77421645D01*
X37191916Y77419876D01*
X37189396Y77417836D01*
X37189390Y77417831D01*
X36893002Y77177821D01*
X36892991Y77177812D01*
X36890484Y77175781D01*
X36888199Y77173497D01*
X36888189Y77173487D01*
X36618513Y76903811D01*
X36618503Y76903801D01*
X36616219Y76901516D01*
X36614188Y76899009D01*
X36614179Y76898998D01*
X36374169Y76602610D01*
X36374164Y76602604D01*
X36372124Y76600084D01*
X36370355Y76597362D01*
X36370352Y76597356D01*
X36162646Y76277517D01*
X36162641Y76277509D01*
X36160875Y76274789D01*
X36159408Y76271910D01*
X36159400Y76271896D01*
X35986259Y75932087D01*
X35986251Y75932071D01*
X35984786Y75929194D01*
X35983625Y75926172D01*
X35983622Y75926163D01*
X35846946Y75570111D01*
X35846941Y75570098D01*
X35845786Y75567087D01*
X35844950Y75563969D01*
X35844947Y75563958D01*
X35746237Y75195567D01*
X35746234Y75195554D01*
X35745398Y75192433D01*
X35744892Y75189242D01*
X35744889Y75189225D01*
X35685229Y74812544D01*
X35685227Y74812530D01*
X35684722Y74809338D01*
X35664422Y74422000D01*
X35684722Y74034662D01*
X35685227Y74031469D01*
X35685229Y74031457D01*
X35744889Y73654776D01*
X35744891Y73654763D01*
X35745398Y73651567D01*
X35845786Y73276913D01*
X35984786Y72914806D01*
X35986255Y72911923D01*
X35986259Y72911914D01*
X36159400Y72572105D01*
X36160875Y72569211D01*
X36372124Y72243916D01*
X36616219Y71942484D01*
X36890484Y71668219D01*
X37191916Y71424124D01*
X37517211Y71212875D01*
X37862806Y71036786D01*
X38224913Y70897786D01*
X38599567Y70797398D01*
X38982662Y70736722D01*
X39370000Y70716422D01*
X39757338Y70736722D01*
X40140433Y70797398D01*
X40515087Y70897786D01*
X40877194Y71036786D01*
X41222789Y71212875D01*
X41548084Y71424124D01*
X41849516Y71668219D01*
X42123781Y71942484D01*
X42367876Y72243916D01*
X42579125Y72569211D01*
X42755214Y72914806D01*
X42894214Y73276913D01*
X42994602Y73651567D01*
X43055278Y74034662D01*
X43075578Y74422000D01*
X43055278Y74809338D01*
X42994602Y75192433D01*
X42894214Y75567087D01*
X42755214Y75929194D01*
X42579125Y76274789D01*
X42367876Y76600084D01*
X42123781Y76901516D01*
X41849516Y77175781D01*
X41548084Y77419876D01*
X41485227Y77460696D01*
X41419307Y77503505D01*
X41373804Y77556526D01*
X41364190Y77625731D01*
X41393517Y77689148D01*
X41452474Y77726642D01*
X41486842Y77731500D01*
X56202161Y77731500D01*
X56269200Y77711815D01*
X56314955Y77659011D01*
X56324899Y77589853D01*
X56295874Y77526297D01*
X56261182Y77498448D01*
X56155021Y77440997D01*
X56124485Y77424471D01*
X55928259Y77271741D01*
X55928256Y77271739D01*
X55928256Y77271738D01*
X55837810Y77173487D01*
X55759837Y77088786D01*
X55623825Y76880605D01*
X55523938Y76652883D01*
X55462891Y76411817D01*
X55442356Y76164000D01*
X55462891Y75916184D01*
X55462891Y75916181D01*
X55462892Y75916179D01*
X55523937Y75675119D01*
X55568960Y75572477D01*
X55623825Y75447396D01*
X55623827Y75447393D01*
X55759836Y75239215D01*
X55928256Y75056262D01*
X55928259Y75056260D01*
X56124485Y74903530D01*
X56124487Y74903529D01*
X56124491Y74903526D01*
X56343190Y74785172D01*
X56578386Y74704429D01*
X56823665Y74663500D01*
X57072335Y74663500D01*
X57317614Y74704429D01*
X57552810Y74785172D01*
X57771509Y74903526D01*
X57967744Y75056262D01*
X58136164Y75239215D01*
X58272173Y75447393D01*
X58372063Y75675119D01*
X58433108Y75916179D01*
X58453643Y76164000D01*
X58433108Y76411821D01*
X58372063Y76652881D01*
X58272173Y76880607D01*
X58136164Y77088785D01*
X57967744Y77271738D01*
X57945612Y77288964D01*
X57771514Y77424471D01*
X57771510Y77424474D01*
X57771509Y77424474D01*
X57634819Y77498447D01*
X57585231Y77547665D01*
X57570123Y77615881D01*
X57594293Y77681437D01*
X57650069Y77723518D01*
X57693839Y77731500D01*
X62702161Y77731500D01*
X62769200Y77711815D01*
X62814955Y77659011D01*
X62824899Y77589853D01*
X62795874Y77526297D01*
X62761182Y77498448D01*
X62655021Y77440997D01*
X62624485Y77424471D01*
X62428259Y77271741D01*
X62428256Y77271739D01*
X62428256Y77271738D01*
X62337810Y77173487D01*
X62259837Y77088786D01*
X62123825Y76880605D01*
X62023938Y76652883D01*
X61962891Y76411817D01*
X61942356Y76164000D01*
X61962891Y75916184D01*
X61962891Y75916181D01*
X61962892Y75916179D01*
X62023937Y75675119D01*
X62068960Y75572477D01*
X62123825Y75447396D01*
X62123827Y75447393D01*
X62259836Y75239215D01*
X62428256Y75056262D01*
X62428259Y75056260D01*
X62624485Y74903530D01*
X62624487Y74903529D01*
X62624491Y74903526D01*
X62843190Y74785172D01*
X63078386Y74704429D01*
X63323665Y74663500D01*
X63572335Y74663500D01*
X63817614Y74704429D01*
X64052810Y74785172D01*
X64271509Y74903526D01*
X64467744Y75056262D01*
X64636164Y75239215D01*
X64772173Y75447393D01*
X64793943Y75497025D01*
X64838900Y75550511D01*
X64905636Y75571201D01*
X64972964Y75552527D01*
X65019507Y75500416D01*
X65031500Y75447215D01*
X65031500Y49087893D01*
X65031500Y49087892D01*
X65031500Y49022000D01*
X65031500Y48865513D01*
X65031889Y48862057D01*
X65031890Y48862047D01*
X65066150Y48557977D01*
X65066541Y48554508D01*
X65067313Y48551123D01*
X65067316Y48551109D01*
X65135407Y48252784D01*
X65135409Y48252776D01*
X65136184Y48249382D01*
X65137333Y48246096D01*
X65137337Y48246085D01*
X65238403Y47957258D01*
X65239553Y47953972D01*
X65241059Y47950845D01*
X65241061Y47950840D01*
X65348479Y47727784D01*
X65375347Y47671993D01*
X65506770Y47462834D01*
X65512994Y47452930D01*
X65532000Y47386959D01*
X65532000Y46736000D01*
X66182957Y46736000D01*
X66248929Y46716994D01*
X66465053Y46581194D01*
X66465057Y46581192D01*
X66467993Y46579347D01*
X66749972Y46443553D01*
X67045382Y46340184D01*
X67350508Y46270541D01*
X67661513Y46235500D01*
X67782201Y46235500D01*
X99451500Y46235500D01*
X99518539Y46215815D01*
X99564294Y46163011D01*
X99575500Y46111500D01*
X99575500Y32120500D01*
X99555815Y32053461D01*
X99503011Y32007706D01*
X99451500Y31996500D01*
X67883892Y31996500D01*
X67818000Y31996500D01*
X67661513Y31996500D01*
X67658057Y31996111D01*
X67658046Y31996110D01*
X67353976Y31961850D01*
X67353971Y31961850D01*
X67350508Y31961459D01*
X67347125Y31960687D01*
X67347108Y31960684D01*
X67048783Y31892593D01*
X67048770Y31892590D01*
X67045382Y31891816D01*
X67042100Y31890668D01*
X67042084Y31890663D01*
X66753257Y31789597D01*
X66753248Y31789594D01*
X66749972Y31788447D01*
X66746850Y31786944D01*
X66746839Y31786939D01*
X66471121Y31654160D01*
X66471112Y31654156D01*
X66467993Y31652653D01*
X66465070Y31650817D01*
X66465053Y31650807D01*
X66248929Y31515006D01*
X66182957Y31496000D01*
X65532000Y31496000D01*
X65532000Y30845044D01*
X65512994Y30779072D01*
X65377193Y30562947D01*
X65377183Y30562930D01*
X65375347Y30560007D01*
X65373844Y30556888D01*
X65373840Y30556879D01*
X65241061Y30281161D01*
X65241056Y30281150D01*
X65239553Y30278028D01*
X65238406Y30274752D01*
X65238403Y30274743D01*
X65137337Y29985916D01*
X65137332Y29985900D01*
X65136184Y29982618D01*
X65135410Y29979230D01*
X65135407Y29979217D01*
X65067316Y29680892D01*
X65067313Y29680875D01*
X65066541Y29677492D01*
X65066150Y29674029D01*
X65066150Y29674024D01*
X65031890Y29369954D01*
X65031889Y29369943D01*
X65031500Y29366487D01*
X65031500Y29363002D01*
X65031500Y624500D01*
X65011815Y557461D01*
X64959011Y511706D01*
X64907500Y500500D01*
X41124730Y500500D01*
X41057691Y520185D01*
X41011936Y572989D01*
X41001992Y642147D01*
X41031017Y705703D01*
X41068435Y734985D01*
X41303733Y854875D01*
X41629028Y1066124D01*
X41930460Y1310219D01*
X42204725Y1584484D01*
X42448820Y1885916D01*
X42660069Y2211211D01*
X42836158Y2556806D01*
X42975158Y2918913D01*
X43075546Y3293567D01*
X43136222Y3676662D01*
X43156522Y4064000D01*
X43136222Y4451338D01*
X43075546Y4834433D01*
X43011086Y5075000D01*
X58792699Y5075000D01*
X58811865Y4843701D01*
X58811865Y4843699D01*
X58811866Y4843695D01*
X58868843Y4618700D01*
X58868844Y4618697D01*
X58942255Y4451338D01*
X58962076Y4406151D01*
X59089021Y4211847D01*
X59183803Y4108886D01*
X59214724Y4046233D01*
X59206864Y3976807D01*
X59162717Y3922652D01*
X59135906Y3908724D01*
X59055671Y3878798D01*
X58940454Y3792546D01*
X58854204Y3677332D01*
X58803909Y3542484D01*
X58799385Y3500401D01*
X58797500Y3482873D01*
X58797500Y3479552D01*
X58797500Y3479551D01*
X58797500Y1590440D01*
X58797500Y1590422D01*
X58797501Y1587128D01*
X58797853Y1583848D01*
X58797854Y1583841D01*
X58803909Y1527517D01*
X58854204Y1392669D01*
X58940454Y1277454D01*
X59055669Y1191204D01*
X59190517Y1140909D01*
X59250127Y1134500D01*
X61145872Y1134501D01*
X61205483Y1140909D01*
X61340331Y1191204D01*
X61455546Y1277454D01*
X61541796Y1392669D01*
X61592091Y1527517D01*
X61598500Y1587127D01*
X61598499Y3482872D01*
X61592091Y3542483D01*
X61541796Y3677331D01*
X61455546Y3792546D01*
X61340331Y3878796D01*
X61287357Y3898554D01*
X61260093Y3908723D01*
X61204160Y3950595D01*
X61179743Y4016060D01*
X61194595Y4084332D01*
X61212194Y4108884D01*
X61306979Y4211847D01*
X61433924Y4406151D01*
X61527157Y4618700D01*
X61584134Y4843695D01*
X61603300Y5075000D01*
X61584134Y5306305D01*
X61527157Y5531300D01*
X61433924Y5743849D01*
X61306979Y5938153D01*
X61149784Y6108913D01*
X60966626Y6251470D01*
X60762503Y6361936D01*
X60762499Y6361938D01*
X60762498Y6361938D01*
X60542984Y6437298D01*
X60371281Y6465950D01*
X60314049Y6475500D01*
X60081951Y6475500D01*
X60036164Y6467860D01*
X59853015Y6437298D01*
X59633501Y6361938D01*
X59429372Y6251469D01*
X59246215Y6108913D01*
X59089020Y5938152D01*
X58962076Y5743850D01*
X58868844Y5531304D01*
X58868842Y5531300D01*
X58868843Y5531300D01*
X58835122Y5398138D01*
X58811865Y5306300D01*
X58792699Y5075000D01*
X43011086Y5075000D01*
X42975158Y5209087D01*
X42836158Y5571194D01*
X42660069Y5916789D01*
X42448820Y6242084D01*
X42204725Y6543516D01*
X41930460Y6817781D01*
X41629028Y7061876D01*
X41303733Y7273125D01*
X41300845Y7274597D01*
X41300839Y7274600D01*
X40961030Y7447741D01*
X40961021Y7447745D01*
X40958138Y7449214D01*
X40955106Y7450378D01*
X40599054Y7587054D01*
X40599046Y7587057D01*
X40596031Y7588214D01*
X40592906Y7589052D01*
X40592901Y7589053D01*
X40224510Y7687763D01*
X40224501Y7687765D01*
X40221377Y7688602D01*
X40218181Y7689109D01*
X40218168Y7689111D01*
X39841487Y7748771D01*
X39841475Y7748773D01*
X39838282Y7749278D01*
X39835047Y7749448D01*
X39835043Y7749448D01*
X39454188Y7769408D01*
X39450944Y7769578D01*
X39447700Y7769408D01*
X39066844Y7749448D01*
X39066838Y7749448D01*
X39063606Y7749278D01*
X39060414Y7748773D01*
X39060400Y7748771D01*
X38683719Y7689111D01*
X38683702Y7689108D01*
X38680511Y7688602D01*
X38677390Y7687766D01*
X38677377Y7687763D01*
X38308986Y7589053D01*
X38308975Y7589050D01*
X38305857Y7588214D01*
X38302846Y7587059D01*
X38302833Y7587054D01*
X37946781Y7450378D01*
X37946772Y7450375D01*
X37943750Y7449214D01*
X37940873Y7447749D01*
X37940857Y7447741D01*
X37601048Y7274600D01*
X37601034Y7274592D01*
X37598155Y7273125D01*
X37595435Y7271359D01*
X37595427Y7271354D01*
X37275588Y7063648D01*
X37275582Y7063645D01*
X37272860Y7061876D01*
X37270340Y7059836D01*
X37270334Y7059831D01*
X36973946Y6819821D01*
X36973935Y6819812D01*
X36971428Y6817781D01*
X36969143Y6815497D01*
X36969133Y6815487D01*
X36699457Y6545811D01*
X36699447Y6545801D01*
X36697163Y6543516D01*
X36695132Y6541009D01*
X36695123Y6540998D01*
X36455113Y6244610D01*
X36455108Y6244604D01*
X36453068Y6242084D01*
X36451299Y6239362D01*
X36451296Y6239356D01*
X36243590Y5919517D01*
X36243585Y5919509D01*
X36241819Y5916789D01*
X36240352Y5913910D01*
X36240344Y5913896D01*
X36067203Y5574087D01*
X36067195Y5574071D01*
X36065730Y5571194D01*
X36064569Y5568172D01*
X36064566Y5568163D01*
X35927890Y5212111D01*
X35927885Y5212098D01*
X35926730Y5209087D01*
X35925894Y5205969D01*
X35925891Y5205958D01*
X35827181Y4837567D01*
X35827178Y4837554D01*
X35826342Y4834433D01*
X35825836Y4831242D01*
X35825833Y4831225D01*
X35766173Y4454544D01*
X35766171Y4454530D01*
X35765666Y4451338D01*
X35765496Y4448106D01*
X35765496Y4448100D01*
X35746432Y4084332D01*
X35745366Y4064000D01*
X35745536Y4060757D01*
X35759592Y3792546D01*
X35765666Y3676662D01*
X35766171Y3673469D01*
X35766173Y3673457D01*
X35825833Y3296776D01*
X35825835Y3296763D01*
X35826342Y3293567D01*
X35827179Y3290443D01*
X35827181Y3290434D01*
X35880261Y3092338D01*
X35926730Y2918913D01*
X35927887Y2915898D01*
X35927890Y2915890D01*
X36051036Y2595084D01*
X36065730Y2556806D01*
X36067199Y2553923D01*
X36067203Y2553914D01*
X36236863Y2220937D01*
X36241819Y2211211D01*
X36453068Y1885916D01*
X36697163Y1584484D01*
X36971428Y1310219D01*
X37272860Y1066124D01*
X37598155Y854875D01*
X37601048Y853401D01*
X37833453Y734985D01*
X37884249Y687011D01*
X37901044Y619190D01*
X37878507Y553055D01*
X37823792Y509603D01*
X37777158Y500500D01*
X22566199Y500500D01*
X22499160Y520185D01*
X22453405Y572989D01*
X22443461Y642147D01*
X22472486Y705703D01*
X22498664Y728495D01*
X22527658Y747325D01*
X22752084Y893068D01*
X23053516Y1137163D01*
X23327781Y1411428D01*
X23571876Y1712860D01*
X23783125Y2038155D01*
X23959214Y2383750D01*
X24098214Y2745857D01*
X24198602Y3120511D01*
X24259278Y3503606D01*
X24279578Y3890944D01*
X24259278Y4278282D01*
X24198602Y4661377D01*
X24098214Y5036031D01*
X23959214Y5398138D01*
X23783125Y5743733D01*
X23571876Y6069028D01*
X23327781Y6370460D01*
X23053516Y6644725D01*
X22752084Y6888820D01*
X22426789Y7100069D01*
X22423901Y7101541D01*
X22423895Y7101544D01*
X22084086Y7274685D01*
X22084077Y7274689D01*
X22081194Y7276158D01*
X21915412Y7339796D01*
X21722110Y7413998D01*
X21722102Y7414001D01*
X21719087Y7415158D01*
X21715962Y7415996D01*
X21715957Y7415997D01*
X21347566Y7514707D01*
X21347557Y7514709D01*
X21344433Y7515546D01*
X21341237Y7516053D01*
X21341224Y7516055D01*
X20964543Y7575715D01*
X20964531Y7575717D01*
X20961338Y7576222D01*
X20958103Y7576392D01*
X20958099Y7576392D01*
X20577244Y7596352D01*
X20574000Y7596522D01*
X20570756Y7596352D01*
X20189900Y7576392D01*
X20189894Y7576392D01*
X20186662Y7576222D01*
X20183470Y7575717D01*
X20183456Y7575715D01*
X19806775Y7516055D01*
X19806758Y7516052D01*
X19803567Y7515546D01*
X19800446Y7514710D01*
X19800433Y7514707D01*
X19432042Y7415997D01*
X19432031Y7415994D01*
X19428913Y7415158D01*
X19425902Y7414003D01*
X19425889Y7413998D01*
X19069837Y7277322D01*
X19069828Y7277319D01*
X19066806Y7276158D01*
X19063929Y7274693D01*
X19063913Y7274685D01*
X18724104Y7101544D01*
X18724090Y7101536D01*
X18721211Y7100069D01*
X18718491Y7098303D01*
X18718483Y7098298D01*
X18398644Y6890592D01*
X18398638Y6890589D01*
X18395916Y6888820D01*
X18393396Y6886780D01*
X18393390Y6886775D01*
X18097002Y6646765D01*
X18096991Y6646756D01*
X18094484Y6644725D01*
X18092199Y6642441D01*
X18092189Y6642431D01*
X17822513Y6372755D01*
X17822503Y6372745D01*
X17820219Y6370460D01*
X17818188Y6367953D01*
X17818179Y6367942D01*
X17578169Y6071554D01*
X17578164Y6071548D01*
X17576124Y6069028D01*
X17574355Y6066306D01*
X17574352Y6066300D01*
X17366646Y5746461D01*
X17366641Y5746453D01*
X17364875Y5743733D01*
X17363408Y5740854D01*
X17363400Y5740840D01*
X17190259Y5401031D01*
X17190251Y5401015D01*
X17188786Y5398138D01*
X17187625Y5395116D01*
X17187622Y5395107D01*
X17050946Y5039055D01*
X17050941Y5039042D01*
X17049786Y5036031D01*
X17048950Y5032913D01*
X17048947Y5032902D01*
X16950237Y4664511D01*
X16950234Y4664498D01*
X16949398Y4661377D01*
X16948892Y4658186D01*
X16948889Y4658169D01*
X16889229Y4281488D01*
X16889227Y4281474D01*
X16888722Y4278282D01*
X16888552Y4275050D01*
X16888552Y4275044D01*
X16876291Y4041087D01*
X16868422Y3890944D01*
X16868592Y3887701D01*
X16879482Y3679901D01*
X16888722Y3503606D01*
X16889227Y3500413D01*
X16889229Y3500401D01*
X16948889Y3123720D01*
X16948891Y3123707D01*
X16949398Y3120511D01*
X16950235Y3117387D01*
X16950237Y3117378D01*
X17014332Y2878173D01*
X17049786Y2745857D01*
X17050943Y2742842D01*
X17050946Y2742834D01*
X17158108Y2463669D01*
X17188786Y2383750D01*
X17190255Y2380867D01*
X17190259Y2380858D01*
X17282237Y2200341D01*
X17364875Y2038155D01*
X17576124Y1712860D01*
X17820219Y1411428D01*
X18094484Y1137163D01*
X18395916Y893068D01*
X18456998Y853401D01*
X18649336Y728495D01*
X18694839Y675474D01*
X18704453Y606269D01*
X18675126Y542852D01*
X18616169Y505358D01*
X18581801Y500500D01*
X624500Y500500D01*
X557461Y520185D01*
X511706Y572989D01*
X500500Y624500D01*
X500500Y3556000D01*
X1443340Y3556000D01*
X1463936Y3320593D01*
X1508709Y3153498D01*
X1525097Y3092337D01*
X1624965Y2878170D01*
X1760505Y2684599D01*
X1927599Y2517505D01*
X2121170Y2381965D01*
X2335337Y2282097D01*
X2563592Y2220937D01*
X2799000Y2200341D01*
X3034408Y2220937D01*
X3262663Y2282097D01*
X3476830Y2381965D01*
X3670401Y2517505D01*
X3792329Y2639434D01*
X3853648Y2672916D01*
X3923340Y2667932D01*
X3979274Y2626061D01*
X3996189Y2595084D01*
X4045204Y2463669D01*
X4131454Y2348454D01*
X4246669Y2262204D01*
X4381517Y2211909D01*
X4441127Y2205500D01*
X6236872Y2205501D01*
X6296483Y2211909D01*
X6431331Y2262204D01*
X6546546Y2348454D01*
X6632796Y2463669D01*
X6683091Y2598517D01*
X6689500Y2658127D01*
X6689499Y4453872D01*
X6683091Y4513483D01*
X6632796Y4648331D01*
X6546546Y4763546D01*
X6431331Y4849796D01*
X6296483Y4900091D01*
X6236873Y4906500D01*
X6233550Y4906500D01*
X4444439Y4906500D01*
X4444420Y4906500D01*
X4441128Y4906499D01*
X4437848Y4906147D01*
X4437840Y4906146D01*
X4381515Y4900091D01*
X4246669Y4849796D01*
X4131454Y4763546D01*
X4045204Y4648331D01*
X3996189Y4516917D01*
X3954317Y4460984D01*
X3888852Y4436567D01*
X3820580Y4451419D01*
X3792326Y4472570D01*
X3670404Y4594492D01*
X3670403Y4594493D01*
X3670401Y4594495D01*
X3476830Y4730035D01*
X3262663Y4829903D01*
X3201502Y4846291D01*
X3034407Y4891064D01*
X2799000Y4911660D01*
X2563592Y4891064D01*
X2335336Y4829903D01*
X2121170Y4730035D01*
X1927598Y4594495D01*
X1760505Y4427402D01*
X1624965Y4233830D01*
X1525097Y4019664D01*
X1463936Y3791408D01*
X1443340Y3556000D01*
X500500Y3556000D01*
X500500Y5251422D01*
X7400388Y5251422D01*
X7400389Y5248128D01*
X7406797Y5188517D01*
X7457092Y5053669D01*
X7543342Y4938454D01*
X7658557Y4852204D01*
X7793405Y4801909D01*
X7853015Y4795500D01*
X9548760Y4795501D01*
X9608371Y4801909D01*
X9743219Y4852204D01*
X9858434Y4938454D01*
X9944684Y5053669D01*
X9994979Y5188517D01*
X10001388Y5248127D01*
X10001387Y6943872D01*
X9994979Y7003483D01*
X9944684Y7138331D01*
X9858434Y7253546D01*
X9743219Y7339796D01*
X9608371Y7390091D01*
X9548761Y7396500D01*
X9545438Y7396500D01*
X7856327Y7396500D01*
X7856308Y7396500D01*
X7853016Y7396499D01*
X7849736Y7396147D01*
X7849728Y7396146D01*
X7793403Y7390091D01*
X7658557Y7339796D01*
X7543342Y7253546D01*
X7457092Y7138332D01*
X7406798Y7003485D01*
X7406797Y7003483D01*
X7400388Y6943873D01*
X7400388Y6940552D01*
X7400388Y6940551D01*
X7400388Y5251440D01*
X7400388Y5251422D01*
X500500Y5251422D01*
X500500Y11490000D01*
X49544722Y11490000D01*
X49563792Y11272026D01*
X49563793Y11272023D01*
X49620425Y11060670D01*
X49712898Y10862361D01*
X49838402Y10683123D01*
X49993123Y10528402D01*
X50172361Y10402898D01*
X50370670Y10310425D01*
X50582023Y10253793D01*
X50800000Y10234723D01*
X51017977Y10253793D01*
X51229330Y10310425D01*
X51427639Y10402898D01*
X51606877Y10528402D01*
X51761598Y10683123D01*
X51887102Y10862361D01*
X51979575Y11060670D01*
X52036207Y11272023D01*
X52055277Y11490000D01*
X52036207Y11707977D01*
X51979575Y11919330D01*
X51887102Y12117638D01*
X51761598Y12296877D01*
X51606877Y12451598D01*
X51427639Y12577102D01*
X51336205Y12619739D01*
X51229331Y12669575D01*
X51017974Y12726208D01*
X50800000Y12745278D01*
X50582025Y12726208D01*
X50370668Y12669575D01*
X50172361Y12577102D01*
X49993122Y12451598D01*
X49838402Y12296878D01*
X49712898Y12117639D01*
X49620425Y11919332D01*
X49563792Y11707975D01*
X49544722Y11490000D01*
X500500Y11490000D01*
X500500Y12063422D01*
X9067500Y12063422D01*
X9067501Y12060128D01*
X9073909Y12000517D01*
X9124204Y11865669D01*
X9210454Y11750454D01*
X9325669Y11664204D01*
X9460517Y11613909D01*
X9520127Y11607500D01*
X11815872Y11607501D01*
X11875483Y11613909D01*
X12010331Y11664204D01*
X12125546Y11750454D01*
X12211796Y11865669D01*
X12262091Y12000517D01*
X12268500Y12060127D01*
X12268499Y13208001D01*
X16682551Y13208001D01*
X16702317Y12956851D01*
X16761126Y12711890D01*
X16778654Y12669575D01*
X16857534Y12479141D01*
X16989164Y12264341D01*
X17152776Y12072776D01*
X17344341Y11909164D01*
X17559141Y11777534D01*
X17791889Y11681127D01*
X18036852Y11622317D01*
X18288000Y11602551D01*
X18539148Y11622317D01*
X18784111Y11681127D01*
X19016859Y11777534D01*
X19231659Y11909164D01*
X19423224Y12072776D01*
X19586836Y12264341D01*
X19718466Y12479141D01*
X19814873Y12711889D01*
X19873683Y12956852D01*
X19893449Y13208000D01*
X19873683Y13459148D01*
X19814873Y13704111D01*
X19718466Y13936859D01*
X19586836Y14151659D01*
X19423224Y14343224D01*
X19231659Y14506836D01*
X19016859Y14638466D01*
X18968722Y14658405D01*
X28054686Y14658405D01*
X28071364Y14506837D01*
X28085114Y14381876D01*
X28155480Y14112724D01*
X28264284Y13856686D01*
X28409208Y13619219D01*
X28409211Y13619215D01*
X28409212Y13619214D01*
X28542419Y13459148D01*
X28587163Y13405383D01*
X28794357Y13219737D01*
X29026373Y13066237D01*
X29026375Y13066236D01*
X29278268Y12948153D01*
X29486599Y12885476D01*
X29544669Y12868005D01*
X29819901Y12827500D01*
X29819904Y12827500D01*
X30026201Y12827500D01*
X30028463Y12827500D01*
X30236455Y12842723D01*
X30507997Y12903212D01*
X30767838Y13002592D01*
X31010440Y13138747D01*
X31230632Y13308774D01*
X31423722Y13509049D01*
X31585593Y13735304D01*
X31712797Y13982717D01*
X31802621Y14246014D01*
X31853152Y14519584D01*
X31863313Y14797596D01*
X31832886Y15074124D01*
X31789520Y15240000D01*
X46254389Y15240000D01*
X46274804Y14954571D01*
X46335629Y14674959D01*
X46435634Y14406837D01*
X46572772Y14155687D01*
X46604933Y14112725D01*
X46744261Y13926605D01*
X46946605Y13724261D01*
X47118414Y13595646D01*
X47175686Y13552773D01*
X47255761Y13509049D01*
X47426839Y13415633D01*
X47694954Y13315631D01*
X47694957Y13315631D01*
X47694958Y13315630D01*
X47726475Y13308774D01*
X47974572Y13254804D01*
X48260000Y13234390D01*
X48545428Y13254804D01*
X48825046Y13315631D01*
X49093161Y13415633D01*
X49344315Y13552774D01*
X49573395Y13724261D01*
X49775739Y13926605D01*
X49947226Y14155685D01*
X50084367Y14406839D01*
X50184369Y14674954D01*
X50245196Y14954572D01*
X50265610Y15240000D01*
X50245196Y15525428D01*
X50184369Y15805046D01*
X50084367Y16073161D01*
X50003045Y16222091D01*
X49947227Y16324314D01*
X49850588Y16453408D01*
X49775739Y16553395D01*
X49573395Y16755739D01*
X49458855Y16841483D01*
X49344313Y16927228D01*
X49093163Y17064366D01*
X49093162Y17064367D01*
X49093161Y17064367D01*
X48825046Y17164369D01*
X48825041Y17164371D01*
X48545429Y17225196D01*
X48260000Y17245611D01*
X47974570Y17225196D01*
X47694958Y17164371D01*
X47426836Y17064366D01*
X47175686Y16927228D01*
X46946602Y16755737D01*
X46744263Y16553398D01*
X46572772Y16324314D01*
X46435634Y16073164D01*
X46335629Y15805042D01*
X46274804Y15525430D01*
X46254389Y15240000D01*
X31789520Y15240000D01*
X31762520Y15343276D01*
X31653716Y15599314D01*
X31508792Y15836781D01*
X31397651Y15970331D01*
X31330838Y16050616D01*
X31223015Y16147226D01*
X31123643Y16236263D01*
X30891627Y16389763D01*
X30891624Y16389765D01*
X30639731Y16507848D01*
X30373336Y16587994D01*
X30373332Y16587995D01*
X30373331Y16587995D01*
X30098099Y16628500D01*
X29889537Y16628500D01*
X29887288Y16628336D01*
X29887277Y16628335D01*
X29681544Y16613278D01*
X29410003Y16552789D01*
X29150163Y16453409D01*
X28907560Y16317253D01*
X28687366Y16147226D01*
X28494277Y15946952D01*
X28332405Y15720695D01*
X28205205Y15473289D01*
X28115377Y15209982D01*
X28064847Y14936417D01*
X28054686Y14658405D01*
X18968722Y14658405D01*
X18900485Y14686670D01*
X18784110Y14734874D01*
X18539149Y14793683D01*
X18288000Y14813449D01*
X18036850Y14793683D01*
X17791889Y14734874D01*
X17559139Y14638465D01*
X17344342Y14506837D01*
X17152776Y14343224D01*
X16989163Y14151658D01*
X16857535Y13936861D01*
X16761126Y13704111D01*
X16702317Y13459150D01*
X16682551Y13208001D01*
X12268499Y13208001D01*
X12268499Y14355872D01*
X12262091Y14415483D01*
X12211796Y14550331D01*
X12125546Y14665546D01*
X12010331Y14751796D01*
X11875483Y14802091D01*
X11815873Y14808500D01*
X11812550Y14808500D01*
X9523439Y14808500D01*
X9523420Y14808500D01*
X9520128Y14808499D01*
X9516848Y14808147D01*
X9516840Y14808146D01*
X9460515Y14802091D01*
X9325669Y14751796D01*
X9210454Y14665546D01*
X9124204Y14550332D01*
X9073910Y14415485D01*
X9073909Y14415483D01*
X9067500Y14355873D01*
X9067500Y14352552D01*
X9067500Y14352551D01*
X9067500Y12063440D01*
X9067500Y12063422D01*
X500500Y12063422D01*
X500500Y13683422D01*
X1293500Y13683422D01*
X1293501Y13680128D01*
X1299909Y13620517D01*
X1350204Y13485669D01*
X1436454Y13370454D01*
X1551669Y13284204D01*
X1686517Y13233909D01*
X1746127Y13227500D01*
X3841872Y13227501D01*
X3901483Y13233909D01*
X4036331Y13284204D01*
X4151546Y13370454D01*
X4237796Y13485669D01*
X4288091Y13620517D01*
X4294500Y13680127D01*
X4294499Y15775872D01*
X4288091Y15835483D01*
X4237796Y15970331D01*
X4151546Y16085546D01*
X4036331Y16171796D01*
X3901483Y16222091D01*
X3841873Y16228500D01*
X3838550Y16228500D01*
X1749439Y16228500D01*
X1749420Y16228500D01*
X1746128Y16228499D01*
X1742848Y16228147D01*
X1742840Y16228146D01*
X1686515Y16222091D01*
X1551669Y16171796D01*
X1436454Y16085546D01*
X1350204Y15970332D01*
X1299909Y15835484D01*
X1296637Y15805046D01*
X1293500Y15775873D01*
X1293500Y15772552D01*
X1293500Y15772551D01*
X1293500Y13683440D01*
X1293500Y13683422D01*
X500500Y13683422D01*
X500500Y17018001D01*
X9317340Y17018001D01*
X9337936Y16782593D01*
X9382709Y16615498D01*
X9399097Y16554337D01*
X9498965Y16340170D01*
X9634505Y16146599D01*
X9801599Y15979505D01*
X9995170Y15843965D01*
X10209337Y15744097D01*
X10437592Y15682937D01*
X10673000Y15662341D01*
X10908408Y15682937D01*
X11136663Y15744097D01*
X11350830Y15843965D01*
X11544401Y15979505D01*
X11666329Y16101434D01*
X11727648Y16134916D01*
X11797340Y16129932D01*
X11853274Y16088061D01*
X11870189Y16057084D01*
X11896291Y15987102D01*
X11919204Y15925669D01*
X12005454Y15810454D01*
X12120669Y15724204D01*
X12255517Y15673909D01*
X12315127Y15667500D01*
X14110872Y15667501D01*
X14170483Y15673909D01*
X14305331Y15724204D01*
X14420546Y15810454D01*
X14506796Y15925669D01*
X14557091Y16060517D01*
X14563500Y16120127D01*
X14563499Y17915872D01*
X14557091Y17975483D01*
X14506796Y18110331D01*
X14420546Y18225546D01*
X14305331Y18311796D01*
X14170483Y18362091D01*
X14110873Y18368500D01*
X14107550Y18368500D01*
X12318439Y18368500D01*
X12318420Y18368500D01*
X12315128Y18368499D01*
X12311848Y18368147D01*
X12311840Y18368146D01*
X12255515Y18362091D01*
X12120669Y18311796D01*
X12005454Y18225546D01*
X11919204Y18110331D01*
X11870189Y17978917D01*
X11828317Y17922984D01*
X11762852Y17898567D01*
X11694580Y17913419D01*
X11666326Y17934570D01*
X11544404Y18056492D01*
X11544401Y18056495D01*
X11350830Y18192035D01*
X11136663Y18291903D01*
X11075502Y18308291D01*
X10908407Y18353064D01*
X10673000Y18373660D01*
X10437592Y18353064D01*
X10209336Y18291903D01*
X9995170Y18192035D01*
X9801598Y18056495D01*
X9634505Y17889402D01*
X9498965Y17695830D01*
X9399097Y17481664D01*
X9337936Y17253408D01*
X9317340Y17018001D01*
X500500Y17018001D01*
X500500Y18990001D01*
X49544722Y18990001D01*
X49563792Y18772026D01*
X49563793Y18772023D01*
X49620425Y18560670D01*
X49712898Y18362361D01*
X49838402Y18183123D01*
X49993123Y18028402D01*
X50172361Y17902898D01*
X50370670Y17810425D01*
X50582023Y17753793D01*
X50800000Y17734723D01*
X51017977Y17753793D01*
X51229330Y17810425D01*
X51427639Y17902898D01*
X51606877Y18028402D01*
X51761598Y18183123D01*
X51887102Y18362361D01*
X51979575Y18560670D01*
X52036207Y18772023D01*
X52055277Y18990000D01*
X52036207Y19207977D01*
X51979575Y19419330D01*
X51887102Y19617638D01*
X51761598Y19796877D01*
X51606877Y19951598D01*
X51427639Y20077102D01*
X51300414Y20136428D01*
X51229331Y20169575D01*
X51017974Y20226208D01*
X50800000Y20245278D01*
X50582025Y20226208D01*
X50370668Y20169575D01*
X50172361Y20077102D01*
X49993122Y19951598D01*
X49838402Y19796878D01*
X49712898Y19617639D01*
X49620425Y19419332D01*
X49563792Y19207975D01*
X49544722Y18990001D01*
X500500Y18990001D01*
X500500Y21298087D01*
X8075499Y21298087D01*
X8075500Y20593529D01*
X8075500Y20590575D01*
X8075779Y20587645D01*
X8075781Y20587620D01*
X8090471Y20433785D01*
X8149683Y20232127D01*
X8245990Y20045316D01*
X8375906Y19880116D01*
X8534745Y19742480D01*
X8633259Y19685603D01*
X8716756Y19637396D01*
X8773840Y19617639D01*
X8915366Y19568656D01*
X8950298Y19563634D01*
X9123398Y19538746D01*
X9333330Y19548746D01*
X9537576Y19598296D01*
X9623195Y19637397D01*
X9728752Y19685603D01*
X9808624Y19742480D01*
X9899952Y19807514D01*
X10044986Y19959622D01*
X10071542Y20000944D01*
X10124344Y20046697D01*
X10193503Y20056641D01*
X10257058Y20027616D01*
X10273326Y20010556D01*
X10375908Y19880114D01*
X10534745Y19742480D01*
X10633259Y19685603D01*
X10716756Y19637396D01*
X10773840Y19617639D01*
X10915366Y19568656D01*
X10950298Y19563634D01*
X11123398Y19538746D01*
X11333330Y19548746D01*
X11537576Y19598296D01*
X11623195Y19637397D01*
X11728752Y19685603D01*
X11808624Y19742480D01*
X11899952Y19807514D01*
X11997749Y19910082D01*
X12058258Y19945018D01*
X12128049Y19941693D01*
X12184963Y19901165D01*
X12193032Y19889609D01*
X12233288Y19824343D01*
X12357342Y19700289D01*
X12381152Y19685603D01*
X12506666Y19608186D01*
X12618017Y19571288D01*
X12673202Y19553001D01*
X12772858Y19542820D01*
X12772859Y19542820D01*
X12775991Y19542500D01*
X13576008Y19542501D01*
X13678797Y19553001D01*
X13845334Y19608186D01*
X13994656Y19700288D01*
X14118712Y19824344D01*
X14210814Y19973666D01*
X14265999Y20140203D01*
X14276500Y20242991D01*
X14276499Y21593008D01*
X14265999Y21695797D01*
X14210814Y21862334D01*
X14118712Y22011656D01*
X14118711Y22011658D01*
X13994657Y22135712D01*
X13845334Y22227814D01*
X13678797Y22283000D01*
X13579141Y22293181D01*
X13579122Y22293182D01*
X13576009Y22293500D01*
X13572860Y22293500D01*
X12779141Y22293500D01*
X12779121Y22293500D01*
X12775992Y22293499D01*
X12772860Y22293180D01*
X12772858Y22293179D01*
X12673203Y22283000D01*
X12506665Y22227814D01*
X12357342Y22135712D01*
X12233289Y22011659D01*
X12194185Y21948260D01*
X12142237Y21901536D01*
X12073274Y21890313D01*
X12009192Y21918157D01*
X11991175Y21936706D01*
X11976092Y21955886D01*
X11817254Y22093521D01*
X11635245Y22198604D01*
X11436633Y22267345D01*
X11228603Y22297254D01*
X11228602Y22297254D01*
X11149794Y22293500D01*
X11018669Y22287254D01*
X10814419Y22237703D01*
X10623247Y22150398D01*
X10452050Y22028488D01*
X10307011Y21876375D01*
X10280457Y21835057D01*
X10227652Y21789303D01*
X10158494Y21779360D01*
X10094939Y21808387D01*
X10078673Y21825446D01*
X9982089Y21948260D01*
X9976092Y21955886D01*
X9817256Y22093519D01*
X9817254Y22093521D01*
X9635245Y22198604D01*
X9436633Y22267345D01*
X9228603Y22297254D01*
X9228602Y22297254D01*
X9149794Y22293500D01*
X9018669Y22287254D01*
X8814419Y22237703D01*
X8623247Y22150398D01*
X8452050Y22028488D01*
X8307013Y21876377D01*
X8193387Y21699575D01*
X8115274Y21504455D01*
X8075499Y21298087D01*
X500500Y21298087D01*
X500500Y27168001D01*
X46904340Y27168001D01*
X46924936Y26932593D01*
X46969709Y26765498D01*
X46986097Y26704337D01*
X47085965Y26490170D01*
X47221505Y26296599D01*
X47388599Y26129505D01*
X47582170Y25993965D01*
X47796337Y25894097D01*
X48024592Y25832938D01*
X48024592Y25832937D01*
X48259999Y25812341D01*
X48259999Y25812342D01*
X48260000Y25812341D01*
X48495408Y25832937D01*
X48723663Y25894097D01*
X48937830Y25993965D01*
X49131401Y26129505D01*
X49298495Y26296599D01*
X49382101Y26416000D01*
X60064538Y26416000D01*
X60084337Y26214969D01*
X60084338Y26214967D01*
X60142977Y26021659D01*
X60238202Y25843506D01*
X60288275Y25782492D01*
X60366352Y25687353D01*
X60444429Y25623278D01*
X60522506Y25559202D01*
X60700659Y25463977D01*
X60893967Y25405338D01*
X61044620Y25390500D01*
X61047670Y25390500D01*
X61592330Y25390500D01*
X61595380Y25390500D01*
X61746033Y25405338D01*
X61939341Y25463977D01*
X62117494Y25559202D01*
X62273647Y25687353D01*
X62401798Y25843506D01*
X62497023Y26021659D01*
X62555662Y26214967D01*
X62575462Y26416000D01*
X62555662Y26617033D01*
X62497023Y26810341D01*
X62401798Y26988494D01*
X62401796Y26988497D01*
X62399631Y26992547D01*
X62385389Y27060949D01*
X62399631Y27109453D01*
X62401796Y27113504D01*
X62401798Y27113506D01*
X62497023Y27291659D01*
X62555662Y27484967D01*
X62575462Y27686000D01*
X62555662Y27887033D01*
X62497023Y28080341D01*
X62401798Y28258494D01*
X62289455Y28395385D01*
X62273647Y28414648D01*
X62178508Y28492725D01*
X62117494Y28542798D01*
X61939341Y28638023D01*
X61835545Y28669509D01*
X61746031Y28696663D01*
X61598414Y28711202D01*
X61598397Y28711203D01*
X61595380Y28711500D01*
X61044620Y28711500D01*
X61041603Y28711203D01*
X61041585Y28711202D01*
X60893968Y28696663D01*
X60700656Y28638022D01*
X60522507Y28542799D01*
X60366352Y28414648D01*
X60238201Y28258493D01*
X60142978Y28080344D01*
X60084337Y27887032D01*
X60064538Y27686000D01*
X60084337Y27484969D01*
X60142978Y27291657D01*
X60240368Y27109453D01*
X60254610Y27041050D01*
X60240368Y26992547D01*
X60142978Y26810344D01*
X60084337Y26617032D01*
X60064538Y26416000D01*
X49382101Y26416000D01*
X49434035Y26490170D01*
X49533903Y26704337D01*
X49595063Y26932592D01*
X49615659Y27168000D01*
X49595063Y27403408D01*
X49533903Y27631663D01*
X49434035Y27845829D01*
X49298495Y28039401D01*
X49131401Y28206495D01*
X48945839Y28336427D01*
X48902216Y28391002D01*
X48895022Y28460500D01*
X48926545Y28522855D01*
X48945837Y28539572D01*
X49131401Y28669505D01*
X49298495Y28836599D01*
X49434035Y29030170D01*
X49533903Y29244337D01*
X49595063Y29472592D01*
X49615659Y29708000D01*
X49595063Y29943408D01*
X49533903Y30171663D01*
X49434035Y30385829D01*
X49298495Y30579401D01*
X49176569Y30701327D01*
X49143084Y30762650D01*
X49148068Y30832342D01*
X49189940Y30888275D01*
X49220915Y30905190D01*
X49352331Y30954204D01*
X49467546Y31040454D01*
X49553796Y31155669D01*
X49604091Y31290517D01*
X49610500Y31350127D01*
X49610499Y33145872D01*
X49604091Y33205483D01*
X49553796Y33340331D01*
X49467546Y33455546D01*
X49352331Y33541796D01*
X49217483Y33592091D01*
X49157873Y33598500D01*
X49154550Y33598500D01*
X47365439Y33598500D01*
X47365420Y33598500D01*
X47362128Y33598499D01*
X47358848Y33598147D01*
X47358840Y33598146D01*
X47302515Y33592091D01*
X47167669Y33541796D01*
X47052454Y33455546D01*
X46966204Y33340332D01*
X46915910Y33205485D01*
X46915909Y33205483D01*
X46909500Y33145873D01*
X46909500Y33142552D01*
X46909500Y33142551D01*
X46909500Y31353440D01*
X46909500Y31353422D01*
X46909501Y31350128D01*
X46909853Y31346848D01*
X46909854Y31346841D01*
X46915909Y31290516D01*
X46939874Y31226263D01*
X46966204Y31155669D01*
X47052454Y31040454D01*
X47167669Y30954204D01*
X47279907Y30912342D01*
X47299082Y30905190D01*
X47355016Y30863319D01*
X47379433Y30797854D01*
X47364581Y30729581D01*
X47343431Y30701327D01*
X47221503Y30579399D01*
X47085965Y30385830D01*
X46986097Y30171664D01*
X46924936Y29943408D01*
X46904340Y29708000D01*
X46924936Y29472593D01*
X46951923Y29371878D01*
X46986097Y29244337D01*
X47085965Y29030170D01*
X47221505Y28836599D01*
X47388599Y28669505D01*
X47574160Y28539574D01*
X47617783Y28484998D01*
X47624976Y28415499D01*
X47593454Y28353145D01*
X47574159Y28336425D01*
X47388595Y28206492D01*
X47221505Y28039402D01*
X47085965Y27845830D01*
X46986097Y27631664D01*
X46924936Y27403408D01*
X46904340Y27168001D01*
X500500Y27168001D01*
X500500Y29718000D01*
X1288356Y29718000D01*
X1308891Y29470184D01*
X1308891Y29470181D01*
X1308892Y29470179D01*
X1369937Y29229119D01*
X1378323Y29210001D01*
X1469825Y29001396D01*
X1469827Y29001393D01*
X1605836Y28793215D01*
X1774256Y28610262D01*
X1839667Y28559351D01*
X1970485Y28457530D01*
X1970487Y28457529D01*
X1970491Y28457526D01*
X2189190Y28339172D01*
X2424386Y28258429D01*
X2669665Y28217500D01*
X2918335Y28217500D01*
X3163614Y28258429D01*
X3398810Y28339172D01*
X3617509Y28457526D01*
X3813744Y28610262D01*
X3982164Y28793215D01*
X4118173Y29001393D01*
X4218063Y29229119D01*
X4279108Y29470179D01*
X4293876Y29648405D01*
X28054686Y29648405D01*
X28074032Y29472593D01*
X28085114Y29371876D01*
X28155480Y29102724D01*
X28264284Y28846686D01*
X28409208Y28609219D01*
X28409211Y28609215D01*
X28409212Y28609214D01*
X28571130Y28414648D01*
X28587163Y28395383D01*
X28794357Y28209737D01*
X28989940Y28080341D01*
X29026375Y28056236D01*
X29278268Y27938153D01*
X29448188Y27887032D01*
X29544669Y27858005D01*
X29819901Y27817500D01*
X29819904Y27817500D01*
X30026201Y27817500D01*
X30028463Y27817500D01*
X30236455Y27832723D01*
X30507997Y27893212D01*
X30767838Y27992592D01*
X31010440Y28128747D01*
X31230632Y28298774D01*
X31423722Y28499049D01*
X31585593Y28725304D01*
X31712797Y28972717D01*
X31802621Y29236014D01*
X31853152Y29509584D01*
X31863313Y29787596D01*
X31832886Y30064124D01*
X31762520Y30333276D01*
X31653716Y30589314D01*
X31508792Y30826781D01*
X31462809Y30882035D01*
X31330838Y31040616D01*
X31270919Y31094304D01*
X31123643Y31226263D01*
X30891627Y31379763D01*
X30891624Y31379765D01*
X30639731Y31497848D01*
X30373336Y31577994D01*
X30373332Y31577995D01*
X30373331Y31577995D01*
X30098099Y31618500D01*
X29889537Y31618500D01*
X29887288Y31618336D01*
X29887277Y31618335D01*
X29681544Y31603278D01*
X29410003Y31542789D01*
X29150163Y31443409D01*
X28907560Y31307253D01*
X28687366Y31137226D01*
X28494277Y30936952D01*
X28332405Y30710695D01*
X28205205Y30463289D01*
X28115377Y30199982D01*
X28064847Y29926417D01*
X28054686Y29648405D01*
X4293876Y29648405D01*
X4299643Y29718000D01*
X4279108Y29965821D01*
X4218063Y30206881D01*
X4118173Y30434607D01*
X3982164Y30642785D01*
X3813744Y30825738D01*
X3733397Y30888275D01*
X3617514Y30978471D01*
X3617510Y30978474D01*
X3617509Y30978474D01*
X3398810Y31096828D01*
X3398806Y31096830D01*
X3398805Y31096830D01*
X3163615Y31177571D01*
X2918335Y31218500D01*
X2669665Y31218500D01*
X2424384Y31177571D01*
X2189194Y31096830D01*
X2189190Y31096829D01*
X2189190Y31096828D01*
X2139064Y31069701D01*
X1970485Y30978471D01*
X1774259Y30825741D01*
X1774256Y30825739D01*
X1774256Y30825738D01*
X1605836Y30642785D01*
X1564426Y30579402D01*
X1469825Y30434605D01*
X1402519Y30281161D01*
X1369937Y30206881D01*
X1361019Y30171664D01*
X1308891Y29965817D01*
X1288356Y29718000D01*
X500500Y29718000D01*
X500500Y39116000D01*
X59525464Y39116000D01*
X59545564Y38899075D01*
X59605181Y38689543D01*
X59702288Y38494526D01*
X59783747Y38386657D01*
X59808439Y38321296D01*
X59793874Y38252961D01*
X59759104Y38212665D01*
X59673455Y38148549D01*
X59587204Y38033332D01*
X59536910Y37898485D01*
X59536909Y37898483D01*
X59530500Y37838873D01*
X59530500Y37835552D01*
X59530500Y37835551D01*
X59530500Y36396440D01*
X59530500Y36396422D01*
X59530501Y36393128D01*
X59536909Y36333517D01*
X59587204Y36198669D01*
X59673454Y36083454D01*
X59788669Y35997204D01*
X59923517Y35946909D01*
X59983127Y35940500D01*
X61428872Y35940501D01*
X61488483Y35946909D01*
X61623331Y35997204D01*
X61738546Y36083454D01*
X61824796Y36198669D01*
X61875091Y36333517D01*
X61881500Y36393127D01*
X61881499Y37836001D01*
X93391340Y37836001D01*
X93411936Y37600593D01*
X93456709Y37433498D01*
X93473097Y37372337D01*
X93572965Y37158170D01*
X93708505Y36964599D01*
X93875599Y36797505D01*
X94069170Y36661965D01*
X94283337Y36562097D01*
X94511591Y36500937D01*
X94511592Y36500937D01*
X94746999Y36480341D01*
X94746999Y36480342D01*
X94747000Y36480341D01*
X94982408Y36500937D01*
X95210663Y36562097D01*
X95424830Y36661965D01*
X95618401Y36797505D01*
X95785495Y36964599D01*
X95915426Y37150161D01*
X95970002Y37193784D01*
X96039500Y37200978D01*
X96101855Y37169455D01*
X96118571Y37150163D01*
X96248505Y36964599D01*
X96415599Y36797505D01*
X96601160Y36667574D01*
X96644783Y36612998D01*
X96651976Y36543499D01*
X96620454Y36481145D01*
X96601159Y36464425D01*
X96415595Y36334492D01*
X96248505Y36167402D01*
X96112965Y35973830D01*
X96013097Y35759664D01*
X95951936Y35531408D01*
X95931340Y35296001D01*
X95951936Y35060593D01*
X95996709Y34893499D01*
X96013097Y34832337D01*
X96112965Y34618170D01*
X96248505Y34424599D01*
X96415599Y34257505D01*
X96609170Y34121965D01*
X96823337Y34022097D01*
X97051592Y33960937D01*
X97287000Y33940341D01*
X97522408Y33960937D01*
X97750663Y34022097D01*
X97964830Y34121965D01*
X98158401Y34257505D01*
X98325495Y34424599D01*
X98461035Y34618170D01*
X98560903Y34832337D01*
X98622063Y35060592D01*
X98642659Y35296000D01*
X98622063Y35531408D01*
X98560903Y35759663D01*
X98461035Y35973829D01*
X98325495Y36167401D01*
X98158401Y36334495D01*
X97972839Y36464427D01*
X97929215Y36519003D01*
X97922023Y36588502D01*
X97953545Y36650856D01*
X97972831Y36667568D01*
X98158401Y36797505D01*
X98325495Y36964599D01*
X98461035Y37158170D01*
X98560903Y37372337D01*
X98622063Y37600592D01*
X98642659Y37836000D01*
X98622063Y38071408D01*
X98560903Y38299663D01*
X98461035Y38513829D01*
X98325495Y38707401D01*
X98158401Y38874495D01*
X97972839Y39004427D01*
X97929216Y39059002D01*
X97922022Y39128500D01*
X97953545Y39190855D01*
X97972837Y39207572D01*
X98158401Y39337505D01*
X98325495Y39504599D01*
X98461035Y39698170D01*
X98560903Y39912337D01*
X98622063Y40140592D01*
X98642659Y40376000D01*
X98622063Y40611408D01*
X98560903Y40839663D01*
X98461035Y41053829D01*
X98325495Y41247401D01*
X98203569Y41369327D01*
X98170084Y41430650D01*
X98175068Y41500342D01*
X98216940Y41556275D01*
X98247915Y41573190D01*
X98379331Y41622204D01*
X98494546Y41708454D01*
X98580796Y41823669D01*
X98631091Y41958517D01*
X98637500Y42018127D01*
X98637499Y43813872D01*
X98631091Y43873483D01*
X98580796Y44008331D01*
X98494546Y44123546D01*
X98379331Y44209796D01*
X98244483Y44260091D01*
X98184873Y44266500D01*
X98181550Y44266500D01*
X96392439Y44266500D01*
X96392420Y44266500D01*
X96389128Y44266499D01*
X96385848Y44266147D01*
X96385840Y44266146D01*
X96329515Y44260091D01*
X96194669Y44209796D01*
X96079454Y44123546D01*
X95993204Y44008331D01*
X95944189Y43876917D01*
X95902317Y43820984D01*
X95836852Y43796567D01*
X95768580Y43811419D01*
X95740326Y43832570D01*
X95618404Y43954492D01*
X95618401Y43954495D01*
X95424830Y44090035D01*
X95210663Y44189903D01*
X95144471Y44207639D01*
X94982407Y44251064D01*
X94746999Y44271660D01*
X94511592Y44251064D01*
X94283336Y44189903D01*
X94069170Y44090035D01*
X93875598Y43954495D01*
X93708505Y43787402D01*
X93572965Y43593830D01*
X93473097Y43379664D01*
X93411936Y43151408D01*
X93391340Y42916000D01*
X93411936Y42680593D01*
X93456709Y42513498D01*
X93473097Y42452337D01*
X93572965Y42238170D01*
X93708505Y42044599D01*
X93875599Y41877505D01*
X94069170Y41741965D01*
X94283337Y41642097D01*
X94511592Y41580938D01*
X94511592Y41580937D01*
X94746999Y41560341D01*
X94746999Y41560342D01*
X94747000Y41560341D01*
X94982408Y41580937D01*
X95210663Y41642097D01*
X95424830Y41741965D01*
X95618401Y41877505D01*
X95740329Y41999434D01*
X95801648Y42032916D01*
X95871340Y42027932D01*
X95927274Y41986061D01*
X95944189Y41955084D01*
X95970291Y41885102D01*
X95993204Y41823669D01*
X96079454Y41708454D01*
X96194669Y41622204D01*
X96305312Y41580937D01*
X96326082Y41573190D01*
X96382016Y41531319D01*
X96406433Y41465854D01*
X96391581Y41397581D01*
X96370431Y41369327D01*
X96248503Y41247399D01*
X96112965Y41053830D01*
X96013097Y40839664D01*
X95951936Y40611408D01*
X95931340Y40376001D01*
X95951936Y40140593D01*
X95983080Y40024364D01*
X96013097Y39912337D01*
X96112965Y39698170D01*
X96248505Y39504599D01*
X96415599Y39337505D01*
X96601160Y39207574D01*
X96644783Y39152998D01*
X96651976Y39083499D01*
X96620454Y39021145D01*
X96601159Y39004425D01*
X96415595Y38874492D01*
X96248505Y38707402D01*
X96118575Y38521841D01*
X96063998Y38478216D01*
X95994500Y38471022D01*
X95932145Y38502545D01*
X95915425Y38521841D01*
X95900449Y38543229D01*
X95785495Y38707401D01*
X95618401Y38874495D01*
X95424830Y39010035D01*
X95210663Y39109903D01*
X95141257Y39128500D01*
X94982407Y39171064D01*
X94746999Y39191660D01*
X94511592Y39171064D01*
X94283336Y39109903D01*
X94069170Y39010035D01*
X93875598Y38874495D01*
X93708505Y38707402D01*
X93572965Y38513830D01*
X93473097Y38299664D01*
X93411936Y38071408D01*
X93391340Y37836001D01*
X61881499Y37836001D01*
X61881499Y37838872D01*
X61875091Y37898483D01*
X61824796Y38033331D01*
X61738546Y38148546D01*
X61652894Y38212665D01*
X61611024Y38268598D01*
X61606040Y38338290D01*
X61628252Y38386657D01*
X61709712Y38494528D01*
X61806817Y38689541D01*
X61811899Y38707402D01*
X61866435Y38899075D01*
X61876197Y39004425D01*
X61886536Y39116000D01*
X61866435Y39332923D01*
X61866435Y39332926D01*
X61806818Y39542458D01*
X61709712Y39737472D01*
X61578426Y39911324D01*
X61454427Y40024364D01*
X61418145Y40084075D01*
X61419906Y40153923D01*
X61454424Y40207635D01*
X61578427Y40320678D01*
X61709712Y40494528D01*
X61806817Y40689541D01*
X61806818Y40689543D01*
X61866435Y40899075D01*
X61869577Y40932992D01*
X61886536Y41116000D01*
X61866435Y41332923D01*
X61866435Y41332926D01*
X61806818Y41542458D01*
X61709712Y41737472D01*
X61578426Y41911324D01*
X61454427Y42024364D01*
X61418145Y42084075D01*
X61419906Y42153923D01*
X61454424Y42207635D01*
X61578427Y42320678D01*
X61709712Y42494528D01*
X61806817Y42689541D01*
X61806818Y42689543D01*
X61866435Y42899075D01*
X61869349Y42930533D01*
X61886536Y43116000D01*
X61866435Y43332923D01*
X61866435Y43332926D01*
X61806818Y43542458D01*
X61709712Y43737472D01*
X61578426Y43911324D01*
X61454427Y44024364D01*
X61418145Y44084075D01*
X61419906Y44153923D01*
X61454424Y44207635D01*
X61578427Y44320678D01*
X61709712Y44494528D01*
X61806817Y44689541D01*
X61806818Y44689543D01*
X61866435Y44899075D01*
X61869349Y44930533D01*
X61886536Y45116000D01*
X61866435Y45332923D01*
X61866435Y45332926D01*
X61806818Y45542458D01*
X61709712Y45737472D01*
X61578426Y45911324D01*
X61417432Y46058088D01*
X61232208Y46172774D01*
X61029073Y46251469D01*
X61029070Y46251470D01*
X61029069Y46251470D01*
X60814926Y46291500D01*
X60597074Y46291500D01*
X60382931Y46251470D01*
X60382926Y46251469D01*
X60179791Y46172774D01*
X59994567Y46058088D01*
X59833573Y45911324D01*
X59702287Y45737472D01*
X59605181Y45542458D01*
X59545564Y45332926D01*
X59525464Y45116001D01*
X59545564Y44899075D01*
X59605181Y44689543D01*
X59702287Y44494529D01*
X59833573Y44320677D01*
X59957572Y44207637D01*
X59993854Y44147926D01*
X59992093Y44078078D01*
X59957572Y44024363D01*
X59833573Y43911324D01*
X59702287Y43737472D01*
X59605181Y43542458D01*
X59545564Y43332926D01*
X59525464Y43116001D01*
X59545564Y42899075D01*
X59605181Y42689543D01*
X59702287Y42494529D01*
X59833573Y42320677D01*
X59957572Y42207637D01*
X59993854Y42147926D01*
X59992093Y42078078D01*
X59957572Y42024363D01*
X59833573Y41911324D01*
X59702287Y41737472D01*
X59605181Y41542458D01*
X59545564Y41332926D01*
X59525464Y41116000D01*
X59545564Y40899075D01*
X59605181Y40689543D01*
X59702287Y40494529D01*
X59833573Y40320677D01*
X59957572Y40207637D01*
X59993854Y40147926D01*
X59992093Y40078078D01*
X59957572Y40024363D01*
X59833573Y39911324D01*
X59702287Y39737472D01*
X59605181Y39542458D01*
X59545564Y39332926D01*
X59525464Y39116000D01*
X500500Y39116000D01*
X500500Y47469422D01*
X1293500Y47469422D01*
X1293501Y47466128D01*
X1293853Y47462848D01*
X1293854Y47462841D01*
X1299909Y47406516D01*
X1317445Y47359500D01*
X1350204Y47271669D01*
X1436454Y47156454D01*
X1551669Y47070204D01*
X1686517Y47019909D01*
X1746127Y47013500D01*
X3841872Y47013501D01*
X3901483Y47019909D01*
X4036331Y47070204D01*
X4151546Y47156454D01*
X4237796Y47271669D01*
X4288091Y47406517D01*
X4294500Y47466127D01*
X4294500Y48444405D01*
X28054686Y48444405D01*
X28072746Y48280276D01*
X28085114Y48167876D01*
X28155480Y47898724D01*
X28264284Y47642686D01*
X28409208Y47405219D01*
X28409211Y47405215D01*
X28409212Y47405214D01*
X28583359Y47195953D01*
X28587163Y47191383D01*
X28794357Y47005737D01*
X29026373Y46852237D01*
X29026375Y46852236D01*
X29278268Y46734153D01*
X29486599Y46671476D01*
X29544669Y46654005D01*
X29819901Y46613500D01*
X29819904Y46613500D01*
X30026201Y46613500D01*
X30028463Y46613500D01*
X30236455Y46628723D01*
X30507997Y46689212D01*
X30767838Y46788592D01*
X31010440Y46924747D01*
X31230632Y47094774D01*
X31295735Y47162299D01*
X31423722Y47295049D01*
X31433578Y47308825D01*
X31585593Y47521304D01*
X31712797Y47768717D01*
X31802621Y48032014D01*
X31853152Y48305584D01*
X31863313Y48583596D01*
X31832886Y48860124D01*
X31762520Y49129276D01*
X31653716Y49385314D01*
X31508792Y49622781D01*
X31397651Y49756331D01*
X31330838Y49836616D01*
X31224534Y49931865D01*
X31123643Y50022263D01*
X30891627Y50175763D01*
X30891624Y50175765D01*
X30639731Y50293848D01*
X30373336Y50373994D01*
X30373332Y50373995D01*
X30373331Y50373995D01*
X30098099Y50414500D01*
X29889537Y50414500D01*
X29887288Y50414336D01*
X29887277Y50414335D01*
X29681544Y50399278D01*
X29410003Y50338789D01*
X29150163Y50239409D01*
X28907560Y50103253D01*
X28687366Y49933226D01*
X28494277Y49732952D01*
X28332405Y49506695D01*
X28205205Y49259289D01*
X28115377Y48995982D01*
X28064847Y48722417D01*
X28054686Y48444405D01*
X4294500Y48444405D01*
X4294499Y49561872D01*
X4288091Y49621483D01*
X4237796Y49756331D01*
X4151546Y49871546D01*
X4036331Y49957796D01*
X3901483Y50008091D01*
X3841873Y50014500D01*
X3838550Y50014500D01*
X1749439Y50014500D01*
X1749420Y50014500D01*
X1746128Y50014499D01*
X1742848Y50014147D01*
X1742840Y50014146D01*
X1686515Y50008091D01*
X1551669Y49957796D01*
X1436454Y49871546D01*
X1350204Y49756332D01*
X1299910Y49621485D01*
X1299909Y49621483D01*
X1293500Y49561873D01*
X1293500Y49558552D01*
X1293500Y49558551D01*
X1293500Y47469440D01*
X1293500Y47469422D01*
X500500Y47469422D01*
X500500Y51547000D01*
X46899340Y51547000D01*
X46919936Y51311593D01*
X46948382Y51205431D01*
X46981097Y51083337D01*
X47080965Y50869170D01*
X47216505Y50675599D01*
X47383599Y50508505D01*
X47577170Y50372965D01*
X47791337Y50273097D01*
X48019592Y50211937D01*
X48255000Y50191341D01*
X48490408Y50211937D01*
X48718663Y50273097D01*
X48932830Y50372965D01*
X49126401Y50508505D01*
X49293495Y50675599D01*
X49429035Y50869170D01*
X49528903Y51083337D01*
X49590063Y51311592D01*
X49610659Y51547000D01*
X49590063Y51782408D01*
X49528903Y52010663D01*
X49429035Y52224829D01*
X49293495Y52418401D01*
X49126401Y52585495D01*
X48940839Y52715427D01*
X48897216Y52770002D01*
X48890022Y52839500D01*
X48921545Y52901855D01*
X48940837Y52918572D01*
X49126401Y53048505D01*
X49293495Y53215599D01*
X49423426Y53401161D01*
X49478002Y53444783D01*
X49547501Y53451976D01*
X49609855Y53420454D01*
X49626571Y53401163D01*
X49756505Y53215599D01*
X49923599Y53048505D01*
X50117170Y52912965D01*
X50331337Y52813097D01*
X50559591Y52751937D01*
X50559592Y52751937D01*
X50794999Y52731341D01*
X50794999Y52731342D01*
X50795000Y52731341D01*
X51030408Y52751937D01*
X51258663Y52813097D01*
X51472830Y52912965D01*
X51666401Y53048505D01*
X51833495Y53215599D01*
X51969035Y53409170D01*
X52068903Y53623337D01*
X52130063Y53851592D01*
X52148753Y54065219D01*
X52174205Y54130287D01*
X52230796Y54171266D01*
X52300558Y54175144D01*
X52359962Y54142092D01*
X52399181Y54102873D01*
X52432666Y54041550D01*
X52435500Y54015192D01*
X52435500Y51393506D01*
X52433158Y51372298D01*
X52435439Y51299738D01*
X52435500Y51295843D01*
X52435500Y51267075D01*
X52435987Y51263215D01*
X52435989Y51263192D01*
X52436054Y51262680D01*
X52436968Y51251058D01*
X52438402Y51205431D01*
X52444323Y51185050D01*
X52448267Y51166005D01*
X52450928Y51144941D01*
X52467737Y51102485D01*
X52471520Y51091437D01*
X52484256Y51047600D01*
X52495061Y51029330D01*
X52503621Y51011857D01*
X52511431Y50992131D01*
X52538267Y50955192D01*
X52544673Y50945440D01*
X52567919Y50906135D01*
X52567921Y50906133D01*
X52582925Y50891129D01*
X52595564Y50876331D01*
X52608037Y50859163D01*
X52643212Y50830064D01*
X52651854Y50822200D01*
X54177180Y49296874D01*
X54210665Y49235551D01*
X54213499Y49209193D01*
X54213499Y48930923D01*
X54193814Y48863884D01*
X54181651Y48847953D01*
X54131466Y48792216D01*
X54036820Y48628285D01*
X53978326Y48448258D01*
X53958540Y48260000D01*
X53978326Y48071743D01*
X54036820Y47891716D01*
X54131466Y47727784D01*
X54258129Y47587111D01*
X54411269Y47475849D01*
X54584197Y47398856D01*
X54769352Y47359500D01*
X54769354Y47359500D01*
X54958648Y47359500D01*
X55082084Y47385738D01*
X55143803Y47398856D01*
X55316730Y47475849D01*
X55379294Y47521304D01*
X55469870Y47587111D01*
X55596533Y47727784D01*
X55691179Y47891716D01*
X55693456Y47898725D01*
X55749674Y48071744D01*
X55769460Y48260000D01*
X55749674Y48448256D01*
X55691179Y48628284D01*
X55691179Y48628285D01*
X55596533Y48792217D01*
X55546350Y48847951D01*
X55516120Y48910943D01*
X55514500Y48930923D01*
X55514500Y49444497D01*
X55516841Y49465700D01*
X55516759Y49468294D01*
X55516760Y49468296D01*
X55514561Y49538278D01*
X55514500Y49542172D01*
X55514500Y49567023D01*
X55514500Y49567024D01*
X55514500Y49570925D01*
X55513948Y49575288D01*
X55513031Y49586936D01*
X55511598Y49632569D01*
X55505675Y49652955D01*
X55501731Y49671996D01*
X55499071Y49693058D01*
X55482267Y49735499D01*
X55478484Y49746548D01*
X55475642Y49756331D01*
X55465745Y49790398D01*
X55456103Y49806702D01*
X55454937Y49808674D01*
X55446376Y49826150D01*
X55438568Y49845871D01*
X55411731Y49882809D01*
X55405317Y49892575D01*
X55382081Y49931865D01*
X55367074Y49946872D01*
X55354436Y49961669D01*
X55341963Y49978837D01*
X55306779Y50007944D01*
X55298140Y50015806D01*
X54144946Y51169000D01*
X60316699Y51169000D01*
X60335865Y50937701D01*
X60335865Y50937699D01*
X60335866Y50937695D01*
X60392843Y50712700D01*
X60486076Y50500151D01*
X60613021Y50305847D01*
X60770216Y50135087D01*
X60953374Y49992530D01*
X61157497Y49882064D01*
X61262924Y49845871D01*
X61377015Y49806703D01*
X61377017Y49806703D01*
X61377019Y49806702D01*
X61605951Y49768500D01*
X61605952Y49768500D01*
X61838048Y49768500D01*
X61838049Y49768500D01*
X62066981Y49806702D01*
X62286503Y49882064D01*
X62490626Y49992530D01*
X62673784Y50135087D01*
X62830979Y50305847D01*
X62957924Y50500151D01*
X63051157Y50712700D01*
X63108134Y50937695D01*
X63127300Y51169000D01*
X63108134Y51400305D01*
X63051157Y51625300D01*
X62957924Y51837849D01*
X62830979Y52032153D01*
X62673784Y52202913D01*
X62490626Y52345470D01*
X62286503Y52455936D01*
X62286499Y52455938D01*
X62286498Y52455938D01*
X62066984Y52531298D01*
X61895282Y52559950D01*
X61838049Y52569500D01*
X61605951Y52569500D01*
X61560164Y52561860D01*
X61377015Y52531298D01*
X61157501Y52455938D01*
X61157497Y52455937D01*
X61157497Y52455936D01*
X61021414Y52382292D01*
X60953372Y52345469D01*
X60770215Y52202913D01*
X60613020Y52032152D01*
X60486076Y51837850D01*
X60392844Y51625304D01*
X60335865Y51400300D01*
X60316699Y51169000D01*
X54144946Y51169000D01*
X53772819Y51541127D01*
X53739334Y51602450D01*
X53736500Y51628808D01*
X53736500Y54250498D01*
X53738841Y54271701D01*
X53738759Y54274295D01*
X53738760Y54274297D01*
X53736561Y54344265D01*
X53736500Y54348160D01*
X53736500Y54373024D01*
X53736500Y54376925D01*
X53735948Y54381291D01*
X53735030Y54392945D01*
X53733597Y54438570D01*
X53727675Y54458953D01*
X53723732Y54477990D01*
X53721071Y54499058D01*
X53704266Y54541502D01*
X53700481Y54552556D01*
X53687744Y54596398D01*
X53687744Y54596399D01*
X53676934Y54614678D01*
X53668380Y54632138D01*
X53660568Y54651871D01*
X53633723Y54688820D01*
X53627332Y54698549D01*
X53604081Y54737865D01*
X53589068Y54752878D01*
X53576435Y54767670D01*
X53563963Y54784837D01*
X53528779Y54813944D01*
X53520140Y54821806D01*
X52142709Y56199237D01*
X52109224Y56260560D01*
X52110615Y56319012D01*
X52116691Y56341688D01*
X52130063Y56391592D01*
X52150659Y56627000D01*
X52130063Y56862408D01*
X52068903Y57090663D01*
X51969035Y57304829D01*
X51833495Y57498401D01*
X51666401Y57665495D01*
X51472830Y57801035D01*
X51258663Y57900903D01*
X51197501Y57917291D01*
X51030407Y57962064D01*
X50795000Y57982660D01*
X50559592Y57962064D01*
X50331336Y57900903D01*
X50117170Y57801035D01*
X49923601Y57665497D01*
X49801673Y57543569D01*
X49740350Y57510085D01*
X49670658Y57515069D01*
X49614725Y57556941D01*
X49597810Y57587918D01*
X49580217Y57635087D01*
X49548796Y57719331D01*
X49462546Y57834546D01*
X49347331Y57920796D01*
X49212483Y57971091D01*
X49152873Y57977500D01*
X49149550Y57977500D01*
X47360439Y57977500D01*
X47360420Y57977500D01*
X47357128Y57977499D01*
X47353848Y57977147D01*
X47353840Y57977146D01*
X47297515Y57971091D01*
X47162669Y57920796D01*
X47047454Y57834546D01*
X46961204Y57719332D01*
X46931046Y57638472D01*
X46910909Y57584483D01*
X46904500Y57524873D01*
X46904500Y57521552D01*
X46904500Y57521551D01*
X46904500Y55732440D01*
X46904500Y55732422D01*
X46904501Y55729128D01*
X46904853Y55725848D01*
X46904854Y55725841D01*
X46910909Y55669516D01*
X46936056Y55602094D01*
X46961204Y55534669D01*
X47047454Y55419454D01*
X47162669Y55333204D01*
X47274907Y55291342D01*
X47294082Y55284190D01*
X47350016Y55242319D01*
X47374433Y55176854D01*
X47359581Y55108581D01*
X47338431Y55080327D01*
X47216503Y54958399D01*
X47080965Y54764830D01*
X46981097Y54550664D01*
X46919936Y54322408D01*
X46899340Y54087000D01*
X46919936Y53851593D01*
X46964709Y53684499D01*
X46981097Y53623337D01*
X47080965Y53409170D01*
X47216505Y53215599D01*
X47383599Y53048505D01*
X47569160Y52918574D01*
X47612783Y52863998D01*
X47619976Y52794499D01*
X47588454Y52732145D01*
X47569159Y52715425D01*
X47383595Y52585492D01*
X47216505Y52418402D01*
X47080965Y52224830D01*
X46981097Y52010664D01*
X46919936Y51782408D01*
X46899340Y51547000D01*
X500500Y51547000D01*
X500500Y56642122D01*
X8075500Y56642122D01*
X8075501Y56638992D01*
X8075820Y56635860D01*
X8075821Y56635859D01*
X8086000Y56536204D01*
X8141186Y56369666D01*
X8233288Y56220343D01*
X8357342Y56096289D01*
X8381152Y56081603D01*
X8506666Y56004186D01*
X8618016Y55967288D01*
X8673202Y55949001D01*
X8772858Y55938820D01*
X8772859Y55938820D01*
X8775991Y55938500D01*
X9576008Y55938501D01*
X9678797Y55949001D01*
X9845334Y56004186D01*
X9994656Y56096288D01*
X10118712Y56220344D01*
X10157815Y56283742D01*
X10209761Y56330465D01*
X10278723Y56341688D01*
X10342806Y56313845D01*
X10360818Y56295302D01*
X10375908Y56276114D01*
X10513542Y56156853D01*
X10534745Y56138480D01*
X10633259Y56081603D01*
X10716756Y56033396D01*
X10801150Y56004187D01*
X10915366Y55964656D01*
X10950298Y55959634D01*
X11123398Y55934746D01*
X11333330Y55944746D01*
X11537576Y55994296D01*
X11623195Y56033397D01*
X11728752Y56081603D01*
X11808624Y56138480D01*
X11899952Y56203514D01*
X12044986Y56355622D01*
X12071542Y56396944D01*
X12124344Y56442697D01*
X12193503Y56452641D01*
X12257058Y56423616D01*
X12273326Y56406556D01*
X12375908Y56276114D01*
X12534745Y56138480D01*
X12633259Y56081603D01*
X12716756Y56033396D01*
X12801150Y56004187D01*
X12915366Y55964656D01*
X12950298Y55959634D01*
X13123398Y55934746D01*
X13333330Y55944746D01*
X13537576Y55994296D01*
X13623195Y56033397D01*
X13728752Y56081603D01*
X13808624Y56138480D01*
X13899952Y56203514D01*
X14044986Y56355622D01*
X14158613Y56532428D01*
X14236725Y56727543D01*
X14276500Y56933915D01*
X14276500Y57641425D01*
X14274201Y57665497D01*
X14261528Y57798216D01*
X14261528Y57798218D01*
X14202316Y57999875D01*
X14106011Y58186682D01*
X14085552Y58212697D01*
X13976093Y58351885D01*
X13817254Y58489521D01*
X13635245Y58594604D01*
X13436633Y58663345D01*
X13397300Y58669000D01*
X60316699Y58669000D01*
X60335865Y58437701D01*
X60335865Y58437699D01*
X60335866Y58437695D01*
X60390628Y58221446D01*
X60392844Y58212697D01*
X60444220Y58095572D01*
X60486076Y58000151D01*
X60613021Y57805847D01*
X60770216Y57635087D01*
X60953374Y57492530D01*
X61157497Y57382064D01*
X61267258Y57344384D01*
X61377015Y57306703D01*
X61377017Y57306703D01*
X61377019Y57306702D01*
X61605951Y57268500D01*
X61605952Y57268500D01*
X61838048Y57268500D01*
X61838049Y57268500D01*
X62066981Y57306702D01*
X62286503Y57382064D01*
X62490626Y57492530D01*
X62673784Y57635087D01*
X62830979Y57805847D01*
X62957924Y58000151D01*
X63051157Y58212700D01*
X63108134Y58437695D01*
X63127300Y58669000D01*
X63126471Y58678999D01*
X63108134Y58900300D01*
X63108134Y58900305D01*
X63051157Y59125300D01*
X62957924Y59337849D01*
X62830979Y59532153D01*
X62673784Y59702913D01*
X62490626Y59845470D01*
X62286503Y59955936D01*
X62286499Y59955938D01*
X62286498Y59955938D01*
X62066984Y60031298D01*
X61895282Y60059950D01*
X61838049Y60069500D01*
X61605951Y60069500D01*
X61560164Y60061860D01*
X61377015Y60031298D01*
X61157501Y59955938D01*
X60953372Y59845469D01*
X60770215Y59702913D01*
X60613020Y59532152D01*
X60486076Y59337850D01*
X60392844Y59125304D01*
X60335865Y58900300D01*
X60316699Y58669000D01*
X13397300Y58669000D01*
X13228603Y58693254D01*
X13228602Y58693254D01*
X13149794Y58689500D01*
X13018669Y58683254D01*
X12814419Y58633703D01*
X12623247Y58546398D01*
X12452050Y58424488D01*
X12307011Y58272375D01*
X12280457Y58231057D01*
X12227652Y58185303D01*
X12158494Y58175360D01*
X12094939Y58204387D01*
X12078673Y58221446D01*
X11983558Y58342392D01*
X11976092Y58351886D01*
X11817256Y58489519D01*
X11817254Y58489521D01*
X11635245Y58594604D01*
X11436633Y58663345D01*
X11228603Y58693254D01*
X11228602Y58693254D01*
X11149794Y58689500D01*
X11018669Y58683254D01*
X10814419Y58633703D01*
X10623247Y58546398D01*
X10452049Y58424488D01*
X10354249Y58321918D01*
X10293739Y58286983D01*
X10223949Y58290308D01*
X10167035Y58330837D01*
X10158967Y58342392D01*
X10118711Y58407658D01*
X9994657Y58531712D01*
X9845334Y58623814D01*
X9678797Y58679000D01*
X9579141Y58689181D01*
X9579122Y58689182D01*
X9576009Y58689500D01*
X9572860Y58689500D01*
X8779141Y58689500D01*
X8779121Y58689500D01*
X8775992Y58689499D01*
X8772860Y58689180D01*
X8772858Y58689179D01*
X8673203Y58679000D01*
X8506665Y58623814D01*
X8357342Y58531712D01*
X8233288Y58407658D01*
X8141186Y58258335D01*
X8086000Y58091798D01*
X8075819Y57992142D01*
X8075817Y57992122D01*
X8075500Y57989009D01*
X8075500Y57985862D01*
X8075500Y57985861D01*
X8075500Y56642141D01*
X8075500Y56642122D01*
X500500Y56642122D01*
X500500Y60319422D01*
X9312500Y60319422D01*
X9312501Y60316128D01*
X9312853Y60312848D01*
X9312854Y60312841D01*
X9318909Y60256516D01*
X9344056Y60189094D01*
X9369204Y60121669D01*
X9455454Y60006454D01*
X9570669Y59920204D01*
X9705517Y59869909D01*
X9765127Y59863500D01*
X11560872Y59863501D01*
X11620483Y59869909D01*
X11755331Y59920204D01*
X11870546Y60006454D01*
X11956796Y60121669D01*
X12005810Y60253084D01*
X12047681Y60309017D01*
X12113146Y60333434D01*
X12181419Y60318582D01*
X12209673Y60297431D01*
X12331599Y60175505D01*
X12525170Y60039965D01*
X12739337Y59940097D01*
X12967591Y59878938D01*
X12967592Y59878937D01*
X13202999Y59858341D01*
X13202999Y59858342D01*
X13203000Y59858341D01*
X13438408Y59878937D01*
X13666663Y59940097D01*
X13880830Y60039965D01*
X14074401Y60175505D01*
X14241495Y60342599D01*
X14377035Y60536170D01*
X14476903Y60750337D01*
X14538063Y60978592D01*
X14558659Y61214000D01*
X14538063Y61449408D01*
X14476903Y61677663D01*
X14377035Y61891829D01*
X14241495Y62085401D01*
X14074401Y62252495D01*
X13880830Y62388035D01*
X13666663Y62487903D01*
X13605501Y62504291D01*
X13438407Y62549064D01*
X13203000Y62569660D01*
X12967592Y62549064D01*
X12739336Y62487903D01*
X12525170Y62388035D01*
X12331601Y62252497D01*
X12209673Y62130569D01*
X12148350Y62097085D01*
X12078658Y62102069D01*
X12022725Y62143941D01*
X12005810Y62174918D01*
X11998658Y62194093D01*
X11956796Y62306331D01*
X11870546Y62421546D01*
X11755331Y62507796D01*
X11620483Y62558091D01*
X11560873Y62564500D01*
X11557550Y62564500D01*
X9768439Y62564500D01*
X9768420Y62564500D01*
X9765128Y62564499D01*
X9761848Y62564147D01*
X9761840Y62564146D01*
X9705515Y62558091D01*
X9570669Y62507796D01*
X9455454Y62421546D01*
X9369204Y62306332D01*
X9369203Y62306331D01*
X9369204Y62306331D01*
X9318909Y62171483D01*
X9312500Y62111873D01*
X9312500Y62108552D01*
X9312500Y62108551D01*
X9312500Y60319440D01*
X9312500Y60319422D01*
X500500Y60319422D01*
X500500Y65195422D01*
X6508612Y65195422D01*
X6508613Y65192128D01*
X6508965Y65188848D01*
X6508966Y65188841D01*
X6515021Y65132516D01*
X6540168Y65065093D01*
X6565316Y64997669D01*
X6651566Y64882454D01*
X6766781Y64796204D01*
X6901629Y64745909D01*
X6961239Y64739500D01*
X8656984Y64739501D01*
X8716595Y64745909D01*
X8851443Y64796204D01*
X8869190Y64809491D01*
X8934652Y64833907D01*
X9002925Y64819056D01*
X9052331Y64769652D01*
X9067500Y64710223D01*
X9067500Y63625440D01*
X9067500Y63625422D01*
X9067501Y63622128D01*
X9073909Y63562517D01*
X9124204Y63427669D01*
X9210454Y63312454D01*
X9325669Y63226204D01*
X9460517Y63175909D01*
X9520127Y63169500D01*
X11815872Y63169501D01*
X11875483Y63175909D01*
X12010331Y63226204D01*
X12125546Y63312454D01*
X12211796Y63427669D01*
X12262091Y63562517D01*
X12268500Y63622127D01*
X12268499Y64770000D01*
X16682551Y64770000D01*
X16684951Y64739501D01*
X16702317Y64518851D01*
X16761126Y64273890D01*
X16771319Y64249283D01*
X16857534Y64041141D01*
X16989164Y63826341D01*
X17152776Y63634776D01*
X17344341Y63471164D01*
X17559141Y63339534D01*
X17791889Y63243127D01*
X18036852Y63184317D01*
X18288000Y63164551D01*
X18539148Y63184317D01*
X18784111Y63243127D01*
X19016859Y63339534D01*
X19171674Y63434405D01*
X28054686Y63434405D01*
X28075734Y63243127D01*
X28085114Y63157876D01*
X28155480Y62888724D01*
X28264284Y62632686D01*
X28409208Y62395219D01*
X28409211Y62395215D01*
X28409212Y62395214D01*
X28527981Y62252497D01*
X28587163Y62181383D01*
X28794357Y61995737D01*
X29026373Y61842237D01*
X29026375Y61842236D01*
X29278268Y61724153D01*
X29432795Y61677663D01*
X29544669Y61644005D01*
X29819901Y61603500D01*
X29819904Y61603500D01*
X30026201Y61603500D01*
X30028463Y61603500D01*
X30236455Y61618723D01*
X30507997Y61679212D01*
X30767838Y61778592D01*
X31010440Y61914747D01*
X31230632Y62084774D01*
X31231238Y62085402D01*
X31423722Y62285049D01*
X31497402Y62388035D01*
X31585593Y62511304D01*
X31712797Y62758717D01*
X31802621Y63022014D01*
X31853152Y63295584D01*
X31863313Y63573596D01*
X31832886Y63850124D01*
X31762520Y64119276D01*
X31653716Y64375314D01*
X31508792Y64612781D01*
X31501875Y64621093D01*
X31330838Y64826616D01*
X31223015Y64923226D01*
X31123643Y65012263D01*
X30891627Y65165763D01*
X30891624Y65165765D01*
X30639731Y65283848D01*
X30373336Y65363994D01*
X30373332Y65363995D01*
X30373331Y65363995D01*
X30098099Y65404500D01*
X29889537Y65404500D01*
X29887288Y65404336D01*
X29887277Y65404335D01*
X29681544Y65389278D01*
X29410003Y65328789D01*
X29150163Y65229409D01*
X28907560Y65093253D01*
X28687366Y64923226D01*
X28494277Y64722952D01*
X28332405Y64496695D01*
X28205205Y64249289D01*
X28115377Y63985982D01*
X28064847Y63712417D01*
X28054686Y63434405D01*
X19171674Y63434405D01*
X19231659Y63471164D01*
X19423224Y63634776D01*
X19586836Y63826341D01*
X19718466Y64041141D01*
X19814873Y64273889D01*
X19873683Y64518852D01*
X19893449Y64770000D01*
X19873683Y65021148D01*
X19814873Y65266111D01*
X19718466Y65498859D01*
X19586836Y65713659D01*
X19423224Y65905224D01*
X19231659Y66068836D01*
X19068207Y66169000D01*
X60316699Y66169000D01*
X60335865Y65937701D01*
X60335865Y65937699D01*
X60335866Y65937695D01*
X60392843Y65712700D01*
X60486076Y65500151D01*
X60613021Y65305847D01*
X60770216Y65135087D01*
X60953374Y64992530D01*
X61157497Y64882064D01*
X61267257Y64844384D01*
X61377015Y64806703D01*
X61377017Y64806703D01*
X61377019Y64806702D01*
X61605951Y64768500D01*
X61605952Y64768500D01*
X61838048Y64768500D01*
X61838049Y64768500D01*
X62066981Y64806702D01*
X62286503Y64882064D01*
X62490626Y64992530D01*
X62673784Y65135087D01*
X62830979Y65305847D01*
X62957924Y65500151D01*
X63051157Y65712700D01*
X63108134Y65937695D01*
X63127300Y66169000D01*
X63108134Y66400305D01*
X63051157Y66625300D01*
X62957924Y66837849D01*
X62830979Y67032153D01*
X62673784Y67202913D01*
X62490626Y67345470D01*
X62286503Y67455936D01*
X62286499Y67455938D01*
X62286498Y67455938D01*
X62066984Y67531298D01*
X61895282Y67559950D01*
X61838049Y67569500D01*
X61605951Y67569500D01*
X61560164Y67561860D01*
X61377015Y67531298D01*
X61157501Y67455938D01*
X60953372Y67345469D01*
X60770215Y67202913D01*
X60613020Y67032152D01*
X60486076Y66837850D01*
X60392844Y66625304D01*
X60335865Y66400300D01*
X60316699Y66169000D01*
X19068207Y66169000D01*
X19016859Y66200466D01*
X18834279Y66276093D01*
X18784110Y66296874D01*
X18539149Y66355683D01*
X18288000Y66375449D01*
X18036850Y66355683D01*
X17791889Y66296874D01*
X17559139Y66200465D01*
X17344342Y66068837D01*
X17152776Y65905224D01*
X16989163Y65713658D01*
X16857535Y65498861D01*
X16761126Y65266111D01*
X16702317Y65021150D01*
X16684613Y64796205D01*
X16682551Y64770000D01*
X12268499Y64770000D01*
X12268499Y65917872D01*
X12262091Y65977483D01*
X12211796Y66112331D01*
X12125546Y66227546D01*
X12010331Y66313796D01*
X11875483Y66364091D01*
X11815873Y66370500D01*
X11812550Y66370500D01*
X9523439Y66370500D01*
X9523420Y66370500D01*
X9520128Y66370499D01*
X9516848Y66370147D01*
X9516840Y66370146D01*
X9460515Y66364091D01*
X9325668Y66313797D01*
X9325669Y66313796D01*
X9307920Y66300510D01*
X9242457Y66276093D01*
X9174184Y66290945D01*
X9124779Y66340350D01*
X9109611Y66399777D01*
X9109611Y66884561D01*
X9109611Y66884562D01*
X9109611Y66887872D01*
X9103203Y66947483D01*
X9052908Y67082331D01*
X8966658Y67197546D01*
X8851443Y67283796D01*
X8716595Y67334091D01*
X8656985Y67340500D01*
X8653662Y67340500D01*
X6964551Y67340500D01*
X6964532Y67340500D01*
X6961240Y67340499D01*
X6957960Y67340147D01*
X6957952Y67340146D01*
X6901627Y67334091D01*
X6766781Y67283796D01*
X6651566Y67197546D01*
X6565316Y67082332D01*
X6515022Y66947485D01*
X6515021Y66947483D01*
X6508612Y66887873D01*
X6508612Y66884552D01*
X6508612Y66884551D01*
X6508612Y65195440D01*
X6508612Y65195422D01*
X500500Y65195422D01*
X500500Y77607500D01*
X520185Y77674539D01*
X572989Y77720294D01*
X624500Y77731500D01*
X37253158Y77731500D01*
X37320197Y77711815D01*
G37*
%TD.AperFunction*%
%TD*%
M02*
