M48
; DRILL file {KiCad 7.0.2-0} date 2023 September 22, Friday 13:09:21
; FORMAT={-:-/ absolute / metric / decimal}
; #@! TF.CreationDate,2023-09-22T13:09:21+12:00
; #@! TF.GenerationSoftware,Kicad,Pcbnew,7.0.2-0
; #@! TF.FileFunction,Plated,1,2,PTH
FMAT,2
METRIC
; #@! TA.AperFunction,Plated,PTH,ViaDrill
T1C0.400
; #@! TA.AperFunction,Plated,PTH,ComponentDrill
T2C0.500
; #@! TA.AperFunction,Plated,PTH,ComponentDrill
T3C0.750
; #@! TA.AperFunction,Plated,PTH,ComponentDrill
T4C0.800
; #@! TA.AperFunction,Plated,PTH,ComponentDrill
T5C0.900
; #@! TA.AperFunction,Plated,PTH,ComponentDrill
T6C1.000
; #@! TA.AperFunction,Plated,PTH,ComponentDrill
T7C1.020
; #@! TA.AperFunction,Plated,PTH,ComponentDrill
T8C1.100
; #@! TA.AperFunction,Plated,PTH,ComponentDrill
T9C2.000
; #@! TA.AperFunction,Plated,PTH,ComponentDrill
T10C3.200
%
G90
G05
T1
X15.24Y67.818
X15.24Y10.16
X17.033Y60.96
X17.526Y21.844
X18.288Y60.96
X19.05Y21.844
X39.878Y44.196
X43.18Y50.8
X44.958Y41.148
X51.816Y2.54
X53.34Y48.26
X54.864Y48.26
X58.166Y32.766
X58.166Y19.05
X59.436Y50.038
T2
X18.174Y74.422
X18.174Y3.891
X18.877Y76.119
X18.877Y72.725
X18.877Y5.588
X18.877Y2.194
X20.574Y76.822
X20.574Y72.022
X20.574Y6.291
X20.574Y1.491
X22.271Y76.119
X22.271Y72.725
X22.271Y5.588
X22.271Y2.194
X22.974Y74.422
X22.974Y3.891
X36.97Y74.422
X37.051Y4.064
X37.673Y76.119
X37.673Y72.725
X37.754Y5.761
X37.754Y2.367
X39.37Y76.822
X39.37Y72.022
X39.451Y6.464
X39.451Y1.664
X41.067Y76.119
X41.067Y72.725
X41.148Y5.761
X41.148Y2.367
X41.77Y74.422
X41.851Y4.064
T3
X9.176Y57.314
X9.176Y20.918
X11.176Y57.314
X11.176Y20.918
X13.176Y57.314
X13.176Y20.918
X61.32Y27.686
X61.32Y26.416
X61.32Y25.146
T4
X5.309Y66.04
X7.809Y66.04
X8.701Y6.096
X11.201Y6.096
X60.706Y45.116
X60.706Y43.116
X60.706Y41.116
X60.706Y39.116
X60.706Y37.116
T5
X60.198Y5.075
X60.198Y2.535
X61.722Y66.169
X61.722Y63.629
X61.722Y58.669
X61.722Y56.129
X61.722Y51.169
X61.722Y48.629
T6
X2.799Y3.556
X5.339Y3.556
X10.663Y61.214
X10.673Y17.018
X13.203Y61.214
X13.213Y17.018
X48.255Y56.627
X48.255Y54.087
X48.255Y51.547
X48.26Y32.248
X48.26Y29.708
X48.26Y27.168
X48.26Y24.628
X50.795Y56.627
X50.795Y54.087
X50.795Y51.547
X94.747Y42.916
X94.747Y40.376
X94.747Y37.836
X94.747Y35.296
X97.287Y42.916
X97.287Y40.376
X97.287Y37.836
X97.287Y35.296
T7
X2.794Y63.504
X2.794Y48.514
X2.794Y29.718
X2.794Y14.728
T8
X10.668Y64.77
X10.668Y13.208
X18.288Y64.77
X18.288Y13.208
X56.948Y76.164
X56.948Y71.664
X63.448Y76.164
X63.448Y71.664
T9
X48.26Y15.24
X53.34Y15.24
T10
X20.574Y74.422
X20.574Y3.891
X39.37Y74.422
X39.451Y4.064
T0
M30
