%TF.GenerationSoftware,KiCad,Pcbnew,(7.0.0)*%
%TF.CreationDate,2023-09-21T17:16:17+12:00*%
%TF.ProjectId,MainBoard,4d61696e-426f-4617-9264-2e6b69636164,rev?*%
%TF.SameCoordinates,PX48ab840PY7b0df40*%
%TF.FileFunction,Paste,Top*%
%TF.FilePolarity,Positive*%
%FSLAX46Y46*%
G04 Gerber Fmt 4.6, Leading zero omitted, Abs format (unit mm)*
G04 Created by KiCad (PCBNEW (7.0.0)) date 2023-09-21 17:16:17*
%MOMM*%
%LPD*%
G01*
G04 APERTURE LIST*
G04 Aperture macros list*
%AMRoundRect*
0 Rectangle with rounded corners*
0 $1 Rounding radius*
0 $2 $3 $4 $5 $6 $7 $8 $9 X,Y pos of 4 corners*
0 Add a 4 corners polygon primitive as box body*
4,1,4,$2,$3,$4,$5,$6,$7,$8,$9,$2,$3,0*
0 Add four circle primitives for the rounded corners*
1,1,$1+$1,$2,$3*
1,1,$1+$1,$4,$5*
1,1,$1+$1,$6,$7*
1,1,$1+$1,$8,$9*
0 Add four rect primitives between the rounded corners*
20,1,$1+$1,$2,$3,$4,$5,0*
20,1,$1+$1,$4,$5,$6,$7,0*
20,1,$1+$1,$6,$7,$8,$9,0*
20,1,$1+$1,$8,$9,$2,$3,0*%
G04 Aperture macros list end*
%ADD10RoundRect,0.250000X0.262500X0.450000X-0.262500X0.450000X-0.262500X-0.450000X0.262500X-0.450000X0*%
%ADD11RoundRect,0.250000X-0.262500X-0.450000X0.262500X-0.450000X0.262500X0.450000X-0.262500X0.450000X0*%
%ADD12RoundRect,0.150000X-0.150000X0.587500X-0.150000X-0.587500X0.150000X-0.587500X0.150000X0.587500X0*%
%ADD13RoundRect,0.250000X-0.450000X0.262500X-0.450000X-0.262500X0.450000X-0.262500X0.450000X0.262500X0*%
%ADD14RoundRect,0.250000X-0.325000X-0.650000X0.325000X-0.650000X0.325000X0.650000X-0.325000X0.650000X0*%
%ADD15RoundRect,0.250000X0.450000X-0.262500X0.450000X0.262500X-0.450000X0.262500X-0.450000X-0.262500X0*%
%ADD16RoundRect,0.250000X0.650000X-0.325000X0.650000X0.325000X-0.650000X0.325000X-0.650000X-0.325000X0*%
%ADD17R,0.550000X1.600000*%
%ADD18R,1.600000X0.550000*%
%ADD19RoundRect,0.250000X0.325000X0.650000X-0.325000X0.650000X-0.325000X-0.650000X0.325000X-0.650000X0*%
%ADD20RoundRect,0.250000X-0.650000X0.325000X-0.650000X-0.325000X0.650000X-0.325000X0.650000X0.325000X0*%
G04 APERTURE END LIST*
D10*
%TO.C,R9*%
X22756500Y59182000D03*
X20931500Y59182000D03*
%TD*%
%TO.C,R10*%
X23264500Y21336000D03*
X21439500Y21336000D03*
%TD*%
D11*
%TO.C,R15*%
X63349500Y33020000D03*
X65174500Y33020000D03*
%TD*%
D12*
%TO.C,Q1*%
X18984000Y59279000D03*
X17084000Y59279000D03*
X18034000Y57404000D03*
%TD*%
D13*
%TO.C,R12*%
X7620000Y61872500D03*
X7620000Y60047500D03*
%TD*%
D11*
%TO.C,R14*%
X63349500Y35052000D03*
X65174500Y35052000D03*
%TD*%
D14*
%TO.C,C7*%
X10668000Y67818000D03*
X13618000Y67818000D03*
%TD*%
D15*
%TO.C,R4*%
X54102000Y74271500D03*
X54102000Y76096500D03*
%TD*%
D11*
%TO.C,R2*%
X55221500Y27686000D03*
X57046500Y27686000D03*
%TD*%
D10*
%TO.C,R11*%
X23264500Y19050000D03*
X21439500Y19050000D03*
%TD*%
D16*
%TO.C,C3*%
X57150000Y48309000D03*
X57150000Y51259000D03*
%TD*%
D12*
%TO.C,Q2*%
X19238000Y18893000D03*
X17338000Y18893000D03*
X18288000Y17018000D03*
%TD*%
D17*
%TO.C,U2*%
X49015999Y37659999D03*
X49815999Y37659999D03*
X50615999Y37659999D03*
X51415999Y37659999D03*
X52215999Y37659999D03*
X53015999Y37659999D03*
X53815999Y37659999D03*
X54615999Y37659999D03*
D18*
X56065999Y39109999D03*
X56065999Y39909999D03*
X56065999Y40709999D03*
X56065999Y41509999D03*
X56065999Y42309999D03*
X56065999Y43109999D03*
X56065999Y43909999D03*
X56065999Y44709999D03*
D17*
X54615999Y46159999D03*
X53815999Y46159999D03*
X53015999Y46159999D03*
X52215999Y46159999D03*
X51415999Y46159999D03*
X50615999Y46159999D03*
X49815999Y46159999D03*
X49015999Y46159999D03*
D18*
X47565999Y44709999D03*
X47565999Y43909999D03*
X47565999Y43109999D03*
X47565999Y42309999D03*
X47565999Y41509999D03*
X47565999Y40709999D03*
X47565999Y39909999D03*
X47565999Y39109999D03*
%TD*%
D11*
%TO.C,R3*%
X43434000Y46228000D03*
X45259000Y46228000D03*
%TD*%
%TO.C,R5*%
X55729500Y53594000D03*
X57554500Y53594000D03*
%TD*%
%TO.C,R6*%
X55626000Y59436000D03*
X57451000Y59436000D03*
%TD*%
D14*
%TO.C,C8*%
X10717000Y10160000D03*
X13667000Y10160000D03*
%TD*%
D19*
%TO.C,C5*%
X45974000Y48514000D03*
X43024000Y48514000D03*
%TD*%
D20*
%TO.C,C6*%
X45212000Y28653000D03*
X45212000Y25703000D03*
%TD*%
D10*
%TO.C,R8*%
X22756500Y61214000D03*
X20931500Y61214000D03*
%TD*%
D19*
%TO.C,C2*%
X61116000Y30734000D03*
X58166000Y30734000D03*
%TD*%
D11*
%TO.C,R7*%
X55729500Y67056000D03*
X57554500Y67056000D03*
%TD*%
D10*
%TO.C,R1*%
X55522500Y2540000D03*
X53697500Y2540000D03*
%TD*%
D19*
%TO.C,C1*%
X61165000Y21082000D03*
X58215000Y21082000D03*
%TD*%
%TO.C,C4*%
X42877000Y42164000D03*
X39927000Y42164000D03*
%TD*%
D15*
%TO.C,R13*%
X7620000Y16359500D03*
X7620000Y18184500D03*
%TD*%
M02*
